<svg id="svg" version="1.1" xmlns="http://www.w3.org/2000/svg" xmlns:xlink="http://www.w3.org/1999/xlink" width="400" height="399.59999999999997" viewBox="0, 0, 400,399.59999999999997"><g id="svgg"><path id="path0" d="M204.508 130.554 L 204.396 135.265 202.797 135.358 C 184.268 136.444,171.827 144.672,166.986 159.041 C 165.500 163.454,164.928 170.482,165.833 173.224 L 166.328 174.724 167.591 171.378 C 172.492 158.389,186.160 149.862,202.098 149.852 L 204.595 149.850 204.595 154.446 C 204.595 156.973,204.684 159.041,204.791 159.041 C 205.712 159.041,224.938 142.454,224.494 142.044 C 223.496 141.121,205.589 126.428,205.108 126.137 C 204.738 125.914,204.594 126.979,204.508 130.554 M232.989 156.331 C 228.963 169.785,214.109 179.397,197.315 179.418 L 195.429 179.421 195.317 174.688 L 195.205 169.956 185.814 177.697 C 180.649 181.955,176.125 185.748,175.761 186.126 C 175.138 186.771,175.712 187.318,185.151 195.075 L 195.205 203.338 195.405 198.673 L 195.604 194.009 200.200 193.507 C 218.391 191.520,229.930 182.577,233.792 167.473 C 235.224 161.871,234.468 151.386,232.989 156.331 M95.129 218.271 C 94.106 218.807,75.658 271.258,76.093 272.393 C 76.565 273.622,84.269 274.248,86.282 273.221 C 87.056 272.826,87.603 271.666,89.013 267.433 L 90.776 262.138 100.305 262.138 L 109.835 262.138 111.561 267.392 C 113.603 273.609,113.775 273.751,119.168 273.686 C 123.404 273.635,124.439 273.346,124.609 272.166 C 124.749 271.194,107.344 219.877,106.466 218.675 C 105.806 217.771,96.703 217.446,95.129 218.271 M131.868 218.299 L 130.869 218.805 130.752 238.573 C 130.619 260.917,130.674 261.458,133.541 265.750 C 141.791 278.105,168.519 276.728,174.637 263.633 C 176.393 259.875,176.607 257.084,176.610 237.962 C 176.613 215.858,177.198 217.593,169.822 217.844 C 164.123 218.038,164.635 216.053,164.635 237.960 L 164.635 256.387 163.617 258.430 C 159.870 265.950,147.371 265.930,143.343 258.399 C 142.473 256.773,142.454 256.402,142.258 237.774 L 142.058 218.804 141.059 218.299 C 139.741 217.633,133.186 217.633,131.868 218.299 M189.011 218.299 L 188.012 218.805 187.909 245.435 C 187.817 269.250,187.873 272.132,188.437 272.696 C 188.989 273.248,190.931 273.327,204.010 273.327 C 221.377 273.327,219.780 273.830,219.780 268.358 C 219.780 263.129,220.226 263.337,208.991 263.337 L 199.800 263.337 199.795 241.858 C 199.789 218.653,199.804 218.893,198.349 218.231 C 197.001 217.616,190.263 217.666,189.011 218.299 M227.062 218.404 L 226.174 219.026 226.174 245.728 C 226.174 276.959,225.458 273.526,231.968 273.526 C 238.478 273.526,237.762 276.959,237.762 245.728 L 237.762 219.026 236.874 218.404 C 236.213 217.941,234.958 217.782,231.968 217.782 C 228.978 217.782,227.723 217.941,227.062 218.404 M250.644 218.196 C 250.146 218.396,249.561 219.026,249.345 219.596 C 248.813 220.995,248.810 271.118,249.342 272.112 C 250.266 273.838,258.999 274.377,260.623 272.808 C 260.670 272.764,260.805 267.692,260.923 261.538 L 261.139 250.350 270.318 250.150 L 279.498 249.950 280.003 248.951 C 280.280 248.402,280.510 246.578,280.514 244.899 C 280.523 240.002,280.903 240.180,270.130 240.060 L 261.139 239.960 261.139 233.966 L 261.139 227.972 270.529 227.868 C 281.614 227.746,280.919 228.078,280.919 222.901 C 280.919 217.393,282.086 217.777,265.435 217.808 C 257.797 217.821,251.141 217.996,250.644 218.196 M290.851 218.233 C 290.269 218.446,289.687 219.016,289.557 219.500 C 288.946 221.779,289.299 271.534,289.933 272.439 L 290.555 273.327 306.667 273.327 C 325.027 273.327,323.719 273.600,324.000 269.710 C 324.467 263.249,324.634 263.337,311.860 263.337 L 301.299 263.337 301.299 256.743 L 301.299 250.150 310.689 250.150 C 322.178 250.150,321.678 250.383,321.678 245.031 C 321.678 239.847,322.401 240.186,311.089 240.064 L 301.499 239.960 301.499 233.966 L 301.499 227.972 312.144 227.866 C 324.736 227.740,323.876 228.105,323.876 222.882 C 323.876 217.400,325.132 217.776,306.949 217.814 C 298.315 217.832,291.458 218.010,290.851 218.233 M100.916 233.666 C 101.043 234.271,102.305 238.461,103.720 242.977 C 105.136 247.494,106.294 251.405,106.294 251.669 C 106.294 252.020,104.694 252.148,100.300 252.148 C 95.699 252.148,94.306 252.029,94.306 251.637 C 94.306 251.356,95.456 247.685,96.862 243.479 C 98.268 239.273,99.543 235.097,99.695 234.200 C 100.012 232.319,100.580 232.071,100.916 233.666 " stroke="none" fill="#fbfbfb" fill-rule="evenodd"></path><path id="path1" d="M187.013 0.257 C 69.543 8.680,-14.321 112.485,2.238 228.971 C 14.117 312.543,79.573 380.892,162.371 396.184 C 286.847 419.174,399.914 325.446,399.755 199.401 C 399.626 96.179,323.534 12.294,219.580 0.774 C 215.640 0.337,191.287 -0.049,187.013 0.257 M214.186 6.174 C 214.955 6.255,216.960 6.436,218.640 6.576 C 220.321 6.717,222.119 6.897,222.636 6.977 C 223.153 7.058,224.655 7.261,225.974 7.429 C 227.293 7.597,228.462 7.760,228.571 7.792 C 228.745 7.843,232.442 8.378,234.166 8.602 C 234.496 8.645,235.035 8.782,235.365 8.906 C 235.694 9.030,237.043 9.322,238.362 9.556 C 239.680 9.789,242.018 10.272,243.556 10.629 C 245.095 10.987,246.623 11.320,246.953 11.371 C 247.283 11.422,248.362 11.692,249.351 11.972 C 250.340 12.251,251.329 12.522,251.548 12.573 C 251.768 12.625,252.218 12.762,252.547 12.879 C 252.877 12.996,256.294 14.104,260.141 15.342 C 263.988 16.579,269.563 18.597,272.529 19.825 C 275.495 21.052,278.462 22.273,279.121 22.538 C 280.627 23.142,290.824 28.260,293.957 29.984 C 298.659 32.570,309.871 39.647,311.943 41.336 C 312.632 41.898,313.305 42.358,313.437 42.358 C 313.569 42.358,313.994 42.618,314.381 42.935 C 314.768 43.253,317.512 45.450,320.480 47.817 C 323.447 50.184,326.414 52.607,327.073 53.203 C 327.732 53.798,328.721 54.667,329.271 55.134 C 331.681 57.183,340.936 66.480,344.199 70.130 C 346.164 72.328,348.020 74.396,348.324 74.725 C 353.380 80.211,364.311 95.961,369.514 105.257 C 370.457 106.941,377.439 121.051,378.036 122.478 C 378.220 122.917,378.757 124.176,379.229 125.275 C 382.310 132.438,386.859 146.482,388.807 154.845 C 389.268 156.823,389.730 158.801,389.835 159.241 C 389.940 159.680,390.289 161.479,390.611 163.237 C 390.934 164.995,391.289 166.883,391.402 167.433 C 391.515 167.982,391.717 169.241,391.852 170.230 C 391.986 171.219,392.160 172.363,392.238 172.773 C 392.316 173.183,392.496 174.532,392.639 175.770 C 392.782 177.009,392.964 178.371,393.044 178.798 C 394.072 184.261,394.072 215.339,393.044 220.803 C 392.964 221.229,392.782 222.592,392.639 223.830 C 392.496 225.069,392.316 226.417,392.238 226.827 C 392.160 227.237,391.986 228.382,391.852 229.371 C 391.717 230.360,391.515 231.618,391.402 232.168 C 391.289 232.717,390.934 234.605,390.611 236.364 C 390.289 238.122,389.941 239.920,389.837 240.360 C 389.733 240.799,389.355 242.418,388.997 243.956 C 387.210 251.628,383.943 262.295,381.348 268.931 C 378.200 276.983,372.441 289.355,369.630 294.106 C 369.044 295.095,367.776 297.253,366.810 298.901 C 356.918 315.791,341.969 333.556,326.251 347.101 C 316.918 355.143,304.157 364.036,293.906 369.642 C 290.474 371.518,279.861 376.823,279.538 376.823 C 279.430 376.823,278.394 377.262,277.234 377.798 C 275.137 378.767,272.284 379.959,271.926 380.015 C 271.823 380.031,270.882 380.417,269.835 380.873 C 266.314 382.407,249.773 387.744,247.153 388.191 C 245.417 388.488,241.925 389.276,241.359 389.500 C 241.029 389.631,240.220 389.805,239.560 389.889 C 238.901 389.972,236.653 390.381,234.565 390.797 C 232.478 391.212,229.798 391.671,228.611 391.815 C 227.423 391.959,226.130 392.139,225.736 392.215 C 225.342 392.291,223.796 392.477,222.300 392.628 C 220.804 392.780,219.131 392.963,218.581 393.035 C 210.842 394.050,189.498 394.030,181.019 392.999 C 180.250 392.906,178.631 392.726,177.423 392.600 C 176.214 392.474,174.955 392.302,174.625 392.217 C 174.296 392.133,172.947 391.948,171.628 391.806 C 170.310 391.664,168.332 391.369,167.233 391.149 C 166.134 390.930,164.695 390.679,164.036 390.591 C 163.377 390.502,162.118 390.259,161.239 390.050 C 160.360 389.842,159.101 389.579,158.442 389.468 C 157.088 389.238,150.720 387.604,147.254 386.596 C 145.991 386.229,144.755 385.885,144.507 385.832 C 144.259 385.779,143.786 385.636,143.457 385.515 C 142.296 385.088,134.061 382.329,133.666 382.234 C 133.447 382.182,132.907 381.994,132.468 381.816 C 132.028 381.639,130.140 380.881,128.272 380.131 C 126.404 379.382,123.926 378.331,122.766 377.796 C 121.606 377.261,120.562 376.823,120.446 376.823 C 117.249 376.823,92.484 361.873,81.213 353.139 C 71.734 345.794,56.516 331.392,53.005 326.443 C 52.753 326.089,51.648 324.761,50.549 323.492 C 47.352 319.802,39.589 309.243,36.932 304.973 C 36.070 303.587,34.672 301.339,33.826 299.978 C 32.228 297.407,30.344 294.119,29.089 291.708 C 28.688 290.939,28.182 290.040,27.963 289.710 C 27.621 289.192,23.855 281.289,21.835 276.848 C 16.076 264.185,9.901 242.650,8.165 229.171 C 8.052 228.292,7.882 227.202,7.788 226.750 C 7.693 226.298,7.506 224.949,7.372 223.753 C 7.238 222.557,7.057 221.129,6.969 220.579 C 5.905 213.917,5.905 185.684,6.969 179.021 C 7.057 178.472,7.238 177.043,7.372 175.847 C 7.506 174.651,7.693 173.303,7.788 172.850 C 7.882 172.398,8.052 171.309,8.165 170.430 C 10.764 150.257,20.270 122.784,31.050 104.296 C 34.123 99.026,38.954 91.362,40.875 88.711 C 43.814 84.654,49.189 77.631,50.356 76.324 C 51.043 75.554,52.086 74.305,52.675 73.548 C 55.569 69.826,65.903 59.425,72.761 53.333 C 79.507 47.340,90.433 39.413,100.195 33.430 C 105.956 29.899,119.484 22.777,120.430 22.777 C 120.555 22.777,121.606 22.339,122.766 21.803 C 125.081 20.733,127.846 19.536,128.472 19.334 C 128.932 19.185,142.554 14.403,143.457 14.074 C 144.224 13.794,144.203 13.800,145.854 13.417 C 146.623 13.239,147.433 12.984,147.652 12.851 C 147.872 12.719,148.232 12.582,148.452 12.548 C 148.671 12.514,150.739 12.002,153.047 11.410 C 155.355 10.818,157.692 10.252,158.242 10.153 C 158.791 10.053,161.039 9.632,163.237 9.219 C 167.488 8.418,169.071 8.146,171.628 7.774 C 172.507 7.646,173.640 7.473,174.145 7.390 C 174.650 7.307,176.268 7.118,177.741 6.970 C 179.214 6.822,180.738 6.641,181.127 6.568 C 181.516 6.496,184.123 6.316,186.921 6.168 C 189.719 6.020,192.081 5.832,192.171 5.750 C 192.362 5.576,212.122 5.957,214.186 6.174 M182.817 8.602 C 63.856 19.802,-15.544 133.123,14.414 248.951 C 32.812 320.082,92.675 375.569,165.035 388.559 C 306.082 413.881,423.360 284.272,384.373 146.158 C 359.765 58.982,273.443 0.070,182.817 8.602 M214.914 133.519 C 220.557 138.162,225.224 142.163,225.284 142.410 C 225.380 142.805,205.549 159.437,204.579 159.774 C 204.348 159.854,204.196 157.965,204.196 155.023 L 204.196 150.140 200.699 150.422 C 183.582 151.803,171.855 159.599,167.746 172.328 C 166.230 177.027,164.811 174.891,164.893 168.032 C 165.097 150.915,179.612 136.863,198.740 135.267 C 200.312 135.135,202.183 134.938,202.897 134.829 L 204.196 134.629 204.196 129.852 C 204.196 127.225,204.299 125.075,204.424 125.075 C 204.550 125.075,209.270 128.875,214.914 133.519 M234.968 157.261 C 236.233 163.965,232.930 174.686,227.632 181.073 C 221.523 188.438,211.360 193.134,199.381 194.126 L 196.004 194.406 195.804 199.347 L 195.604 204.288 185.246 195.743 C 179.548 191.043,174.820 186.998,174.739 186.755 C 174.598 186.331,194.032 170.025,195.225 169.567 C 195.711 169.381,195.804 170.124,195.804 174.207 L 195.804 179.069 198.701 178.812 C 217.868 177.108,227.661 170.190,233.117 154.500 C 233.575 153.183,234.443 154.477,234.968 157.261 M106.270 218.102 C 107.565 219.067,125.098 269.370,124.958 271.719 C 124.835 273.785,123.767 274.174,118.595 274.038 C 113.281 273.899,113.383 273.989,111.255 267.620 L 109.624 262.737 100.402 262.630 L 91.180 262.523 89.540 267.425 C 87.265 274.224,87.375 274.126,82.004 274.126 C 75.735 274.126,75.076 273.540,76.478 269.220 C 77.282 266.740,92.249 223.065,93.510 219.518 C 94.402 217.008,103.453 216.004,106.270 218.102 M139.799 217.354 C 143.040 217.980,142.833 216.649,143.057 238.276 L 143.257 257.542 144.547 259.401 C 147.709 263.954,156.570 264.838,161.072 261.050 C 164.066 258.531,164.013 258.919,164.236 237.805 L 164.436 218.867 165.558 218.029 C 167.218 216.790,174.041 216.790,175.701 218.029 L 176.823 218.867 176.934 238.005 C 177.056 259.109,176.910 260.824,174.663 264.735 C 170.727 271.586,164.733 274.289,153.447 274.304 C 139.243 274.322,131.602 268.856,130.248 257.709 C 129.510 251.629,129.927 219.151,130.755 218.324 C 131.879 217.201,136.463 216.709,139.799 217.354 M199.001 218.126 L 200.000 218.867 200.103 240.902 L 200.207 262.937 209.394 262.937 C 217.872 262.937,218.640 262.995,219.337 263.693 C 220.744 265.100,220.905 271.384,219.579 273.196 C 218.736 274.349,189.531 274.320,188.254 273.165 C 187.415 272.405,187.413 272.340,187.413 245.721 C 187.413 216.763,187.314 218.071,189.538 217.599 C 190.018 217.497,190.769 217.326,191.209 217.219 C 192.963 216.793,197.994 217.378,199.001 218.126 M235.852 217.400 C 238.710 218.194,238.561 216.645,238.561 245.611 C 238.561 259.939,238.450 271.954,238.313 272.310 C 237.389 274.719,227.036 274.886,225.766 272.512 C 224.961 271.008,225.264 219.606,226.084 218.594 C 227.265 217.135,232.565 216.487,235.852 217.400 M280.519 218.182 C 281.210 218.873,281.318 219.509,281.313 222.877 C 281.303 228.754,281.661 228.571,270.156 228.571 L 261.339 228.571 261.339 233.945 L 261.339 239.318 270.316 239.439 C 281.088 239.585,280.642 239.384,280.859 244.171 C 281.156 250.709,281.420 250.549,270.301 250.549 L 261.339 250.549 261.339 261.477 C 261.339 274.530,261.640 273.770,256.356 274.047 C 247.795 274.496,248.551 277.239,248.551 245.736 L 248.551 219.344 249.532 218.363 L 250.513 217.383 265.117 217.383 C 279.187 217.383,279.749 217.412,280.519 218.182 M323.549 218.436 C 324.297 219.578,324.550 224.593,323.965 226.687 C 323.485 228.404,322.393 228.571,311.662 228.571 L 301.698 228.571 301.698 233.966 L 301.698 239.361 311.060 239.361 L 320.422 239.361 321.250 240.414 C 322.706 242.265,322.334 249.165,320.719 250.244 C 320.478 250.405,316.099 250.540,310.989 250.543 L 301.698 250.549 301.698 256.743 L 301.698 262.937 312.226 262.937 C 324.325 262.937,323.865 262.797,324.313 266.614 C 324.659 269.552,324.210 272.394,323.248 273.355 C 322.331 274.272,293.490 274.566,290.960 273.684 C 288.876 272.957,288.911 273.446,288.911 245.563 L 288.911 219.344 289.892 218.363 L 290.873 217.383 306.866 217.383 L 322.859 217.383 323.549 218.436 M100.333 233.966 C 100.307 234.406,99.047 238.497,97.534 243.057 L 94.782 251.349 100.381 251.349 C 104.695 251.349,105.936 251.234,105.789 250.849 C 105.213 249.343,101.061 236.075,100.749 234.741 C 100.546 233.875,100.359 233.526,100.333 233.966 " stroke="none" fill="#a434dc" fill-rule="evenodd"></path><path id="path2" d="M174.001 146.354 L 172.827 147.652 174.126 146.479 C 174.840 145.833,175.425 145.249,175.425 145.180 C 175.425 144.871,175.095 145.143,174.001 146.354 M201.698 150.132 C 202.193 150.227,203.002 150.227,203.497 150.132 C 203.991 150.037,203.586 149.959,202.597 149.959 C 201.608 149.959,201.204 150.037,201.698 150.132 M174.810 160.340 L 172.827 162.438 174.925 160.455 C 176.079 159.364,177.023 158.420,177.023 158.357 C 177.023 158.059,176.653 158.390,174.810 160.340 M197.502 194.082 C 197.887 194.182,198.516 194.182,198.901 194.082 C 199.286 193.981,198.971 193.899,198.202 193.899 C 197.433 193.899,197.118 193.981,197.502 194.082 M258.242 217.682 C 262.143 217.747,268.526 217.747,272.428 217.682 C 276.329 217.616,273.137 217.563,265.335 217.563 C 257.532 217.563,254.341 217.616,258.242 217.682 M299.201 217.682 C 303.432 217.747,310.355 217.747,314.585 217.682 C 318.816 217.617,315.355 217.564,306.893 217.564 C 298.432 217.564,294.970 217.617,299.201 217.682 M164.419 236.963 C 164.419 246.743,164.471 250.744,164.535 245.854 C 164.599 240.964,164.599 232.962,164.535 228.072 C 164.471 223.182,164.419 227.183,164.419 236.963 M176.808 237.962 C 176.808 248.072,176.859 252.151,176.923 247.026 C 176.986 241.901,176.986 233.629,176.923 228.644 C 176.859 223.659,176.807 227.852,176.808 237.962 M199.995 241.359 L 200.000 263.137 208.891 263.149 L 217.783 263.160 208.995 263.041 L 200.207 262.922 200.098 241.251 L 199.989 219.580 199.995 241.359 M289.099 245.754 C 289.099 259.710,289.149 265.420,289.211 258.442 C 289.272 251.464,289.272 240.045,289.211 233.067 C 289.149 226.089,289.099 231.798,289.099 245.754 M306.194 250.448 C 308.776 250.518,313.002 250.518,315.584 250.448 C 318.167 250.379,316.054 250.322,310.889 250.322 C 305.724 250.322,303.611 250.379,306.194 250.448 M306.570 263.235 C 309.359 263.304,314.034 263.304,316.959 263.236 C 319.884 263.168,317.602 263.111,311.888 263.111 C 306.174 263.111,303.781 263.167,306.570 263.235 M80.630 274.019 C 81.570 274.104,83.008 274.103,83.827 274.017 C 84.645 273.931,83.876 273.862,82.118 273.863 C 80.360 273.865,79.690 273.935,80.630 274.019 M117.594 274.020 C 118.645 274.103,120.263 274.102,121.191 274.018 C 122.118 273.934,121.259 273.867,119.281 273.868 C 117.303 273.869,116.544 273.938,117.594 274.020 M253.657 274.019 C 254.597 274.104,256.035 274.103,256.854 274.017 C 257.672 273.931,256.903 273.862,255.145 273.863 C 253.387 273.865,252.717 273.935,253.657 274.019 " stroke="none" fill="#c47de6" fill-rule="evenodd"></path><path id="path3" d="M204.462 125.741 C 204.316 125.887,204.196 128.035,204.196 130.514 L 204.196 135.021 202.298 135.184 L 200.400 135.346 202.398 135.306 L 204.396 135.265 204.508 130.554 C 204.589 127.196,204.750 125.922,205.070 126.120 C 205.343 126.289,205.407 126.217,205.233 125.936 C 204.902 125.401,204.823 125.380,204.462 125.741 M199.101 150.126 C 199.486 150.226,200.115 150.226,200.500 150.126 C 200.884 150.025,200.569 149.943,199.800 149.943 C 199.031 149.943,198.716 150.025,199.101 150.126 M204.266 154.545 C 204.227 157.238,204.331 159.441,204.496 159.441 C 204.660 159.442,204.747 157.958,204.688 156.145 C 204.492 150.168,204.336 149.577,204.266 154.545 M234.705 160.639 C 234.705 162.507,234.774 163.272,234.858 162.338 C 234.942 161.404,234.942 159.875,234.858 158.941 C 234.774 158.007,234.705 158.771,234.705 160.639 M165.177 168.432 C 165.176 170.410,165.243 171.269,165.327 170.342 C 165.411 169.414,165.412 167.796,165.329 166.745 C 165.247 165.695,165.178 166.454,165.177 168.432 M223.551 170.330 L 222.378 171.628 223.676 170.455 C 224.391 169.809,224.975 169.225,224.975 169.156 C 224.975 168.847,224.645 169.119,223.551 170.330 M195.491 174.525 L 195.405 179.421 197.902 179.345 L 200.400 179.269 198.114 179.126 L 195.829 178.982 195.703 174.306 L 195.576 169.630 195.491 174.525 M231.247 174.431 C 230.881 175.197,230.665 175.824,230.765 175.824 C 231.039 175.824,232.252 173.377,232.069 173.195 C 231.982 173.108,231.612 173.664,231.247 174.431 M225.375 182.817 C 224.404 183.806,223.700 184.615,223.810 184.615 C 223.920 184.615,224.804 183.806,225.774 182.817 C 226.745 181.828,227.449 181.019,227.339 181.019 C 227.229 181.019,226.345 181.828,225.375 182.817 M199.900 193.682 C 200.285 193.783,200.914 193.783,201.299 193.682 C 201.683 193.582,201.369 193.499,200.599 193.499 C 199.830 193.499,199.515 193.582,199.900 193.682 M195.671 194.073 C 195.524 194.219,195.405 196.405,195.405 198.930 L 195.405 203.520 194.505 202.759 L 193.606 201.998 194.359 202.888 C 195.563 204.311,195.804 203.631,195.804 198.807 C 195.804 194.817,195.889 194.242,196.503 194.082 C 197.064 193.935,197.077 193.890,196.570 193.853 C 196.222 193.827,195.818 193.926,195.671 194.073 M98.615 217.678 C 99.776 217.759,101.574 217.758,102.611 217.676 C 103.647 217.594,102.697 217.528,100.500 217.529 C 98.302 217.530,97.454 217.597,98.615 217.678 M134.976 217.676 C 135.915 217.760,137.354 217.759,138.172 217.673 C 138.991 217.587,138.222 217.518,136.464 217.520 C 134.705 217.521,134.036 217.591,134.976 217.676 M168.931 217.675 C 169.865 217.759,171.394 217.759,172.328 217.675 C 173.262 217.591,172.498 217.522,170.629 217.522 C 168.761 217.522,167.997 217.591,168.931 217.675 M192.118 217.676 C 193.058 217.760,194.497 217.759,195.315 217.673 C 196.134 217.587,195.365 217.518,193.606 217.520 C 191.848 217.521,191.179 217.591,192.118 217.676 M230.282 217.677 C 231.332 217.759,232.951 217.758,233.878 217.675 C 234.806 217.591,233.946 217.523,231.968 217.524 C 229.990 217.526,229.231 217.594,230.282 217.677 M236.874 218.404 L 237.762 219.026 237.762 245.697 C 237.762 266.468,237.652 272.492,237.263 272.928 C 236.838 273.404,236.868 273.409,237.463 272.959 C 238.571 272.120,238.541 219.448,237.431 218.444 C 237.029 218.080,236.540 217.782,236.343 217.782 C 236.147 217.782,236.386 218.062,236.874 218.404 M130.714 218.727 C 130.388 219.120,130.292 224.709,130.370 238.807 L 130.477 258.342 130.573 238.741 C 130.645 224.139,130.792 219.019,131.149 218.661 C 131.413 218.398,131.525 218.182,131.398 218.182 C 131.271 218.182,130.963 218.427,130.714 218.727 M142.442 237.363 C 142.442 247.363,142.494 251.454,142.557 246.454 C 142.620 241.454,142.620 233.272,142.557 228.272 C 142.494 223.272,142.442 227.363,142.442 237.363 M187.601 245.355 C 187.601 259.750,187.651 265.639,187.712 258.442 C 187.773 251.244,187.773 239.466,187.712 232.268 C 187.651 225.070,187.601 230.959,187.601 245.355 M225.963 245.754 C 225.963 260.370,226.013 266.349,226.074 259.041 C 226.135 251.733,226.135 239.775,226.074 232.468 C 226.013 225.160,225.963 231.139,225.963 245.754 M281.059 222.977 C 281.059 224.845,281.128 225.609,281.212 224.675 C 281.296 223.741,281.296 222.213,281.212 221.279 C 281.128 220.345,281.059 221.109,281.059 222.977 M261.115 228.291 C 261.005 228.576,260.966 231.319,261.027 234.385 L 261.139 239.960 270.130 239.972 L 279.121 239.984 270.230 239.864 L 261.339 239.745 261.339 233.966 L 261.339 228.187 270.629 228.072 L 279.920 227.957 270.617 227.864 C 263.292 227.792,261.271 227.883,261.115 228.291 M301.474 228.291 C 301.365 228.576,301.325 231.319,301.387 234.385 L 301.499 239.960 310.889 239.971 L 320.280 239.982 310.989 239.864 L 301.698 239.746 301.698 233.965 L 301.698 228.185 312.188 228.072 L 322.677 227.958 312.175 227.865 C 303.867 227.792,301.632 227.881,301.474 228.291 M321.809 245.155 C 321.811 246.693,321.883 247.274,321.970 246.445 C 322.056 245.616,322.055 244.357,321.967 243.647 C 321.878 242.938,321.808 243.616,321.809 245.155 M280.639 244.955 C 280.639 246.164,280.714 246.658,280.806 246.054 C 280.897 245.450,280.897 244.461,280.806 243.856 C 280.714 243.252,280.639 243.746,280.639 244.955 M261.131 250.649 C 260.814 251.517,260.725 272.461,261.039 272.266 C 261.204 272.164,261.339 267.240,261.339 261.323 L 261.339 250.565 270.030 250.449 L 278.721 250.333 270.017 250.242 C 263.350 250.171,261.271 250.267,261.131 250.649 M301.462 256.743 C 301.462 260.480,301.522 262.062,301.596 260.259 C 301.670 258.457,301.670 255.400,301.597 253.466 C 301.523 251.532,301.463 253.007,301.462 256.743 M97.203 252.045 C 98.906 252.120,101.693 252.120,103.397 252.045 C 105.100 251.970,103.706 251.909,100.300 251.909 C 96.893 251.909,95.500 251.970,97.203 252.045 M95.405 262.436 C 98.097 262.505,102.502 262.505,105.195 262.436 C 107.887 262.367,105.684 262.311,100.300 262.311 C 94.915 262.311,92.712 262.367,95.405 262.436 M152.348 264.022 C 152.952 264.114,153.941 264.114,154.545 264.022 C 155.150 263.931,154.655 263.856,153.447 263.856 C 152.238 263.856,151.743 263.931,152.348 264.022 M219.920 268.531 C 219.920 270.400,219.989 271.164,220.073 270.230 C 220.157 269.296,220.157 267.767,220.073 266.833 C 219.989 265.899,219.920 266.663,219.920 268.531 M76.500 273.097 C 76.927 273.443,77.646 273.711,78.098 273.692 C 78.759 273.664,78.710 273.594,77.853 273.335 C 77.266 273.158,76.547 272.890,76.255 272.741 C 75.963 272.591,76.073 272.751,76.500 273.097 M113.663 273.105 C 114.089 273.447,114.719 273.712,115.061 273.695 C 115.599 273.667,115.603 273.633,115.085 273.441 C 114.755 273.319,114.126 273.053,113.686 272.851 C 112.900 272.489,112.900 272.493,113.663 273.105 M323.042 272.922 C 322.798 273.166,316.513 273.359,306.678 273.427 L 290.709 273.536 306.744 273.631 C 320.590 273.713,322.847 273.644,323.277 273.127 C 323.831 272.459,323.657 272.307,323.042 272.922 M188.956 273.432 C 189.123 273.599,195.903 273.689,204.021 273.631 L 218.781 273.526 203.716 273.326 C 195.430 273.217,188.788 273.264,188.956 273.432 M230.669 274.017 C 231.494 274.104,232.842 274.104,233.666 274.017 C 234.491 273.931,233.816 273.861,232.168 273.861 C 230.519 273.861,229.845 273.931,230.669 274.017 M151.960 274.420 C 153.011 274.503,154.629 274.502,155.557 274.418 C 156.484 274.334,155.624 274.266,153.646 274.268 C 151.668 274.269,150.910 274.338,151.960 274.420 " stroke="none" fill="#dcb0f1" fill-rule="evenodd"></path><path id="path4" d="M235.089 160.440 C 235.091 161.758,235.166 162.250,235.255 161.531 C 235.344 160.813,235.342 159.734,235.251 159.134 C 235.159 158.533,235.087 159.121,235.089 160.440 M164.759 168.432 C 164.761 169.750,164.836 170.242,164.925 169.523 C 165.014 168.805,165.012 167.726,164.921 167.126 C 164.830 166.525,164.757 167.113,164.759 168.432 M225.375 183.217 C 224.404 184.206,223.700 185.015,223.810 185.015 C 223.920 185.015,224.804 184.206,225.774 183.217 C 226.745 182.228,227.449 181.419,227.339 181.419 C 227.229 181.419,226.345 182.228,225.375 183.217 M98.992 217.271 C 99.701 217.360,100.960 217.361,101.789 217.275 C 102.618 217.188,102.038 217.116,100.500 217.114 C 98.961 217.112,98.283 217.183,98.992 217.271 M135.564 217.269 C 136.169 217.361,137.158 217.361,137.762 217.269 C 138.367 217.178,137.872 217.103,136.663 217.103 C 135.455 217.103,134.960 217.178,135.564 217.269 M169.530 217.269 C 170.135 217.361,171.124 217.361,171.728 217.269 C 172.333 217.178,171.838 217.103,170.629 217.103 C 169.421 217.103,168.926 217.178,169.530 217.269 M192.707 217.269 C 193.312 217.361,194.301 217.361,194.905 217.269 C 195.509 217.178,195.015 217.103,193.806 217.103 C 192.597 217.103,192.103 217.178,192.707 217.269 M230.669 217.274 C 231.494 217.360,232.842 217.360,233.666 217.274 C 234.491 217.188,233.816 217.117,232.168 217.117 C 230.519 217.117,229.845 217.188,230.669 217.274 M225.563 245.754 C 225.563 260.370,225.613 266.349,225.674 259.041 C 225.735 251.733,225.735 239.775,225.674 232.468 C 225.613 225.160,225.563 231.139,225.563 245.754 M238.350 245.754 C 238.350 260.370,238.400 266.349,238.461 259.041 C 238.522 251.733,238.522 239.775,238.461 232.468 C 238.400 225.160,238.350 231.139,238.350 245.754 M248.740 245.754 C 248.740 260.370,248.790 266.349,248.851 259.041 C 248.912 251.733,248.912 239.775,248.851 232.468 C 248.790 225.160,248.740 231.139,248.740 245.754 M130.054 237.962 C 130.054 248.072,130.106 252.151,130.170 247.026 C 130.233 241.901,130.233 233.629,130.169 228.644 C 130.106 223.659,130.054 227.852,130.054 237.962 M142.841 237.762 C 142.841 247.762,142.893 251.853,142.957 246.853 C 143.020 241.853,143.020 233.671,142.957 228.671 C 142.893 223.671,142.841 227.762,142.841 237.762 M324.196 222.977 C 324.196 224.186,324.271 224.680,324.362 224.076 C 324.454 223.472,324.454 222.483,324.362 221.878 C 324.271 221.274,324.196 221.768,324.196 222.977 M265.857 228.470 C 268.452 228.540,272.587 228.540,275.048 228.470 C 277.508 228.400,275.385 228.343,270.330 228.343 C 265.275 228.343,263.262 228.401,265.857 228.470 M306.570 228.470 C 309.359 228.539,314.034 228.539,316.959 228.471 C 319.884 228.402,317.602 228.346,311.888 228.346 C 306.174 228.346,303.781 228.402,306.570 228.470 M265.412 239.659 C 267.763 239.729,271.719 239.729,274.204 239.659 C 276.688 239.589,274.765 239.531,269.930 239.531 C 265.095 239.531,263.062 239.588,265.412 239.659 M306.417 239.659 C 309.121 239.729,313.437 239.728,316.007 239.659 C 318.577 239.589,316.364 239.533,311.089 239.533 C 305.814 239.533,303.712 239.590,306.417 239.659 M97.403 251.645 C 98.996 251.721,101.603 251.721,103.197 251.645 C 104.790 251.570,103.487 251.507,100.300 251.507 C 97.113 251.507,95.809 251.570,97.403 251.645 M152.148 263.626 C 152.862 263.714,154.031 263.714,154.745 263.626 C 155.460 263.537,154.875 263.465,153.447 263.465 C 152.018 263.465,151.434 263.537,152.148 263.626 M324.204 268.531 C 324.204 269.960,324.276 270.544,324.365 269.830 C 324.454 269.116,324.454 267.947,324.365 267.233 C 324.276 266.518,324.204 267.103,324.204 268.531 M220.300 268.531 C 220.300 269.740,220.374 270.235,220.466 269.630 C 220.558 269.026,220.558 268.037,220.466 267.433 C 220.374 266.828,220.300 267.323,220.300 268.531 M196.929 274.025 C 200.954 274.091,207.428 274.091,211.315 274.025 C 215.201 273.960,211.908 273.907,203.996 273.907 C 196.084 273.907,192.904 273.960,196.929 274.025 M299.174 274.025 C 303.391 274.090,310.404 274.090,314.759 274.026 C 319.114 273.961,315.664 273.908,307.093 273.908 C 298.521 273.908,294.958 273.961,299.174 274.025 " stroke="none" fill="#bc64e4" fill-rule="evenodd"></path></g></svg>