<svg id="svg" version="1.1" xmlns="http://www.w3.org/2000/svg" xmlns:xlink="http://www.w3.org/1999/xlink" width="400" height="400" viewBox="0, 0, 400,400"><g id="svgg"><path id="path0" d="M212.880 122.480 C 212.545 122.815,212.400 124.970,212.400 129.605 L 212.400 136.250 211.300 137.276 C 209.554 138.904,208.650 139.200,205.414 139.200 C 203.410 139.200,201.547 139.479,199.946 140.018 C 198.336 140.561,195.541 140.977,191.658 141.252 C 186.551 141.613,185.621 141.788,184.400 142.616 C 183.578 143.174,181.597 143.841,179.600 144.234 C 177.458 144.654,175.576 145.306,174.514 145.996 C 173.587 146.598,171.741 147.304,170.411 147.566 C 168.798 147.883,167.695 148.362,167.097 149.005 C 166.604 149.535,165.426 150.241,164.480 150.574 C 163.534 150.906,162.229 151.709,161.581 152.357 C 160.933 153.006,159.852 153.657,159.180 153.804 C 157.918 154.082,156.924 154.844,153.577 158.100 C 152.503 159.145,151.465 160.000,151.270 160.000 C 150.686 160.000,144.767 166.104,144.100 167.394 C 143.760 168.052,142.968 169.069,142.341 169.655 C 141.713 170.242,141.200 170.975,141.200 171.286 C 141.200 171.596,140.658 172.370,139.995 173.004 C 139.316 173.655,138.499 175.085,138.121 176.284 C 137.753 177.453,137.122 178.762,136.720 179.194 C 135.863 180.113,135.337 181.398,134.770 183.953 C 134.544 184.969,133.928 186.430,133.400 187.200 C 132.842 188.013,132.264 189.689,132.020 191.200 C 131.609 193.741,131.095 195.585,129.795 199.174 C 128.662 202.304,128.612 215.146,129.729 216.263 C 130.680 217.213,132.997 214.833,133.650 212.236 C 134.032 210.716,134.714 208.971,135.167 208.359 C 135.619 207.747,136.425 206.261,136.958 205.057 C 137.490 203.853,138.303 202.666,138.763 202.420 C 139.223 202.173,139.600 201.701,139.600 201.370 C 139.600 200.525,141.085 197.708,141.734 197.321 C 142.031 197.145,142.617 196.464,143.037 195.808 C 144.162 194.051,151.147 187.275,153.973 185.200 C 155.321 184.210,157.004 182.926,157.712 182.347 C 158.421 181.768,159.691 181.005,160.536 180.652 C 161.380 180.300,162.593 179.572,163.231 179.035 C 163.869 178.499,165.359 177.778,166.543 177.434 C 167.727 177.090,168.929 176.526,169.215 176.182 C 170.060 175.163,171.046 174.790,174.480 174.186 C 176.444 173.841,178.064 173.315,178.567 172.859 C 179.585 171.937,180.291 171.769,185.516 171.203 C 187.779 170.957,191.019 170.295,192.716 169.732 C 196.638 168.430,206.183 167.649,209.130 168.390 C 212.422 169.217,212.400 169.158,212.400 177.236 C 212.400 186.048,213.237 188.610,215.000 185.200 C 215.341 184.540,215.801 184.000,216.021 184.000 C 216.462 184.000,218.299 182.420,221.253 179.500 C 222.310 178.455,223.328 177.600,223.516 177.600 C 223.703 177.600,224.473 177.043,225.228 176.362 C 225.983 175.680,227.365 174.592,228.300 173.942 C 229.235 173.293,230.000 172.580,230.000 172.358 C 230.000 172.136,230.799 171.602,231.776 171.170 C 232.752 170.738,233.658 170.047,233.789 169.635 C 233.920 169.223,234.565 168.663,235.224 168.390 C 235.882 168.117,236.790 167.375,237.242 166.741 C 237.694 166.107,238.557 165.332,239.161 165.020 C 239.765 164.708,240.863 163.889,241.600 163.200 C 242.337 162.511,243.422 161.699,244.011 161.394 C 244.599 161.090,245.372 160.398,245.726 159.856 C 246.081 159.315,246.989 158.668,247.744 158.419 C 248.522 158.162,249.204 157.628,249.319 157.186 C 249.432 156.758,250.092 156.090,250.788 155.703 C 252.285 154.870,252.287 152.671,250.791 151.600 C 250.330 151.270,248.946 150.145,247.714 149.100 C 246.483 148.055,245.330 147.200,245.153 147.200 C 244.857 147.200,243.233 145.775,240.200 142.853 C 239.540 142.217,238.420 141.403,237.712 141.044 C 237.003 140.685,236.239 140.046,236.012 139.623 C 235.786 139.200,235.244 138.741,234.809 138.603 C 234.373 138.464,233.704 137.822,233.322 137.175 C 232.940 136.528,232.328 135.904,231.963 135.788 C 231.258 135.565,227.419 132.473,225.384 130.492 C 224.716 129.841,223.617 129.023,222.944 128.674 C 222.270 128.326,221.418 127.582,221.050 127.020 C 220.682 126.459,220.092 126.000,219.738 126.000 C 219.384 126.000,218.533 125.414,217.847 124.698 C 215.522 122.270,213.841 121.519,212.880 122.480 M271.509 184.290 C 270.269 184.799,269.977 185.146,269.777 186.351 C 269.385 188.726,268.446 191.297,267.652 192.176 C 267.242 192.629,266.582 193.871,266.186 194.935 C 265.789 196.000,265.073 197.127,264.594 197.441 C 264.115 197.755,263.519 198.692,263.270 199.523 C 263.021 200.355,262.183 201.747,261.409 202.618 C 260.634 203.488,260.000 204.330,260.000 204.490 C 260.000 205.164,248.742 215.926,247.529 216.412 C 246.798 216.705,245.609 217.453,244.886 218.073 C 244.163 218.693,243.235 219.200,242.824 219.200 C 242.412 219.200,241.321 219.831,240.398 220.602 C 239.384 221.449,238.092 222.104,237.131 222.257 C 236.194 222.407,234.889 223.057,233.950 223.842 C 233.071 224.576,231.696 225.279,230.879 225.412 C 226.952 226.050,225.481 226.464,224.457 227.221 C 223.756 227.739,222.243 228.190,220.372 228.437 C 218.737 228.653,216.064 229.006,214.432 229.222 C 212.799 229.439,211.269 229.776,211.032 229.972 C 208.956 231.686,194.130 232.450,192.113 230.946 L 191.000 230.116 190.800 222.243 C 190.637 215.834,190.488 214.299,190.000 213.991 C 189.085 213.414,188.869 213.505,188.229 214.744 C 187.904 215.373,187.102 216.109,186.448 216.380 C 185.793 216.651,185.163 217.119,185.048 217.420 C 184.933 217.720,184.124 218.417,183.251 218.968 C 182.378 219.519,181.546 220.339,181.403 220.789 C 181.260 221.240,180.571 221.903,179.872 222.263 C 179.172 222.622,177.726 223.700,176.657 224.658 C 175.588 225.616,174.484 226.400,174.203 226.400 C 173.922 226.400,173.388 226.864,173.016 227.432 C 172.644 228.000,171.858 228.675,171.270 228.932 C 170.269 229.370,169.570 229.943,166.294 233.012 C 165.582 233.679,164.325 234.639,163.500 235.145 C 162.675 235.651,162.000 236.206,162.000 236.378 C 162.000 236.550,161.241 237.211,160.314 237.846 C 159.387 238.481,157.562 240.044,156.259 241.320 C 154.956 242.596,153.212 243.986,152.384 244.408 C 150.742 245.246,150.728 248.069,152.364 248.589 C 152.734 248.706,154.101 249.701,155.400 250.800 C 156.699 251.899,158.077 252.897,158.461 253.019 C 158.845 253.141,159.271 253.595,159.409 254.027 C 159.546 254.460,160.359 255.171,161.216 255.608 C 162.072 256.045,162.965 256.761,163.200 257.200 C 163.435 257.639,164.341 258.362,165.213 258.807 C 166.086 259.252,166.800 259.790,166.800 260.003 C 166.800 260.216,167.565 260.868,168.500 261.453 C 170.436 262.663,172.371 264.205,175.209 266.800 C 176.292 267.790,177.825 269.140,178.615 269.800 C 179.405 270.460,180.843 271.765,181.811 272.700 C 182.778 273.635,183.845 274.400,184.182 274.400 C 184.518 274.400,185.020 274.773,185.297 275.230 C 185.573 275.686,186.569 276.582,187.508 277.221 C 190.427 279.208,190.800 278.411,190.800 270.181 L 190.800 263.562 191.900 262.537 C 193.295 261.237,194.439 260.800,196.452 260.800 C 197.332 260.800,198.446 260.588,198.926 260.329 C 199.846 259.833,202.117 259.557,211.600 258.788 C 216.559 258.385,217.603 258.181,218.800 257.376 C 219.615 256.827,221.620 256.157,223.600 255.772 C 225.611 255.380,227.584 254.717,228.430 254.149 C 229.217 253.620,231.072 252.852,232.554 252.441 C 234.036 252.030,235.650 251.316,236.141 250.855 C 236.633 250.394,237.657 249.803,238.417 249.542 C 239.178 249.281,240.510 248.465,241.379 247.728 C 242.247 246.991,243.639 246.205,244.472 245.981 C 245.305 245.756,246.172 245.226,246.399 244.803 C 246.625 244.379,247.420 243.744,248.164 243.390 C 249.787 242.620,259.200 233.130,259.200 232.263 C 259.200 231.928,259.740 231.270,260.400 230.800 C 261.060 230.330,261.600 229.688,261.600 229.374 C 261.600 229.060,262.204 228.127,262.942 227.301 C 263.681 226.476,264.685 224.720,265.173 223.400 C 265.661 222.080,266.340 220.691,266.681 220.313 C 267.021 219.935,267.635 218.419,268.044 216.943 C 268.453 215.468,269.228 213.617,269.765 212.830 C 270.302 212.044,270.857 210.500,270.998 209.400 C 271.290 207.119,272.707 202.008,273.221 201.381 C 274.277 200.090,274.620 189.202,273.743 184.815 C 273.469 183.445,273.532 183.459,271.509 184.290 " stroke="none" fill="#faf9fb" fill-rule="evenodd"></path><path id="path1" d="M210.560 118.309 C 209.401 119.075,209.200 120.544,209.200 128.230 C 209.200 137.792,209.611 137.169,203.290 137.187 C 199.704 137.197,198.311 137.374,196.490 138.048 C 193.230 139.256,189.752 139.982,187.184 139.992 C 184.600 140.001,180.503 140.983,179.587 141.812 C 179.237 142.129,177.532 142.742,175.799 143.175 C 174.065 143.609,172.182 144.307,171.613 144.727 C 171.045 145.147,169.531 145.796,168.250 146.168 C 166.968 146.541,165.533 147.251,165.060 147.745 C 164.587 148.240,163.347 148.964,162.304 149.354 C 161.262 149.744,160.061 150.505,159.636 151.045 C 159.211 151.585,158.066 152.299,157.092 152.631 C 155.919 153.030,154.522 154.047,152.960 155.639 C 151.662 156.961,150.095 158.313,149.479 158.643 C 147.282 159.818,142.721 164.923,140.166 169.066 C 139.708 169.809,138.887 170.909,138.342 171.509 C 137.797 172.109,137.125 173.140,136.848 173.800 C 136.572 174.460,135.920 175.630,135.401 176.400 C 134.881 177.170,134.161 178.953,133.801 180.362 C 133.441 181.771,132.703 183.505,132.161 184.215 C 131.465 185.128,131.013 186.517,130.617 188.961 C 130.205 191.511,129.798 192.725,129.064 193.597 C 126.463 196.687,126.889 220.800,129.544 220.800 C 132.023 220.800,134.800 217.961,134.800 215.427 C 134.800 214.221,135.767 211.721,136.585 210.815 C 136.890 210.477,137.529 209.157,138.005 207.883 C 138.481 206.608,139.317 205.083,139.863 204.494 C 140.409 203.905,140.952 202.941,141.070 202.350 C 141.188 201.760,141.886 200.640,142.621 199.861 C 143.355 199.082,144.225 197.939,144.554 197.322 C 145.349 195.826,152.723 188.667,154.316 187.843 C 155.009 187.485,155.767 186.835,156.000 186.400 C 156.233 185.965,157.003 185.316,157.712 184.958 C 158.420 184.601,159.450 183.901,160.000 183.403 C 160.550 182.904,161.720 182.266,162.599 181.985 C 163.478 181.703,164.690 180.946,165.292 180.302 C 166.032 179.510,167.100 178.965,168.597 178.617 C 169.813 178.334,171.481 177.645,172.304 177.085 C 173.284 176.418,174.802 175.916,176.709 175.628 C 178.309 175.387,180.379 174.906,181.309 174.558 C 184.704 173.289,187.090 172.766,191.345 172.360 C 193.735 172.132,196.165 171.757,196.745 171.527 C 199.203 170.551,207.870 169.711,208.544 170.383 C 208.842 170.681,209.069 173.711,209.200 179.138 C 209.367 186.073,209.513 187.609,210.086 188.483 L 210.771 189.528 212.270 188.764 C 213.095 188.344,214.075 188.000,214.449 188.000 C 214.823 188.000,215.567 187.479,216.103 186.842 C 216.639 186.205,217.600 185.413,218.239 185.083 C 218.878 184.752,220.480 183.421,221.800 182.124 C 223.120 180.827,224.830 179.335,225.600 178.809 C 227.095 177.788,228.959 176.178,230.999 174.147 C 231.691 173.458,232.818 172.604,233.504 172.249 C 234.190 171.895,234.987 171.270,235.276 170.862 C 235.564 170.453,236.353 169.834,237.029 169.486 C 237.705 169.138,238.513 168.546,238.823 168.172 C 239.134 167.798,240.111 167.039,240.994 166.487 C 242.596 165.485,243.990 164.289,246.744 161.553 C 247.545 160.757,248.600 159.982,249.090 159.829 C 249.579 159.677,250.349 159.034,250.800 158.400 C 251.251 157.766,251.977 157.134,252.412 156.996 C 254.394 156.367,254.499 151.351,252.553 150.200 C 252.181 149.980,251.003 149.039,249.934 148.108 C 248.866 147.177,247.498 146.160,246.896 145.846 C 246.293 145.533,245.385 144.796,244.878 144.210 C 244.371 143.623,243.426 142.958,242.778 142.732 C 242.130 142.507,241.600 142.101,241.600 141.831 C 241.600 141.240,239.924 139.600,239.320 139.600 C 239.085 139.600,238.615 139.178,238.277 138.661 C 237.939 138.145,237.132 137.503,236.484 137.235 C 235.837 136.967,235.064 136.294,234.768 135.739 C 234.471 135.185,233.772 134.495,233.214 134.206 C 232.656 133.917,231.708 133.128,231.108 132.452 C 230.507 131.777,229.298 130.858,228.421 130.411 C 227.544 129.963,226.626 129.223,226.381 128.765 C 226.136 128.307,225.346 127.686,224.626 127.385 C 223.906 127.084,223.025 126.393,222.669 125.849 C 222.313 125.306,221.612 124.738,221.111 124.588 C 220.610 124.438,219.480 123.613,218.600 122.755 C 217.720 121.896,216.460 120.669,215.800 120.027 C 215.140 119.385,214.060 118.740,213.400 118.593 C 212.740 118.446,211.930 118.256,211.600 118.172 C 211.270 118.087,210.802 118.149,210.560 118.309 M215.323 120.897 C 216.246 121.611,217.752 122.826,218.670 123.597 C 219.589 124.369,221.275 125.720,222.416 126.600 C 223.558 127.480,224.860 128.560,225.310 129.000 C 225.760 129.440,226.987 130.430,228.038 131.200 C 232.372 134.376,234.000 135.694,234.000 136.025 C 234.000 136.217,234.986 137.103,236.190 137.993 C 237.395 138.883,239.220 140.427,240.246 141.424 C 241.272 142.421,242.627 143.503,243.256 143.829 C 243.885 144.154,244.400 144.598,244.400 144.815 C 244.400 145.032,245.353 145.819,246.517 146.564 C 247.682 147.309,248.894 148.232,249.211 148.614 C 249.529 148.996,250.431 149.715,251.217 150.211 C 252.355 150.929,252.733 151.497,253.079 153.008 L 253.513 154.904 251.318 156.952 C 250.110 158.078,248.825 159.165,248.461 159.366 C 248.098 159.568,246.540 160.841,245.000 162.194 C 243.460 163.548,241.570 165.081,240.800 165.602 C 240.030 166.122,238.733 167.099,237.917 167.774 C 237.101 168.448,235.605 169.630,234.592 170.400 C 233.580 171.170,231.997 172.470,231.076 173.288 C 227.973 176.043,225.563 177.992,224.679 178.460 C 224.195 178.717,222.820 179.903,221.622 181.098 C 220.424 182.292,218.714 183.784,217.822 184.414 C 216.930 185.044,215.776 186.019,215.258 186.580 C 214.126 187.806,211.063 188.063,210.643 186.967 C 210.509 186.619,210.400 183.222,210.400 179.417 C 210.400 171.000,210.270 170.209,208.787 169.595 C 207.213 168.943,199.200 169.486,196.600 170.421 C 195.500 170.817,191.927 171.520,188.661 171.983 C 185.093 172.489,181.791 173.203,180.391 173.772 C 179.109 174.293,177.282 174.840,176.330 174.988 C 173.823 175.376,171.952 176.004,170.714 176.873 C 170.116 177.292,168.730 177.902,167.633 178.227 C 166.536 178.553,165.113 179.262,164.471 179.802 C 163.829 180.342,162.515 181.141,161.552 181.577 C 160.588 182.014,158.810 183.187,157.600 184.185 C 156.390 185.184,154.500 186.612,153.400 187.359 C 149.576 189.955,142.462 197.958,140.422 201.956 C 140.002 202.780,139.393 203.674,139.069 203.942 C 138.745 204.211,138.068 205.459,137.564 206.716 C 137.060 207.972,136.332 209.450,135.947 210.000 C 135.562 210.550,134.954 212.080,134.597 213.400 C 133.492 217.483,133.246 217.895,131.500 218.593 C 128.613 219.748,128.081 218.153,128.029 208.190 C 127.991 200.925,128.564 196.355,129.778 194.236 C 130.294 193.336,130.928 191.340,131.187 189.800 C 131.449 188.238,132.153 186.116,132.778 185.000 C 133.395 183.900,134.022 182.460,134.173 181.800 C 134.547 180.158,138.244 172.628,138.973 172.022 C 139.298 171.753,140.030 170.737,140.599 169.766 C 141.168 168.795,141.802 168.000,142.009 168.000 C 142.215 168.000,142.741 167.300,143.177 166.445 C 143.952 164.926,149.376 159.200,150.039 159.200 C 150.223 159.200,151.684 158.008,153.287 156.550 C 154.889 155.093,156.941 153.565,157.847 153.155 C 158.753 152.745,159.737 152.117,160.033 151.760 C 160.330 151.403,161.649 150.589,162.964 149.952 C 164.279 149.315,165.726 148.451,166.178 148.032 C 166.630 147.614,167.810 147.061,168.800 146.803 C 169.790 146.545,171.327 145.914,172.215 145.400 C 173.103 144.886,174.970 144.170,176.364 143.809 C 177.758 143.448,180.224 142.626,181.844 141.982 C 184.043 141.109,185.977 140.702,189.474 140.376 C 192.235 140.119,195.378 139.542,197.130 138.970 C 199.454 138.212,200.957 138.000,204.020 138.000 C 207.652 138.000,208.029 137.924,209.169 136.964 L 210.400 135.929 210.400 128.031 C 210.400 123.687,210.520 120.013,210.667 119.867 C 211.388 119.146,213.730 119.664,215.323 120.897 M271.330 180.001 C 269.353 180.878,269.040 181.386,268.198 185.089 C 267.846 186.636,267.114 188.504,266.571 189.240 C 266.027 189.976,265.402 191.250,265.181 192.071 C 264.960 192.892,264.337 194.089,263.797 194.730 C 263.258 195.372,262.444 196.764,261.990 197.823 C 261.536 198.883,260.811 199.997,260.380 200.299 C 259.948 200.601,259.310 201.401,258.960 202.077 C 257.913 204.101,247.559 214.239,245.779 214.983 C 244.911 215.346,243.750 216.061,243.200 216.573 C 242.650 217.085,241.534 217.716,240.720 217.976 C 239.905 218.236,238.580 218.897,237.774 219.444 C 236.968 219.991,235.406 220.781,234.303 221.200 C 233.200 221.619,231.646 222.405,230.849 222.947 C 229.913 223.584,228.357 224.090,226.454 224.377 C 224.833 224.622,222.493 225.186,221.254 225.630 C 217.780 226.877,216.529 227.144,212.000 227.605 C 209.690 227.841,207.170 228.233,206.400 228.478 C 205.630 228.722,203.290 229.059,201.200 229.226 C 199.110 229.394,196.818 229.656,196.107 229.810 C 194.248 230.211,194.000 229.208,193.998 221.274 C 193.995 212.630,193.300 209.807,191.463 210.982 C 190.988 211.286,189.827 211.739,188.882 211.988 C 187.723 212.293,187.023 212.750,186.730 213.393 C 186.492 213.917,185.814 214.546,185.225 214.789 C 184.636 215.033,182.745 216.576,181.022 218.217 C 179.300 219.857,177.745 221.200,177.568 221.200 C 177.391 221.200,176.218 222.100,174.961 223.200 C 173.704 224.300,172.536 225.200,172.365 225.200 C 172.194 225.200,171.934 225.576,171.788 226.037 C 171.642 226.497,170.954 227.111,170.259 227.401 C 169.564 227.691,168.500 228.485,167.895 229.165 C 167.289 229.844,166.559 230.400,166.272 230.400 C 165.985 230.400,165.227 230.946,164.587 231.613 C 163.948 232.281,162.699 233.259,161.812 233.787 C 160.926 234.316,159.700 235.289,159.088 235.951 C 158.476 236.612,157.666 237.254,157.288 237.376 C 156.910 237.498,156.292 238.140,155.917 238.803 C 155.541 239.465,154.821 240.165,154.317 240.358 C 153.812 240.550,153.040 241.107,152.601 241.595 C 152.161 242.083,151.312 242.735,150.713 243.045 C 148.351 244.266,148.607 248.858,151.110 250.154 C 151.709 250.465,152.692 251.272,153.292 251.948 C 153.893 252.623,155.102 253.542,155.979 253.989 C 156.856 254.437,157.745 255.124,157.956 255.517 C 158.166 255.910,158.847 256.492,159.469 256.811 C 160.091 257.130,161.343 258.113,162.252 258.995 C 165.036 261.700,165.752 262.287,167.088 262.960 C 167.797 263.316,168.558 263.947,168.779 264.361 C 169.001 264.775,169.975 265.578,170.943 266.146 C 171.912 266.714,173.990 268.443,175.561 269.989 C 177.132 271.535,178.671 272.800,178.981 272.800 C 179.292 272.800,179.922 273.329,180.383 273.976 C 180.844 274.623,181.621 275.277,182.110 275.429 C 182.600 275.582,183.720 276.407,184.600 277.265 C 185.480 278.122,186.740 279.341,187.400 279.975 C 189.211 281.714,191.868 282.309,192.958 281.221 C 193.752 280.428,193.807 279.900,193.922 271.992 C 194.067 262.061,193.373 263.011,200.775 262.622 C 204.709 262.415,206.533 262.147,207.575 261.621 C 209.224 260.790,213.414 260.000,216.175 260.000 C 218.378 260.000,222.720 258.966,223.600 258.232 C 224.422 257.547,226.270 256.899,228.279 256.593 C 229.203 256.452,230.733 255.833,231.679 255.217 C 232.626 254.601,234.079 253.977,234.909 253.829 C 235.738 253.681,236.998 253.063,237.709 252.455 C 238.419 251.846,239.862 251.028,240.917 250.635 C 241.971 250.242,243.116 249.490,243.461 248.963 C 243.806 248.437,244.794 247.794,245.657 247.536 C 246.519 247.277,247.624 246.680,248.113 246.207 C 248.601 245.735,249.682 244.936,250.515 244.432 C 252.614 243.163,259.499 236.167,260.414 234.373 C 260.827 233.562,261.434 232.796,261.762 232.670 C 262.090 232.544,262.658 231.847,263.025 231.121 C 263.391 230.394,264.111 229.350,264.624 228.800 C 265.138 228.250,265.854 227.091,266.215 226.225 C 266.577 225.359,267.291 224.099,267.803 223.425 C 268.314 222.751,269.023 221.076,269.377 219.703 C 269.731 218.329,270.440 216.587,270.954 215.830 C 271.513 215.006,272.133 213.114,272.501 211.107 C 272.891 208.987,273.485 207.215,274.122 206.276 C 275.422 204.361,275.715 200.976,275.535 189.928 C 275.365 179.535,274.893 178.420,271.330 180.001 M274.332 182.132 C 275.884 185.372,275.225 202.109,273.405 205.637 C 272.884 206.648,272.254 208.628,272.005 210.037 C 271.755 211.447,271.092 213.490,270.531 214.578 C 269.970 215.667,269.254 217.421,268.940 218.477 C 268.159 221.107,264.979 226.963,262.800 229.782 C 261.810 231.063,260.434 232.941,259.743 233.956 C 257.024 237.946,249.172 244.981,245.600 246.629 C 244.830 246.984,243.750 247.698,243.200 248.216 C 242.650 248.734,241.300 249.548,240.200 250.025 C 239.100 250.503,237.750 251.303,237.200 251.803 C 236.650 252.302,235.124 253.018,233.809 253.393 C 232.494 253.768,230.964 254.397,230.409 254.789 C 229.854 255.182,227.993 255.888,226.274 256.358 C 224.554 256.827,222.094 257.655,220.806 258.197 C 219.145 258.897,217.092 259.310,213.733 259.622 C 211.130 259.864,208.010 260.392,206.800 260.796 C 205.528 261.220,202.659 261.648,200.000 261.811 C 196.505 262.024,195.090 262.279,194.108 262.873 L 192.816 263.655 192.708 271.928 L 192.600 280.200 190.886 280.324 C 189.276 280.440,188.977 280.281,185.995 277.724 C 184.248 276.226,181.519 273.920,179.929 272.600 C 178.340 271.280,176.131 269.342,175.020 268.294 C 173.909 267.246,172.434 265.986,171.742 265.494 C 167.438 262.434,164.134 259.803,158.800 255.190 C 158.030 254.524,156.680 253.443,155.800 252.788 C 150.613 248.925,150.501 248.815,150.072 247.125 C 149.574 245.162,149.927 244.265,151.524 243.440 C 152.129 243.127,153.838 241.730,155.323 240.335 C 156.808 238.941,158.872 237.130,159.911 236.312 C 164.208 232.926,165.472 231.965,166.874 231.018 C 167.684 230.471,168.494 229.776,168.674 229.475 C 168.853 229.173,169.540 228.590,170.200 228.179 C 170.860 227.768,171.940 226.931,172.600 226.319 C 174.588 224.474,177.592 222.032,178.422 221.588 C 178.850 221.359,180.492 219.918,182.071 218.386 C 183.649 216.854,185.096 215.600,185.286 215.600 C 185.476 215.600,186.337 214.880,187.200 214.000 C 188.513 212.661,189.029 212.400,190.370 212.400 C 192.683 212.400,192.800 212.841,192.800 221.545 C 192.800 229.355,192.979 230.278,194.529 230.453 C 197.325 230.769,204.515 230.253,206.400 229.600 C 207.610 229.182,211.295 228.456,214.588 227.988 C 218.245 227.468,221.437 226.774,222.788 226.206 C 224.005 225.695,225.900 225.154,227.000 225.003 C 229.059 224.722,243.091 218.095,244.034 216.959 C 244.293 216.647,245.303 216.038,246.277 215.607 C 249.389 214.231,259.796 203.244,262.282 198.711 C 262.768 197.826,263.422 196.809,263.736 196.451 C 264.595 195.474,268.800 186.726,268.800 185.919 C 268.800 182.280,273.019 179.392,274.332 182.132 " stroke="none" fill="#c47ce4" fill-rule="evenodd"></path><path id="path2" d="M210.667 119.867 C 210.520 120.013,210.400 123.687,210.400 128.031 L 210.400 135.929 209.169 136.964 C 208.029 137.924,207.652 138.000,204.020 138.000 C 200.957 138.000,199.454 138.212,197.130 138.970 C 195.378 139.542,192.235 140.119,189.474 140.376 C 185.977 140.702,184.043 141.109,181.844 141.982 C 180.224 142.626,177.758 143.448,176.364 143.809 C 174.970 144.170,173.103 144.886,172.215 145.400 C 171.327 145.914,169.790 146.545,168.800 146.803 C 167.810 147.061,166.630 147.614,166.178 148.032 C 165.726 148.451,164.279 149.315,162.964 149.952 C 161.649 150.589,160.330 151.403,160.033 151.760 C 159.737 152.117,158.753 152.745,157.847 153.155 C 156.941 153.565,154.889 155.093,153.287 156.550 C 151.684 158.008,150.223 159.200,150.039 159.200 C 149.376 159.200,143.952 164.926,143.177 166.445 C 142.741 167.300,142.215 168.000,142.009 168.000 C 141.802 168.000,141.168 168.795,140.599 169.766 C 140.030 170.737,139.298 171.753,138.973 172.022 C 138.244 172.628,134.547 180.158,134.173 181.800 C 134.022 182.460,133.395 183.900,132.778 185.000 C 132.153 186.116,131.449 188.238,131.187 189.800 C 130.928 191.340,130.294 193.336,129.778 194.236 C 128.564 196.355,127.991 200.925,128.029 208.190 C 128.081 218.153,128.613 219.748,131.500 218.593 C 133.246 217.895,133.492 217.483,134.597 213.400 C 134.954 212.080,135.562 210.550,135.947 210.000 C 136.332 209.450,137.060 207.972,137.564 206.716 C 138.068 205.459,138.745 204.211,139.069 203.942 C 139.393 203.674,140.002 202.780,140.422 201.956 C 142.462 197.958,149.576 189.955,153.400 187.359 C 154.500 186.612,156.390 185.184,157.600 184.185 C 158.810 183.187,160.588 182.014,161.552 181.577 C 162.515 181.141,163.829 180.342,164.471 179.802 C 165.113 179.262,166.536 178.553,167.633 178.227 C 168.730 177.902,170.116 177.292,170.714 176.873 C 171.952 176.004,173.823 175.376,176.330 174.988 C 177.282 174.840,179.109 174.293,180.391 173.772 C 181.791 173.203,185.093 172.489,188.661 171.983 C 191.927 171.520,195.500 170.817,196.600 170.421 C 199.200 169.486,207.213 168.943,208.787 169.595 C 210.270 170.209,210.400 171.000,210.400 179.417 C 210.400 183.222,210.509 186.619,210.643 186.967 C 211.063 188.063,214.126 187.806,215.258 186.580 C 215.776 186.019,216.930 185.044,217.822 184.414 C 218.714 183.784,220.424 182.292,221.622 181.098 C 222.820 179.903,224.195 178.717,224.679 178.460 C 225.563 177.992,227.973 176.043,231.076 173.288 C 231.997 172.470,233.580 171.170,234.592 170.400 C 235.605 169.630,237.101 168.448,237.917 167.774 C 238.733 167.099,240.030 166.122,240.800 165.602 C 241.570 165.081,243.460 163.548,245.000 162.194 C 246.540 160.841,248.098 159.568,248.461 159.366 C 248.825 159.165,250.110 158.078,251.318 156.952 L 253.513 154.904 253.079 153.008 C 252.733 151.497,252.355 150.929,251.217 150.211 C 250.431 149.715,249.529 148.996,249.211 148.614 C 248.894 148.232,247.682 147.309,246.517 146.564 C 245.353 145.819,244.400 145.032,244.400 144.815 C 244.400 144.598,243.885 144.154,243.256 143.829 C 242.627 143.503,241.272 142.421,240.246 141.424 C 239.220 140.427,237.395 138.883,236.190 137.993 C 234.986 137.103,234.000 136.217,234.000 136.025 C 234.000 135.694,232.372 134.376,228.038 131.200 C 226.987 130.430,225.760 129.440,225.310 129.000 C 224.860 128.560,223.558 127.480,222.416 126.600 C 221.275 125.720,219.589 124.369,218.670 123.597 C 214.067 119.732,211.840 118.694,210.667 119.867 M215.514 122.698 C 216.111 123.082,217.161 123.982,217.847 124.698 C 218.533 125.414,219.384 126.000,219.738 126.000 C 220.092 126.000,220.682 126.459,221.050 127.020 C 221.418 127.582,222.270 128.326,222.944 128.674 C 223.617 129.023,224.716 129.841,225.384 130.492 C 227.419 132.473,231.258 135.565,231.963 135.788 C 232.328 135.904,232.940 136.528,233.322 137.175 C 233.704 137.822,234.373 138.464,234.809 138.603 C 235.244 138.741,235.786 139.200,236.012 139.623 C 236.239 140.046,237.003 140.685,237.712 141.044 C 238.420 141.403,239.540 142.217,240.200 142.853 C 243.233 145.775,244.857 147.200,245.153 147.200 C 245.330 147.200,246.483 148.055,247.714 149.100 C 248.946 150.145,250.330 151.270,250.791 151.600 C 252.287 152.671,252.285 154.870,250.788 155.703 C 250.092 156.090,249.432 156.758,249.319 157.186 C 249.204 157.628,248.522 158.162,247.744 158.419 C 246.989 158.668,246.081 159.315,245.726 159.856 C 245.372 160.398,244.599 161.090,244.011 161.394 C 243.422 161.699,242.337 162.511,241.600 163.200 C 240.863 163.889,239.765 164.708,239.161 165.020 C 238.557 165.332,237.694 166.107,237.242 166.741 C 236.790 167.375,235.882 168.117,235.224 168.390 C 234.565 168.663,233.920 169.223,233.789 169.635 C 233.658 170.047,232.752 170.738,231.776 171.170 C 230.799 171.602,230.000 172.136,230.000 172.358 C 230.000 172.580,229.235 173.293,228.300 173.942 C 227.365 174.592,225.983 175.680,225.228 176.362 C 224.473 177.043,223.703 177.600,223.516 177.600 C 223.328 177.600,222.310 178.455,221.253 179.500 C 218.299 182.420,216.462 184.000,216.021 184.000 C 215.801 184.000,215.341 184.540,215.000 185.200 C 213.237 188.610,212.400 186.048,212.400 177.236 C 212.400 169.158,212.422 169.217,209.130 168.390 C 206.183 167.649,196.638 168.430,192.716 169.732 C 191.019 170.295,187.779 170.957,185.516 171.203 C 180.291 171.769,179.585 171.937,178.567 172.859 C 178.064 173.315,176.444 173.841,174.480 174.186 C 171.046 174.790,170.060 175.163,169.215 176.182 C 168.929 176.526,167.727 177.090,166.543 177.434 C 165.359 177.778,163.869 178.499,163.231 179.035 C 162.593 179.572,161.380 180.300,160.536 180.652 C 159.691 181.005,158.421 181.768,157.712 182.347 C 157.004 182.926,155.321 184.210,153.973 185.200 C 151.147 187.275,144.162 194.051,143.037 195.808 C 142.617 196.464,142.031 197.145,141.734 197.321 C 141.085 197.708,139.600 200.525,139.600 201.370 C 139.600 201.701,139.223 202.173,138.763 202.420 C 138.303 202.666,137.490 203.853,136.958 205.057 C 136.425 206.261,135.619 207.747,135.167 208.359 C 134.714 208.971,134.032 210.716,133.650 212.236 C 132.997 214.833,130.680 217.213,129.729 216.263 C 128.612 215.146,128.662 202.304,129.795 199.174 C 131.095 195.585,131.609 193.741,132.020 191.200 C 132.264 189.689,132.842 188.013,133.400 187.200 C 133.928 186.430,134.544 184.969,134.770 183.953 C 135.337 181.398,135.863 180.113,136.720 179.194 C 137.122 178.762,137.753 177.453,138.121 176.284 C 138.499 175.085,139.316 173.655,139.995 173.004 C 140.658 172.370,141.200 171.596,141.200 171.286 C 141.200 170.975,141.713 170.242,142.341 169.655 C 142.968 169.069,143.760 168.052,144.100 167.394 C 144.767 166.104,150.686 160.000,151.270 160.000 C 151.465 160.000,152.503 159.145,153.577 158.100 C 156.924 154.844,157.918 154.082,159.180 153.804 C 159.852 153.657,160.933 153.006,161.581 152.357 C 162.229 151.709,163.534 150.906,164.480 150.574 C 165.426 150.241,166.604 149.535,167.097 149.005 C 167.695 148.362,168.798 147.883,170.411 147.566 C 171.741 147.304,173.587 146.598,174.514 145.996 C 175.576 145.306,177.458 144.654,179.600 144.234 C 181.597 143.841,183.578 143.174,184.400 142.616 C 185.621 141.788,186.551 141.613,191.658 141.252 C 195.541 140.977,198.336 140.561,199.946 140.018 C 201.547 139.479,203.410 139.200,205.414 139.200 C 208.650 139.200,209.554 138.904,211.300 137.276 L 212.400 136.250 212.400 129.605 C 212.400 121.732,212.762 120.929,215.514 122.698 M271.318 181.485 C 270.059 182.117,268.800 184.334,268.800 185.919 C 268.800 186.726,264.595 195.474,263.736 196.451 C 263.422 196.809,262.768 197.826,262.282 198.711 C 259.796 203.244,249.389 214.231,246.277 215.607 C 245.303 216.038,244.293 216.647,244.034 216.959 C 243.091 218.095,229.059 224.722,227.000 225.003 C 225.900 225.154,224.005 225.695,222.788 226.206 C 221.437 226.774,218.245 227.468,214.588 227.988 C 211.295 228.456,207.610 229.182,206.400 229.600 C 204.515 230.253,197.325 230.769,194.529 230.453 C 192.979 230.278,192.800 229.355,192.800 221.545 C 192.800 212.841,192.683 212.400,190.370 212.400 C 189.029 212.400,188.513 212.661,187.200 214.000 C 186.337 214.880,185.476 215.600,185.286 215.600 C 185.096 215.600,183.649 216.854,182.071 218.386 C 180.492 219.918,178.850 221.359,178.422 221.588 C 177.592 222.032,174.588 224.474,172.600 226.319 C 171.940 226.931,170.860 227.768,170.200 228.179 C 169.540 228.590,168.853 229.173,168.674 229.475 C 168.494 229.776,167.684 230.471,166.874 231.018 C 165.472 231.965,164.208 232.926,159.911 236.312 C 158.872 237.130,156.808 238.941,155.323 240.335 C 153.838 241.730,152.129 243.127,151.524 243.440 C 149.927 244.265,149.574 245.162,150.072 247.125 C 150.501 248.815,150.613 248.925,155.800 252.788 C 156.680 253.443,158.030 254.524,158.800 255.190 C 164.134 259.803,167.438 262.434,171.742 265.494 C 172.434 265.986,173.909 267.246,175.020 268.294 C 176.131 269.342,178.340 271.280,179.929 272.600 C 181.519 273.920,184.248 276.226,185.995 277.724 C 188.977 280.281,189.276 280.440,190.886 280.324 L 192.600 280.200 192.708 271.928 L 192.816 263.655 194.108 262.873 C 195.090 262.279,196.505 262.024,200.000 261.811 C 202.659 261.648,205.528 261.220,206.800 260.796 C 208.010 260.392,211.130 259.864,213.733 259.622 C 217.092 259.310,219.145 258.897,220.806 258.197 C 222.094 257.655,224.554 256.827,226.274 256.358 C 227.993 255.888,229.854 255.182,230.409 254.789 C 230.964 254.397,232.494 253.768,233.809 253.393 C 235.124 253.018,236.650 252.302,237.200 251.803 C 237.750 251.303,239.100 250.503,240.200 250.025 C 241.300 249.548,242.650 248.734,243.200 248.216 C 243.750 247.698,244.830 246.984,245.600 246.629 C 249.172 244.981,257.024 237.946,259.743 233.956 C 260.434 232.941,261.810 231.063,262.800 229.782 C 264.979 226.963,268.159 221.107,268.940 218.477 C 269.254 217.421,269.970 215.667,270.531 214.578 C 271.092 213.490,271.755 211.447,272.005 210.037 C 272.254 208.628,272.884 206.648,273.405 205.637 C 274.735 203.057,275.367 196.948,275.090 189.327 C 274.797 181.253,274.210 180.033,271.318 181.485 M273.743 184.815 C 274.620 189.202,274.277 200.090,273.221 201.381 C 272.707 202.008,271.290 207.119,270.998 209.400 C 270.857 210.500,270.302 212.044,269.765 212.830 C 269.228 213.617,268.453 215.468,268.044 216.943 C 267.635 218.419,267.021 219.935,266.681 220.313 C 266.340 220.691,265.661 222.080,265.173 223.400 C 264.685 224.720,263.681 226.476,262.942 227.301 C 262.204 228.127,261.600 229.060,261.600 229.374 C 261.600 229.688,261.060 230.330,260.400 230.800 C 259.740 231.270,259.200 231.928,259.200 232.263 C 259.200 233.130,249.787 242.620,248.164 243.390 C 247.420 243.744,246.625 244.379,246.399 244.803 C 246.172 245.226,245.305 245.756,244.472 245.981 C 243.639 246.205,242.247 246.991,241.379 247.728 C 240.510 248.465,239.178 249.281,238.417 249.542 C 237.657 249.803,236.633 250.394,236.141 250.855 C 235.650 251.316,234.036 252.030,232.554 252.441 C 231.072 252.852,229.217 253.620,228.430 254.149 C 227.584 254.717,225.611 255.380,223.600 255.772 C 221.620 256.157,219.615 256.827,218.800 257.376 C 217.603 258.181,216.559 258.385,211.600 258.788 C 202.117 259.557,199.846 259.833,198.926 260.329 C 198.446 260.588,197.332 260.800,196.452 260.800 C 194.439 260.800,193.295 261.237,191.900 262.537 L 190.800 263.562 190.800 270.181 C 190.800 278.411,190.427 279.208,187.508 277.221 C 186.569 276.582,185.573 275.686,185.297 275.230 C 185.020 274.773,184.518 274.400,184.182 274.400 C 183.845 274.400,182.778 273.635,181.811 272.700 C 180.843 271.765,179.405 270.460,178.615 269.800 C 177.825 269.140,176.292 267.790,175.209 266.800 C 172.371 264.205,170.436 262.663,168.500 261.453 C 167.565 260.868,166.800 260.216,166.800 260.003 C 166.800 259.790,166.086 259.252,165.213 258.807 C 164.341 258.362,163.435 257.639,163.200 257.200 C 162.965 256.761,162.072 256.045,161.216 255.608 C 160.359 255.171,159.546 254.460,159.409 254.027 C 159.271 253.595,158.845 253.141,158.461 253.019 C 158.077 252.897,156.699 251.899,155.400 250.800 C 154.101 249.701,152.734 248.706,152.364 248.589 C 150.728 248.069,150.742 245.246,152.384 244.408 C 153.212 243.986,154.956 242.596,156.259 241.320 C 157.562 240.044,159.387 238.481,160.314 237.846 C 161.241 237.211,162.000 236.550,162.000 236.378 C 162.000 236.206,162.675 235.651,163.500 235.145 C 164.325 234.639,165.582 233.679,166.294 233.012 C 169.570 229.943,170.269 229.370,171.270 228.932 C 171.858 228.675,172.644 228.000,173.016 227.432 C 173.388 226.864,173.922 226.400,174.203 226.400 C 174.484 226.400,175.588 225.616,176.657 224.658 C 177.726 223.700,179.172 222.622,179.872 222.263 C 180.571 221.903,181.260 221.240,181.403 220.789 C 181.546 220.339,182.378 219.519,183.251 218.968 C 184.124 218.417,184.933 217.720,185.048 217.420 C 185.163 217.119,185.793 216.651,186.448 216.380 C 187.102 216.109,187.904 215.373,188.229 214.744 C 188.869 213.505,189.085 213.414,190.000 213.991 C 190.488 214.299,190.637 215.834,190.800 222.243 L 191.000 230.116 192.113 230.946 C 194.130 232.450,208.956 231.686,211.032 229.972 C 211.269 229.776,212.799 229.439,214.432 229.222 C 216.064 229.006,218.737 228.653,220.372 228.437 C 222.243 228.190,223.756 227.739,224.457 227.221 C 225.481 226.464,226.952 226.050,230.879 225.412 C 231.696 225.279,233.071 224.576,233.950 223.842 C 234.889 223.057,236.194 222.407,237.131 222.257 C 238.092 222.104,239.384 221.449,240.398 220.602 C 241.321 219.831,242.412 219.200,242.824 219.200 C 243.235 219.200,244.163 218.693,244.886 218.073 C 245.609 217.453,246.798 216.705,247.529 216.412 C 248.742 215.926,260.000 205.164,260.000 204.490 C 260.000 204.330,260.634 203.488,261.409 202.618 C 262.183 201.747,263.021 200.355,263.270 199.523 C 263.519 198.692,264.115 197.755,264.594 197.441 C 265.073 197.127,265.789 196.000,266.186 194.935 C 266.582 193.871,267.242 192.629,267.652 192.176 C 268.446 191.297,269.385 188.726,269.777 186.351 C 269.977 185.146,270.269 184.799,271.509 184.290 C 273.532 183.459,273.469 183.445,273.743 184.815 " stroke="none" fill="#d4a4f4" fill-rule="evenodd"></path><path id="path3" d="M173.963 39.311 C 173.943 39.360,173.838 40.030,173.730 40.800 C 173.622 41.570,173.498 42.235,173.455 42.278 C 173.412 42.321,169.977 42.411,165.821 42.478 L 158.266 42.600 158.107 43.793 C 157.900 45.346,158.265 45.222,153.753 45.270 C 149.211 45.318,148.614 45.518,148.489 47.034 C 148.369 48.479,148.655 48.377,144.506 48.462 C 141.139 48.531,139.291 48.964,139.226 49.700 C 139.212 49.865,139.200 50.352,139.200 50.783 C 139.200 51.483,138.871 51.579,136.100 51.683 C 133.983 51.763,132.984 51.959,132.950 52.300 C 132.922 52.575,132.878 53.250,132.850 53.800 C 132.801 54.773,132.720 54.800,129.800 54.800 L 126.800 54.800 126.800 56.400 L 126.800 58.000 123.600 58.000 L 120.400 58.000 120.400 59.400 C 120.400 60.576,120.256 60.805,119.500 60.831 C 119.005 60.847,118.240 60.931,117.800 61.017 C 117.360 61.103,116.421 61.216,115.714 61.268 C 115.007 61.319,114.497 61.431,114.581 61.515 C 115.094 62.027,113.830 64.000,112.989 64.000 C 111.908 64.000,110.669 65.081,110.940 65.788 C 111.294 66.710,110.590 67.123,108.400 67.277 C 106.288 67.426,104.689 67.979,104.764 68.536 C 104.956 69.946,104.729 70.400,103.833 70.400 C 102.096 70.400,101.600 70.809,101.600 72.243 C 101.600 73.526,101.524 73.600,100.208 73.600 C 99.014 73.600,98.781 73.757,98.574 74.700 C 98.168 76.556,98.020 76.859,97.636 76.622 C 96.730 76.062,95.200 77.172,95.200 78.390 C 95.200 79.316,95.020 79.600,94.433 79.600 C 92.903 79.600,92.400 80.056,92.400 81.443 C 92.400 82.839,91.627 83.094,88.017 82.894 C 86.927 82.833,86.100 83.571,86.100 84.604 C 86.100 85.884,85.889 86.100,84.640 86.100 C 83.253 86.100,82.975 86.788,82.859 90.500 C 82.801 92.382,82.787 92.400,81.443 92.400 C 80.031 92.400,79.600 92.899,79.600 94.537 C 79.600 95.251,79.369 95.407,78.320 95.404 C 77.196 95.400,76.992 95.571,76.652 96.800 C 76.170 98.539,76.214 98.488,75.113 98.603 C 74.611 98.655,74.065 98.721,73.900 98.749 C 73.735 98.777,73.600 99.430,73.600 100.200 C 73.600 101.538,73.208 101.866,71.879 101.640 C 70.821 101.461,70.400 102.588,70.400 105.600 C 70.400 107.872,70.348 108.000,69.433 108.000 C 67.733 108.000,67.200 108.416,67.199 109.743 C 67.198 110.866,67.065 111.009,65.944 111.088 C 64.165 111.213,64.085 111.381,64.031 115.100 L 64.000 117.200 62.600 117.200 C 61.764 117.200,61.187 117.402,61.167 117.700 C 60.987 120.395,60.937 120.450,58.361 120.770 C 58.229 120.787,58.083 122.101,58.037 123.690 C 57.938 127.077,58.133 126.695,56.400 126.891 L 55.000 127.049 54.800 130.025 C 54.604 132.939,54.578 133.000,53.515 133.018 C 51.728 133.049,51.688 133.174,51.633 138.876 L 51.600 142.352 50.100 142.476 L 48.600 142.600 48.470 146.997 C 48.320 152.068,48.494 151.550,46.904 151.671 C 45.345 151.790,45.345 151.788,45.236 158.397 C 45.188 161.361,45.103 163.830,45.049 163.884 C 44.996 163.938,44.602 164.036,44.176 164.103 C 42.436 164.373,42.400 164.538,42.400 172.184 L 42.400 179.521 40.900 179.875 L 39.400 180.230 39.400 200.000 L 39.400 219.770 40.900 220.125 L 42.400 220.479 42.400 227.816 C 42.400 235.462,42.436 235.627,44.176 235.897 C 44.602 235.964,44.996 236.062,45.049 236.116 C 45.103 236.170,45.188 238.639,45.236 241.603 C 45.345 248.212,45.345 248.210,46.904 248.329 C 48.494 248.450,48.320 247.932,48.470 253.003 L 48.600 257.400 50.100 257.524 L 51.600 257.648 51.633 261.124 C 51.688 266.826,51.728 266.951,53.515 266.982 C 54.578 267.000,54.604 267.061,54.800 269.975 L 55.000 272.951 56.400 273.109 C 58.133 273.305,57.938 272.923,58.037 276.310 C 58.083 277.899,58.229 279.213,58.361 279.230 C 60.937 279.550,60.987 279.605,61.167 282.300 C 61.187 282.598,61.764 282.800,62.600 282.800 L 64.000 282.800 64.031 284.900 C 64.085 288.619,64.165 288.787,65.944 288.912 C 67.065 288.991,67.198 289.134,67.199 290.257 C 67.200 291.584,67.733 292.000,69.433 292.000 C 70.365 292.000,70.628 293.381,70.386 297.014 C 70.362 297.365,71.531 298.419,71.879 298.360 C 73.107 298.151,73.600 298.477,73.606 299.500 C 73.612 300.622,74.085 301.696,74.545 301.634 C 75.921 301.450,76.285 301.706,76.630 303.100 C 76.964 304.451,77.130 304.600,78.301 304.596 C 79.370 304.593,79.600 304.747,79.600 305.463 C 79.600 307.101,80.031 307.600,81.443 307.600 C 82.787 307.600,82.801 307.618,82.859 309.500 C 82.975 313.212,83.253 313.900,84.640 313.900 C 85.889 313.900,86.100 314.116,86.100 315.396 C 86.100 316.429,86.927 317.167,88.017 317.106 C 91.627 316.906,92.400 317.161,92.400 318.557 C 92.400 319.944,92.903 320.400,94.433 320.400 C 95.020 320.400,95.200 320.684,95.200 321.610 C 95.200 322.828,96.730 323.938,97.636 323.378 C 98.020 323.141,98.168 323.444,98.574 325.300 C 98.781 326.243,99.014 326.400,100.208 326.400 C 101.524 326.400,101.600 326.474,101.600 327.757 C 101.600 329.191,102.096 329.600,103.833 329.600 C 104.710 329.600,105.121 330.467,104.700 331.428 C 104.479 331.932,106.323 332.577,108.400 332.723 C 110.590 332.877,111.294 333.290,110.940 334.212 C 110.669 334.919,111.908 336.000,112.989 336.000 C 113.830 336.000,115.094 337.973,114.581 338.485 C 114.497 338.569,115.007 338.681,115.714 338.732 C 116.421 338.784,117.360 338.897,117.800 338.983 C 118.240 339.069,119.005 339.153,119.500 339.169 C 120.256 339.195,120.400 339.424,120.400 340.600 L 120.400 342.000 123.600 342.000 L 126.800 342.000 126.800 343.600 L 126.800 345.200 129.800 345.200 C 132.720 345.200,132.801 345.227,132.850 346.200 C 132.878 346.750,132.922 347.425,132.950 347.700 C 132.984 348.041,133.983 348.237,136.100 348.317 C 139.185 348.433,139.726 348.778,139.100 350.232 C 138.820 350.882,141.261 351.472,144.506 351.538 C 148.655 351.623,148.369 351.521,148.489 352.966 C 148.614 354.482,149.211 354.682,153.753 354.730 C 158.265 354.778,157.900 354.654,158.107 356.207 L 158.266 357.400 165.821 357.522 C 169.977 357.589,173.412 357.679,173.455 357.722 C 173.498 357.765,173.605 358.430,173.693 359.200 L 173.852 360.600 201.176 360.708 C 229.803 360.821,229.355 360.848,229.512 358.957 C 229.562 358.356,229.652 357.815,229.713 357.754 C 229.774 357.693,233.238 357.589,237.412 357.522 L 245.000 357.400 245.125 356.100 C 245.225 355.071,245.433 354.798,246.125 354.791 C 253.956 354.714,254.500 354.597,254.500 352.985 C 254.500 351.682,254.556 351.664,259.243 351.474 C 263.623 351.296,263.900 351.196,263.900 349.791 C 263.900 348.422,263.816 348.459,267.110 348.363 C 269.197 348.302,270.014 348.129,270.050 347.739 C 270.078 347.443,270.145 347.020,270.200 346.800 C 270.255 346.580,270.322 346.130,270.350 345.800 C 270.390 345.324,271.022 345.200,273.400 345.200 L 276.400 345.200 276.400 343.600 L 276.400 342.000 278.900 341.954 C 282.681 341.884,282.589 341.919,282.725 340.500 C 282.811 339.607,283.062 339.194,283.525 339.180 C 287.318 339.065,288.800 338.439,288.800 336.951 C 288.800 336.088,289.197 335.797,290.141 335.966 C 291.277 336.170,292.000 335.472,292.000 334.173 C 292.000 332.951,292.121 332.796,293.100 332.763 C 296.404 332.653,297.152 332.537,297.743 332.047 C 298.099 331.752,298.303 331.366,298.194 331.191 C 297.717 330.418,298.543 329.600,299.800 329.600 C 301.188 329.600,301.600 329.089,301.600 327.367 C 301.600 326.464,302.484 326.103,304.093 326.350 C 304.254 326.375,304.495 325.901,304.628 325.298 C 304.761 324.694,304.914 324.021,304.968 323.802 C 305.022 323.583,305.321 323.385,305.633 323.363 C 307.577 323.223,307.600 323.205,307.600 321.800 C 307.600 320.586,307.728 320.400,308.567 320.400 C 310.304 320.400,310.800 319.991,310.800 318.557 C 310.800 317.235,310.844 317.199,312.500 317.148 C 315.932 317.044,316.460 316.951,316.817 316.381 C 317.018 316.061,317.089 315.500,316.975 315.134 C 316.734 314.360,317.033 314.118,318.577 313.838 C 320.064 313.569,320.282 312.968,320.371 308.900 C 320.398 307.690,320.495 307.600,321.782 307.600 C 323.044 307.600,323.186 307.479,323.426 306.200 C 323.629 305.121,323.885 304.799,324.545 304.794 C 325.459 304.787,326.490 304.275,326.434 303.855 C 326.212 302.198,326.460 301.600,327.367 301.600 C 329.104 301.600,329.600 301.191,329.600 299.757 C 329.600 298.554,330.186 298.011,330.958 298.500 C 331.252 298.686,332.806 297.074,332.755 296.636 C 332.728 296.396,332.727 295.255,332.753 294.100 L 332.800 292.000 334.157 292.000 C 335.536 292.000,336.000 291.496,336.000 289.999 C 336.000 289.503,336.400 289.176,337.227 288.994 C 338.784 288.652,338.988 288.114,339.156 283.900 C 339.195 282.918,339.350 282.800,340.600 282.800 C 341.967 282.800,342.000 282.762,342.000 281.200 C 342.000 279.768,342.909 278.971,343.710 279.700 C 344.304 280.241,345.092 278.248,345.164 276.021 C 345.262 272.978,345.118 273.249,346.711 273.128 C 348.202 273.014,348.249 272.920,348.361 269.824 C 348.461 267.077,348.620 266.691,349.534 266.975 C 351.182 267.487,351.473 266.586,351.556 260.700 L 351.600 257.600 352.786 257.600 C 354.408 257.600,354.692 256.861,354.774 252.427 C 354.846 248.527,354.989 247.823,355.631 248.219 C 357.255 249.223,357.600 248.130,357.600 241.973 C 357.600 236.283,357.638 235.998,358.400 235.950 C 360.820 235.799,360.800 235.867,360.800 227.808 L 360.800 220.464 362.100 220.182 C 364.037 219.761,363.979 220.389,363.979 200.000 C 363.979 179.611,364.037 180.239,362.100 179.818 L 360.800 179.536 360.800 172.192 C 360.800 164.133,360.820 164.201,358.400 164.050 C 357.638 164.002,357.600 163.717,357.600 158.027 C 357.600 151.870,357.255 150.777,355.631 151.781 C 354.989 152.177,354.846 151.473,354.774 147.573 C 354.692 143.139,354.408 142.400,352.786 142.400 L 351.600 142.400 351.556 139.300 C 351.473 133.414,351.182 132.513,349.534 133.025 C 348.620 133.309,348.461 132.923,348.361 130.176 C 348.249 127.080,348.202 126.986,346.711 126.872 C 345.118 126.751,345.262 127.022,345.164 123.979 C 345.066 120.949,344.703 120.400,342.800 120.400 C 342.133 120.400,342.000 120.133,342.000 118.800 C 342.000 117.238,341.967 117.200,340.600 117.200 C 339.350 117.200,339.195 117.082,339.156 116.100 C 338.988 111.886,338.784 111.348,337.227 111.006 C 336.149 110.769,336.000 110.570,336.000 109.368 C 336.000 108.039,335.955 108.000,334.400 108.000 L 332.800 108.000 332.753 105.900 C 332.727 104.745,332.728 103.604,332.755 103.364 C 332.783 103.125,332.489 102.643,332.103 102.293 C 331.388 101.646,331.261 101.600,330.200 101.600 C 329.785 101.600,329.600 101.183,329.600 100.243 C 329.600 98.809,329.104 98.400,327.367 98.400 C 326.460 98.400,326.212 97.802,326.434 96.145 C 326.490 95.725,325.459 95.213,324.545 95.206 C 323.885 95.201,323.629 94.879,323.426 93.800 C 323.186 92.521,323.044 92.400,321.782 92.400 C 320.495 92.400,320.398 92.310,320.371 91.100 C 320.282 87.032,320.064 86.431,318.577 86.162 C 317.011 85.878,316.734 85.640,316.997 84.808 C 317.296 83.866,316.134 82.704,315.192 83.003 C 314.360 83.266,314.122 82.989,313.838 81.423 C 313.559 79.880,313.057 79.697,308.900 79.623 C 307.685 79.602,307.600 79.508,307.600 78.200 C 307.600 76.795,307.577 76.777,305.633 76.637 C 305.321 76.615,305.022 76.417,304.968 76.198 C 304.914 75.979,304.761 75.306,304.628 74.702 C 304.495 74.099,304.254 73.625,304.093 73.650 C 302.484 73.897,301.600 73.536,301.600 72.633 C 301.600 70.911,301.188 70.400,299.800 70.400 C 298.543 70.400,297.717 69.582,298.194 68.809 C 298.303 68.634,298.099 68.248,297.743 67.953 C 297.152 67.463,296.404 67.347,293.100 67.237 C 292.121 67.204,292.000 67.049,292.000 65.827 C 292.000 64.528,291.277 63.830,290.141 64.034 C 289.197 64.203,288.800 63.912,288.800 63.049 C 288.800 61.561,287.318 60.935,283.525 60.820 C 283.062 60.806,282.811 60.393,282.725 59.500 C 282.589 58.081,282.681 58.116,278.900 58.046 L 276.400 58.000 276.400 56.400 L 276.400 54.800 273.400 54.800 C 271.022 54.800,270.390 54.676,270.350 54.200 C 270.322 53.870,270.255 53.420,270.200 53.200 C 270.145 52.980,270.078 52.557,270.050 52.261 C 270.014 51.871,269.197 51.698,267.110 51.637 C 263.816 51.541,263.900 51.578,263.900 50.209 C 263.900 48.804,263.623 48.704,259.243 48.526 C 254.556 48.336,254.500 48.318,254.500 47.015 C 254.500 45.403,253.956 45.286,246.125 45.209 C 245.433 45.202,245.225 44.929,245.125 43.900 L 245.000 42.600 237.412 42.478 C 233.238 42.411,229.785 42.318,229.738 42.271 C 229.691 42.224,229.591 41.739,229.516 41.193 C 229.227 39.087,230.666 39.189,201.373 39.206 C 186.318 39.214,173.984 39.262,173.963 39.311 M212.109 116.700 C 212.533 117.085,213.537 117.586,214.340 117.813 C 215.301 118.084,215.979 118.598,216.324 119.317 C 216.612 119.918,217.443 120.658,218.170 120.962 C 219.015 121.315,219.584 121.884,219.749 122.539 C 219.934 123.275,220.397 123.672,221.394 123.947 C 222.157 124.158,223.281 124.850,223.891 125.484 C 224.501 126.119,225.696 126.989,226.546 127.419 C 227.397 127.848,228.278 128.600,228.505 129.088 C 228.732 129.577,229.537 130.181,230.295 130.431 C 231.225 130.738,231.796 131.244,232.057 131.991 C 232.316 132.735,232.856 133.215,233.709 133.460 C 234.657 133.732,235.070 134.148,235.346 135.112 C 235.623 136.077,235.944 136.400,236.625 136.400 C 237.561 136.400,240.901 139.003,242.385 140.890 C 242.846 141.476,244.052 142.369,245.064 142.875 C 246.077 143.381,247.089 144.196,247.312 144.686 C 247.535 145.176,248.321 145.776,249.059 146.020 C 249.941 146.310,250.483 146.790,250.640 147.417 C 250.783 147.986,251.466 148.661,252.331 149.086 C 253.486 149.654,253.884 150.159,254.283 151.559 C 254.558 152.527,255.095 153.663,255.476 154.084 C 256.366 155.067,251.266 160.400,249.436 160.400 C 248.644 160.400,248.279 160.716,247.832 161.786 C 247.451 162.698,246.897 163.261,246.212 163.433 C 245.627 163.579,244.904 164.211,244.560 164.877 C 244.224 165.527,243.432 166.240,242.801 166.460 C 242.169 166.680,241.368 167.294,241.021 167.825 C 240.673 168.355,239.716 169.136,238.894 169.558 C 238.072 169.981,236.887 170.866,236.261 171.526 C 235.634 172.186,234.554 172.836,233.861 172.971 C 232.951 173.148,232.433 173.576,232.000 174.508 C 231.629 175.307,231.055 175.849,230.496 175.928 C 229.973 176.003,229.328 176.565,228.969 177.260 C 228.627 177.922,227.742 178.716,227.003 179.025 C 226.263 179.334,225.556 179.904,225.430 180.293 C 225.305 180.682,224.662 181.307,224.001 181.681 C 223.340 182.056,222.601 182.799,222.359 183.331 C 222.116 183.864,221.167 184.674,220.251 185.132 C 219.334 185.590,218.055 186.516,217.409 187.191 C 216.684 187.947,215.670 188.507,214.761 188.653 C 213.736 188.817,213.157 189.175,212.858 189.833 C 212.227 191.216,210.541 191.519,209.464 190.442 C 208.647 189.626,208.587 189.099,208.363 180.690 C 208.083 170.200,208.406 171.476,206.100 171.740 C 205.055 171.860,200.483 172.283,195.941 172.679 C 189.491 173.242,187.519 173.547,186.940 174.072 C 185.726 175.173,184.223 175.564,179.493 176.010 C 175.305 176.405,174.920 176.515,173.754 177.645 C 172.702 178.664,172.072 178.899,169.784 179.128 C 167.315 179.375,167.003 179.509,166.414 180.572 C 166.001 181.320,165.191 181.939,164.183 182.279 C 163.312 182.573,162.004 183.339,161.276 183.980 C 160.548 184.622,159.411 185.266,158.749 185.411 C 158.087 185.557,157.441 185.973,157.312 186.338 C 156.958 187.342,155.942 188.400,155.333 188.400 C 154.585 188.400,145.114 197.940,144.504 199.308 C 144.232 199.917,143.572 200.582,143.038 200.786 C 142.267 201.079,141.971 201.613,141.606 203.369 C 141.263 205.024,140.852 205.814,139.981 206.496 C 139.093 207.191,138.718 207.931,138.405 209.604 C 138.104 211.219,137.690 212.065,136.842 212.800 C 135.866 213.646,135.651 214.196,135.443 216.372 C 134.997 221.044,130.621 224.275,128.265 221.672 C 125.851 219.004,126.217 194.754,128.719 191.641 C 129.709 190.409,130.002 189.655,130.010 188.323 C 130.025 185.586,130.620 183.710,131.958 182.187 C 132.692 181.350,133.201 180.328,133.202 179.686 C 133.206 177.756,134.002 175.656,135.040 174.840 C 135.597 174.402,136.240 173.364,136.469 172.534 C 136.698 171.704,137.587 170.229,138.443 169.256 C 139.299 168.283,140.000 167.252,140.000 166.964 C 140.000 166.676,140.630 165.960,141.400 165.373 C 142.170 164.786,142.800 163.994,142.800 163.615 C 142.800 162.867,143.778 161.871,144.906 161.471 C 145.294 161.333,145.786 160.764,145.998 160.205 C 146.210 159.647,146.883 158.972,147.492 158.705 C 148.101 158.439,149.789 157.006,151.242 155.523 C 153.903 152.805,155.227 152.000,157.036 152.000 C 157.693 152.000,158.135 151.696,158.368 151.084 C 158.813 149.915,159.449 149.417,161.234 148.843 C 162.023 148.589,163.175 147.853,163.794 147.206 C 164.568 146.399,165.479 145.947,166.706 145.763 C 167.847 145.592,168.983 145.064,169.855 144.298 C 170.981 143.309,171.773 143.028,174.409 142.680 C 176.544 142.398,177.600 142.086,177.600 141.738 C 177.600 140.497,179.617 139.886,185.178 139.442 C 189.496 139.098,190.894 138.843,191.505 138.288 C 192.845 137.071,194.774 136.722,201.600 136.456 L 208.200 136.200 208.400 127.400 C 208.510 122.560,208.762 118.330,208.961 118.000 C 209.611 116.919,210.516 116.000,210.930 116.000 C 211.154 116.000,211.684 116.315,212.109 116.700 M275.400 179.400 C 276.146 180.891,276.199 181.789,276.191 192.600 C 276.180 205.502,276.072 206.500,274.500 208.192 C 273.583 209.179,273.327 209.956,272.960 212.867 C 272.584 215.843,272.341 216.562,271.311 217.734 C 270.394 218.779,270.033 219.673,269.812 221.446 C 269.572 223.367,269.287 224.001,268.207 225.019 C 267.486 225.700,266.767 226.840,266.610 227.552 C 266.454 228.265,265.804 229.383,265.165 230.036 C 264.527 230.689,263.645 231.928,263.205 232.790 C 262.765 233.652,262.089 234.532,261.703 234.746 C 261.316 234.960,260.639 235.825,260.198 236.667 C 259.690 237.638,259.065 238.247,258.492 238.329 C 257.910 238.411,257.390 238.927,257.036 239.775 C 256.680 240.629,256.060 241.240,255.275 241.514 C 254.473 241.793,254.019 242.250,253.932 242.866 C 253.847 243.468,253.259 244.079,252.267 244.598 C 251.425 245.039,250.551 245.732,250.327 246.137 C 249.851 246.996,247.656 248.000,246.252 248.000 C 245.569 248.000,245.040 248.406,244.477 249.360 C 243.943 250.264,243.259 250.811,242.437 250.992 C 241.756 251.141,240.475 251.869,239.589 252.609 C 238.541 253.485,237.363 254.046,236.214 254.219 C 235.231 254.366,234.128 254.838,233.725 255.283 C 232.577 256.551,231.195 257.095,228.345 257.400 C 226.092 257.641,225.626 257.825,225.263 258.622 C 224.704 259.848,222.974 260.272,217.120 260.618 C 213.265 260.845,212.319 261.027,211.756 261.648 C 210.661 262.858,208.226 263.308,201.400 263.562 L 195.000 263.800 194.800 272.600 C 194.563 283.045,193.522 285.987,191.036 283.240 C 190.657 282.821,189.721 282.362,188.955 282.218 C 187.982 282.035,187.334 281.581,186.805 280.712 C 186.389 280.028,185.504 279.239,184.838 278.959 C 184.101 278.649,183.528 278.052,183.372 277.433 C 183.190 276.705,182.723 276.306,181.736 276.033 C 180.976 275.824,179.635 275.002,178.756 274.208 C 177.877 273.414,176.715 272.596,176.174 272.390 C 175.633 272.184,174.997 271.592,174.761 271.074 C 174.525 270.556,173.808 269.823,173.169 269.445 C 172.529 269.067,171.810 268.392,171.571 267.945 C 171.331 267.498,170.531 266.880,169.792 266.571 C 169.053 266.262,168.212 265.523,167.924 264.928 C 167.599 264.257,166.922 263.723,166.141 263.522 C 165.401 263.332,163.751 262.085,162.141 260.499 C 160.633 259.015,158.704 257.440,157.854 257.000 C 157.003 256.560,156.122 255.800,155.895 255.312 C 155.668 254.823,154.863 254.219,154.105 253.969 C 153.175 253.662,152.604 253.156,152.343 252.409 C 152.083 251.661,151.544 251.185,150.679 250.938 C 149.583 250.625,149.333 250.304,148.932 248.690 C 148.674 247.654,148.179 246.522,147.832 246.175 C 147.023 245.366,147.029 245.319,148.100 244.047 C 149.925 241.879,152.447 239.889,153.691 239.635 C 154.616 239.446,155.033 239.100,155.197 238.387 C 155.332 237.798,155.963 237.128,156.762 236.726 C 157.498 236.355,158.308 235.635,158.561 235.126 C 158.814 234.617,159.678 233.890,160.480 233.511 C 161.283 233.132,162.045 232.488,162.175 232.079 C 162.304 231.671,163.177 230.954,164.113 230.486 C 165.050 230.018,166.339 229.090,166.978 228.423 C 167.617 227.756,168.739 227.098,169.470 226.960 C 170.302 226.804,170.800 226.477,170.800 226.087 C 170.800 225.194,171.992 224.000,172.883 224.000 C 173.369 224.000,173.794 223.562,174.068 222.778 C 174.369 221.915,174.945 221.375,176.032 220.941 C 176.878 220.602,177.679 219.980,177.813 219.558 C 177.947 219.136,178.592 218.515,179.246 218.176 C 179.900 217.838,180.637 217.118,180.884 216.576 C 181.131 216.033,182.107 215.203,183.053 214.731 C 183.999 214.258,185.267 213.357,185.870 212.727 C 186.533 212.035,187.561 211.488,188.472 211.342 C 189.456 211.185,190.060 210.841,190.216 210.350 C 190.529 209.365,191.829 208.692,192.816 209.005 C 194.336 209.488,194.569 210.712,194.829 219.600 C 195.121 229.552,194.942 228.478,196.226 227.990 C 196.790 227.776,198.275 227.602,199.526 227.605 C 205.794 227.618,215.404 226.673,216.200 225.965 C 217.483 224.823,218.937 224.440,223.671 223.993 C 227.727 223.611,228.226 223.474,229.270 222.454 C 229.942 221.796,231.219 221.148,232.364 220.884 C 233.512 220.619,234.861 219.934,235.646 219.217 C 236.379 218.548,237.163 217.999,237.389 217.998 C 238.609 217.991,240.760 217.056,241.924 216.025 C 242.652 215.381,243.800 214.732,244.475 214.583 C 245.871 214.277,257.369 203.070,258.402 201.009 C 258.732 200.349,259.487 199.577,260.079 199.294 C 260.941 198.880,261.210 198.404,261.434 196.889 C 261.642 195.489,262.053 194.679,263.024 193.758 C 264.008 192.825,264.406 192.029,264.627 190.558 C 264.851 189.059,265.234 188.312,266.260 187.372 C 267.345 186.377,267.600 185.844,267.600 184.569 C 267.600 178.705,273.198 174.995,275.400 179.400 " stroke="none" fill="#a434dc" fill-rule="evenodd"></path><path id="path4" d="M209.923 116.700 C 208.689 118.137,208.596 118.794,208.400 127.400 L 208.200 136.200 201.600 136.456 C 194.774 136.722,192.845 137.071,191.505 138.288 C 190.894 138.843,189.496 139.098,185.178 139.442 C 179.617 139.886,177.600 140.497,177.600 141.738 C 177.600 142.086,176.544 142.398,174.409 142.680 C 171.773 143.028,170.981 143.309,169.855 144.298 C 168.983 145.064,167.847 145.592,166.706 145.763 C 165.479 145.947,164.568 146.399,163.794 147.206 C 163.175 147.853,162.023 148.589,161.234 148.843 C 159.449 149.417,158.813 149.915,158.368 151.084 C 158.135 151.696,157.693 152.000,157.036 152.000 C 155.227 152.000,153.903 152.805,151.242 155.523 C 149.789 157.006,148.101 158.439,147.492 158.705 C 146.883 158.972,146.210 159.647,145.998 160.205 C 145.786 160.764,145.294 161.333,144.906 161.471 C 143.778 161.871,142.800 162.867,142.800 163.615 C 142.800 163.994,142.170 164.786,141.400 165.373 C 140.630 165.960,140.000 166.676,140.000 166.964 C 140.000 167.252,139.299 168.283,138.443 169.256 C 137.587 170.229,136.698 171.704,136.469 172.534 C 136.240 173.364,135.597 174.402,135.040 174.840 C 134.002 175.656,133.206 177.756,133.202 179.686 C 133.201 180.328,132.692 181.350,131.958 182.187 C 130.620 183.710,130.025 185.586,130.010 188.323 C 130.002 189.655,129.709 190.409,128.719 191.641 C 126.217 194.754,125.851 219.004,128.265 221.672 C 130.621 224.275,134.997 221.044,135.443 216.372 C 135.651 214.196,135.866 213.646,136.842 212.800 C 137.690 212.065,138.104 211.219,138.405 209.604 C 138.718 207.931,139.093 207.191,139.981 206.496 C 140.852 205.814,141.263 205.024,141.606 203.369 C 141.971 201.613,142.267 201.079,143.038 200.786 C 143.572 200.582,144.232 199.917,144.504 199.308 C 145.114 197.940,154.585 188.400,155.333 188.400 C 155.942 188.400,156.958 187.342,157.312 186.338 C 157.441 185.973,158.087 185.557,158.749 185.411 C 159.411 185.266,160.548 184.622,161.276 183.980 C 162.004 183.339,163.312 182.573,164.183 182.279 C 165.191 181.939,166.001 181.320,166.414 180.572 C 167.003 179.509,167.315 179.375,169.784 179.128 C 172.072 178.899,172.702 178.664,173.754 177.645 C 174.920 176.515,175.305 176.405,179.493 176.010 C 184.223 175.564,185.726 175.173,186.940 174.072 C 187.519 173.547,189.491 173.242,195.941 172.679 C 200.483 172.283,205.055 171.860,206.100 171.740 C 208.406 171.476,208.083 170.200,208.363 180.690 C 208.587 189.099,208.647 189.626,209.464 190.442 C 210.541 191.519,212.227 191.216,212.858 189.833 C 213.157 189.175,213.736 188.817,214.761 188.653 C 215.670 188.507,216.684 187.947,217.409 187.191 C 218.055 186.516,219.334 185.590,220.251 185.132 C 221.167 184.674,222.116 183.864,222.359 183.331 C 222.601 182.799,223.340 182.056,224.001 181.681 C 224.662 181.307,225.305 180.682,225.430 180.293 C 225.556 179.904,226.263 179.334,227.003 179.025 C 227.742 178.716,228.627 177.922,228.969 177.260 C 229.328 176.565,229.973 176.003,230.496 175.928 C 231.055 175.849,231.629 175.307,232.000 174.508 C 232.433 173.576,232.951 173.148,233.861 172.971 C 234.554 172.836,235.634 172.186,236.261 171.526 C 236.887 170.866,238.072 169.981,238.894 169.558 C 239.716 169.136,240.673 168.355,241.021 167.825 C 241.368 167.294,242.169 166.680,242.801 166.460 C 243.432 166.240,244.224 165.527,244.560 164.877 C 244.904 164.211,245.627 163.579,246.212 163.433 C 246.897 163.261,247.451 162.698,247.832 161.786 C 248.279 160.716,248.644 160.400,249.436 160.400 C 251.266 160.400,256.366 155.067,255.476 154.084 C 255.095 153.663,254.558 152.527,254.283 151.559 C 253.884 150.159,253.486 149.654,252.331 149.086 C 251.466 148.661,250.783 147.986,250.640 147.417 C 250.483 146.790,249.941 146.310,249.059 146.020 C 248.321 145.776,247.535 145.176,247.312 144.686 C 247.089 144.196,246.077 143.381,245.064 142.875 C 244.052 142.369,242.846 141.476,242.385 140.890 C 240.901 139.003,237.561 136.400,236.625 136.400 C 235.944 136.400,235.623 136.077,235.346 135.112 C 235.070 134.148,234.657 133.732,233.709 133.460 C 232.856 133.215,232.316 132.735,232.057 131.991 C 231.796 131.244,231.225 130.738,230.295 130.431 C 229.537 130.181,228.732 129.577,228.505 129.088 C 228.278 128.600,227.397 127.848,226.546 127.419 C 225.696 126.989,224.501 126.119,223.891 125.484 C 223.281 124.850,222.157 124.158,221.394 123.947 C 220.397 123.672,219.934 123.275,219.749 122.539 C 219.584 121.884,219.015 121.315,218.170 120.962 C 217.443 120.658,216.612 119.918,216.324 119.317 C 215.979 118.598,215.301 118.084,214.340 117.813 C 213.537 117.586,212.533 117.085,212.109 116.700 C 211.684 116.315,211.154 116.000,210.930 116.000 C 210.707 116.000,210.253 116.315,209.923 116.700 M213.400 118.593 C 214.060 118.740,215.140 119.385,215.800 120.027 C 216.460 120.669,217.720 121.896,218.600 122.755 C 219.480 123.613,220.610 124.438,221.111 124.588 C 221.612 124.738,222.313 125.306,222.669 125.849 C 223.025 126.393,223.906 127.084,224.626 127.385 C 225.346 127.686,226.136 128.307,226.381 128.765 C 226.626 129.223,227.544 129.963,228.421 130.411 C 229.298 130.858,230.507 131.777,231.108 132.452 C 231.708 133.128,232.656 133.917,233.214 134.206 C 233.772 134.495,234.471 135.185,234.768 135.739 C 235.064 136.294,235.837 136.967,236.484 137.235 C 237.132 137.503,237.939 138.145,238.277 138.661 C 238.615 139.178,239.085 139.600,239.320 139.600 C 239.924 139.600,241.600 141.240,241.600 141.831 C 241.600 142.101,242.130 142.507,242.778 142.732 C 243.426 142.958,244.371 143.623,244.878 144.210 C 245.385 144.796,246.293 145.533,246.896 145.846 C 247.498 146.160,248.866 147.177,249.934 148.108 C 251.003 149.039,252.181 149.980,252.553 150.200 C 254.499 151.351,254.394 156.367,252.412 156.996 C 251.977 157.134,251.251 157.766,250.800 158.400 C 250.349 159.034,249.579 159.677,249.090 159.829 C 248.600 159.982,247.545 160.757,246.744 161.553 C 243.990 164.289,242.596 165.485,240.994 166.487 C 240.111 167.039,239.134 167.798,238.823 168.172 C 238.513 168.546,237.705 169.138,237.029 169.486 C 236.353 169.834,235.564 170.453,235.276 170.862 C 234.987 171.270,234.190 171.895,233.504 172.249 C 232.818 172.604,231.691 173.458,230.999 174.147 C 228.959 176.178,227.095 177.788,225.600 178.809 C 224.830 179.335,223.120 180.827,221.800 182.124 C 220.480 183.421,218.878 184.752,218.239 185.083 C 217.600 185.413,216.639 186.205,216.103 186.842 C 215.567 187.479,214.823 188.000,214.449 188.000 C 214.075 188.000,213.095 188.344,212.270 188.764 L 210.771 189.528 210.086 188.483 C 209.513 187.609,209.367 186.073,209.200 179.138 C 209.069 173.711,208.842 170.681,208.544 170.383 C 207.870 169.711,199.203 170.551,196.745 171.527 C 196.165 171.757,193.735 172.132,191.345 172.360 C 187.090 172.766,184.704 173.289,181.309 174.558 C 180.379 174.906,178.309 175.387,176.709 175.628 C 174.802 175.916,173.284 176.418,172.304 177.085 C 171.481 177.645,169.813 178.334,168.597 178.617 C 167.100 178.965,166.032 179.510,165.292 180.302 C 164.690 180.946,163.478 181.703,162.599 181.985 C 161.720 182.266,160.550 182.904,160.000 183.403 C 159.450 183.901,158.420 184.601,157.712 184.958 C 157.003 185.316,156.233 185.965,156.000 186.400 C 155.767 186.835,155.009 187.485,154.316 187.843 C 152.723 188.667,145.349 195.826,144.554 197.322 C 144.225 197.939,143.355 199.082,142.621 199.861 C 141.886 200.640,141.188 201.760,141.070 202.350 C 140.952 202.941,140.409 203.905,139.863 204.494 C 139.317 205.083,138.481 206.608,138.005 207.883 C 137.529 209.157,136.890 210.477,136.585 210.815 C 135.767 211.721,134.800 214.221,134.800 215.427 C 134.800 217.961,132.023 220.800,129.544 220.800 C 126.889 220.800,126.463 196.687,129.064 193.597 C 129.798 192.725,130.205 191.511,130.617 188.961 C 131.013 186.517,131.465 185.128,132.161 184.215 C 132.703 183.505,133.441 181.771,133.801 180.362 C 134.161 178.953,134.881 177.170,135.401 176.400 C 135.920 175.630,136.572 174.460,136.848 173.800 C 137.125 173.140,137.797 172.109,138.342 171.509 C 138.887 170.909,139.708 169.809,140.166 169.066 C 142.721 164.923,147.282 159.818,149.479 158.643 C 150.095 158.313,151.662 156.961,152.960 155.639 C 154.522 154.047,155.919 153.030,157.092 152.631 C 158.066 152.299,159.211 151.585,159.636 151.045 C 160.061 150.505,161.262 149.744,162.304 149.354 C 163.347 148.964,164.587 148.240,165.060 147.745 C 165.533 147.251,166.968 146.541,168.250 146.168 C 169.531 145.796,171.045 145.147,171.613 144.727 C 172.182 144.307,174.065 143.609,175.799 143.175 C 177.532 142.742,179.237 142.129,179.587 141.812 C 180.503 140.983,184.600 140.001,187.184 139.992 C 189.752 139.982,193.230 139.256,196.490 138.048 C 198.311 137.374,199.704 137.197,203.290 137.187 C 209.611 137.169,209.200 137.792,209.200 128.230 C 209.200 119.417,209.618 117.664,211.600 118.172 C 211.930 118.256,212.740 118.446,213.400 118.593 M271.000 177.972 C 268.941 178.848,267.600 181.450,267.600 184.569 C 267.600 185.844,267.345 186.377,266.260 187.372 C 265.234 188.312,264.851 189.059,264.627 190.558 C 264.406 192.029,264.008 192.825,263.024 193.758 C 262.053 194.679,261.642 195.489,261.434 196.889 C 261.210 198.404,260.941 198.880,260.079 199.294 C 259.487 199.577,258.732 200.349,258.402 201.009 C 257.369 203.070,245.871 214.277,244.475 214.583 C 243.800 214.732,242.652 215.381,241.924 216.025 C 240.760 217.056,238.609 217.991,237.389 217.998 C 237.163 217.999,236.379 218.548,235.646 219.217 C 234.861 219.934,233.512 220.619,232.364 220.884 C 231.219 221.148,229.942 221.796,229.270 222.454 C 228.226 223.474,227.727 223.611,223.671 223.993 C 218.937 224.440,217.483 224.823,216.200 225.965 C 215.404 226.673,205.794 227.618,199.526 227.605 C 198.275 227.602,196.790 227.776,196.226 227.990 C 194.942 228.478,195.121 229.552,194.829 219.600 C 194.569 210.712,194.336 209.488,192.816 209.005 C 191.829 208.692,190.529 209.365,190.216 210.350 C 190.060 210.841,189.456 211.185,188.472 211.342 C 187.561 211.488,186.533 212.035,185.870 212.727 C 185.267 213.357,183.999 214.258,183.053 214.731 C 182.107 215.203,181.131 216.033,180.884 216.576 C 180.637 217.118,179.900 217.838,179.246 218.176 C 178.592 218.515,177.947 219.136,177.813 219.558 C 177.679 219.980,176.878 220.602,176.032 220.941 C 174.945 221.375,174.369 221.915,174.068 222.778 C 173.794 223.562,173.369 224.000,172.883 224.000 C 171.992 224.000,170.800 225.194,170.800 226.087 C 170.800 226.477,170.302 226.804,169.470 226.960 C 168.739 227.098,167.617 227.756,166.978 228.423 C 166.339 229.090,165.050 230.018,164.113 230.486 C 163.177 230.954,162.304 231.671,162.175 232.079 C 162.045 232.488,161.283 233.132,160.480 233.511 C 159.678 233.890,158.814 234.617,158.561 235.126 C 158.308 235.635,157.498 236.355,156.762 236.726 C 155.963 237.128,155.332 237.798,155.197 238.387 C 155.033 239.100,154.616 239.446,153.691 239.635 C 152.447 239.889,149.925 241.879,148.100 244.047 C 147.029 245.319,147.023 245.366,147.832 246.175 C 148.179 246.522,148.674 247.654,148.932 248.690 C 149.333 250.304,149.583 250.625,150.679 250.938 C 151.544 251.185,152.083 251.661,152.343 252.409 C 152.604 253.156,153.175 253.662,154.105 253.969 C 154.863 254.219,155.668 254.823,155.895 255.312 C 156.122 255.800,157.003 256.560,157.854 257.000 C 158.704 257.440,160.633 259.015,162.141 260.499 C 163.751 262.085,165.401 263.332,166.141 263.522 C 166.922 263.723,167.599 264.257,167.924 264.928 C 168.212 265.523,169.053 266.262,169.792 266.571 C 170.531 266.880,171.331 267.498,171.571 267.945 C 171.810 268.392,172.529 269.067,173.169 269.445 C 173.808 269.823,174.525 270.556,174.761 271.074 C 174.997 271.592,175.633 272.184,176.174 272.390 C 176.715 272.596,177.877 273.414,178.756 274.208 C 179.635 275.002,180.976 275.824,181.736 276.033 C 182.723 276.306,183.190 276.705,183.372 277.433 C 183.528 278.052,184.101 278.649,184.838 278.959 C 185.504 279.239,186.389 280.028,186.805 280.712 C 187.334 281.581,187.982 282.035,188.955 282.218 C 189.721 282.362,190.657 282.821,191.036 283.240 C 193.522 285.987,194.563 283.045,194.800 272.600 L 195.000 263.800 201.400 263.562 C 208.226 263.308,210.661 262.858,211.756 261.648 C 212.319 261.027,213.265 260.845,217.120 260.618 C 222.974 260.272,224.704 259.848,225.263 258.622 C 225.626 257.825,226.092 257.641,228.345 257.400 C 231.195 257.095,232.577 256.551,233.725 255.283 C 234.128 254.838,235.231 254.366,236.214 254.219 C 237.363 254.046,238.541 253.485,239.589 252.609 C 240.475 251.869,241.756 251.141,242.437 250.992 C 243.259 250.811,243.943 250.264,244.477 249.360 C 245.040 248.406,245.569 248.000,246.252 248.000 C 247.656 248.000,249.851 246.996,250.327 246.137 C 250.551 245.732,251.425 245.039,252.267 244.598 C 253.259 244.079,253.847 243.468,253.932 242.866 C 254.019 242.250,254.473 241.793,255.275 241.514 C 256.060 241.240,256.680 240.629,257.036 239.775 C 257.390 238.927,257.910 238.411,258.492 238.329 C 259.065 238.247,259.690 237.638,260.198 236.667 C 260.639 235.825,261.316 234.960,261.703 234.746 C 262.089 234.532,262.765 233.652,263.205 232.790 C 263.645 231.928,264.527 230.689,265.165 230.036 C 265.804 229.383,266.454 228.265,266.610 227.552 C 266.767 226.840,267.486 225.700,268.207 225.019 C 269.287 224.001,269.572 223.367,269.812 221.446 C 270.033 219.673,270.394 218.779,271.311 217.734 C 272.341 216.562,272.584 215.843,272.960 212.867 C 273.327 209.956,273.583 209.179,274.500 208.192 C 276.072 206.500,276.180 205.502,276.191 192.600 C 276.202 178.039,275.499 176.057,271.000 177.972 M274.576 180.553 C 276.321 182.888,275.956 203.574,274.122 206.276 C 273.485 207.215,272.891 208.987,272.501 211.107 C 272.133 213.114,271.513 215.006,270.954 215.830 C 270.440 216.587,269.731 218.329,269.377 219.703 C 269.023 221.076,268.314 222.751,267.803 223.425 C 267.291 224.099,266.577 225.359,266.215 226.225 C 265.854 227.091,265.138 228.250,264.624 228.800 C 264.111 229.350,263.391 230.394,263.025 231.121 C 262.658 231.847,262.090 232.544,261.762 232.670 C 261.434 232.796,260.827 233.562,260.414 234.373 C 259.499 236.167,252.614 243.163,250.515 244.432 C 249.682 244.936,248.601 245.735,248.113 246.207 C 247.624 246.680,246.519 247.277,245.657 247.536 C 244.794 247.794,243.806 248.437,243.461 248.963 C 243.116 249.490,241.971 250.242,240.917 250.635 C 239.862 251.028,238.419 251.846,237.709 252.455 C 236.998 253.063,235.738 253.681,234.909 253.829 C 234.079 253.977,232.626 254.601,231.679 255.217 C 230.733 255.833,229.203 256.452,228.279 256.593 C 226.270 256.899,224.422 257.547,223.600 258.232 C 222.720 258.966,218.378 260.000,216.175 260.000 C 213.414 260.000,209.224 260.790,207.575 261.621 C 206.533 262.147,204.709 262.415,200.775 262.622 C 193.373 263.011,194.067 262.061,193.922 271.992 C 193.807 279.900,193.752 280.428,192.958 281.221 C 191.868 282.309,189.211 281.714,187.400 279.975 C 186.740 279.341,185.480 278.122,184.600 277.265 C 183.720 276.407,182.600 275.582,182.110 275.429 C 181.621 275.277,180.844 274.623,180.383 273.976 C 179.922 273.329,179.292 272.800,178.981 272.800 C 178.671 272.800,177.132 271.535,175.561 269.989 C 173.990 268.443,171.912 266.714,170.943 266.146 C 169.975 265.578,169.001 264.775,168.779 264.361 C 168.558 263.947,167.797 263.316,167.088 262.960 C 165.752 262.287,165.036 261.700,162.252 258.995 C 161.343 258.113,160.091 257.130,159.469 256.811 C 158.847 256.492,158.166 255.910,157.956 255.517 C 157.745 255.124,156.856 254.437,155.979 253.989 C 155.102 253.542,153.893 252.623,153.292 251.948 C 152.692 251.272,151.709 250.465,151.110 250.154 C 148.607 248.858,148.351 244.266,150.713 243.045 C 151.312 242.735,152.161 242.083,152.601 241.595 C 153.040 241.107,153.812 240.550,154.317 240.358 C 154.821 240.165,155.541 239.465,155.917 238.803 C 156.292 238.140,156.910 237.498,157.288 237.376 C 157.666 237.254,158.476 236.612,159.088 235.951 C 159.700 235.289,160.926 234.316,161.812 233.787 C 162.699 233.259,163.948 232.281,164.587 231.613 C 165.227 230.946,165.985 230.400,166.272 230.400 C 166.559 230.400,167.289 229.844,167.895 229.165 C 168.500 228.485,169.564 227.691,170.259 227.401 C 170.954 227.111,171.642 226.497,171.788 226.037 C 171.934 225.576,172.194 225.200,172.365 225.200 C 172.536 225.200,173.704 224.300,174.961 223.200 C 176.218 222.100,177.391 221.200,177.568 221.200 C 177.745 221.200,179.300 219.857,181.022 218.217 C 182.745 216.576,184.636 215.033,185.225 214.789 C 185.814 214.546,186.492 213.917,186.730 213.393 C 187.023 212.750,187.723 212.293,188.882 211.988 C 189.827 211.739,190.988 211.286,191.463 210.982 C 193.300 209.807,193.995 212.630,193.998 221.274 C 194.000 229.208,194.248 230.211,196.107 229.810 C 196.818 229.656,199.110 229.394,201.200 229.226 C 203.290 229.059,205.630 228.722,206.400 228.478 C 207.170 228.233,209.690 227.841,212.000 227.605 C 216.529 227.144,217.780 226.877,221.254 225.630 C 222.493 225.186,224.833 224.622,226.454 224.377 C 228.357 224.090,229.913 223.584,230.849 222.947 C 231.646 222.405,233.200 221.619,234.303 221.200 C 235.406 220.781,236.968 219.991,237.774 219.444 C 238.580 218.897,239.905 218.236,240.720 217.976 C 241.534 217.716,242.650 217.085,243.200 216.573 C 243.750 216.061,244.911 215.346,245.779 214.983 C 247.559 214.239,257.913 204.101,258.960 202.077 C 259.310 201.401,259.948 200.601,260.380 200.299 C 260.811 199.997,261.536 198.883,261.990 197.823 C 262.444 196.764,263.258 195.372,263.797 194.730 C 264.337 194.089,264.960 192.892,265.181 192.071 C 265.402 191.250,266.027 189.976,266.571 189.240 C 267.114 188.504,267.846 186.636,268.198 185.089 C 269.365 179.956,272.476 177.744,274.576 180.553 " stroke="none" fill="#b45ce4" fill-rule="evenodd"></path></g></svg>