<svg id="svg" version="1.1" xmlns="http://www.w3.org/2000/svg" xmlns:xlink="http://www.w3.org/1999/xlink" width="400" height="400" viewBox="0, 0, 400,400"><g id="svgg"><path id="path0" d="M283.800 33.600 C 283.664 33.820,282.573 34.000,281.376 34.000 C 280.179 34.000,279.200 34.180,279.200 34.400 C 279.200 34.620,278.570 34.800,277.800 34.800 C 277.030 34.800,276.400 34.980,276.400 35.200 C 276.400 35.420,275.860 35.600,275.200 35.600 C 274.540 35.600,274.000 35.780,274.000 36.000 C 274.000 36.220,273.460 36.400,272.800 36.400 C 272.140 36.400,271.600 36.580,271.600 36.800 C 271.600 37.020,271.240 37.200,270.800 37.200 C 270.360 37.200,270.000 37.380,270.000 37.600 C 270.000 37.820,269.640 38.000,269.200 38.000 C 268.760 38.000,268.400 38.180,268.400 38.400 C 268.400 38.620,268.040 38.800,267.600 38.800 C 267.160 38.800,266.800 38.980,266.800 39.200 C 266.800 39.420,266.440 39.600,266.000 39.600 C 265.560 39.600,265.200 39.780,265.200 40.000 C 265.200 40.220,264.930 40.400,264.600 40.400 C 264.270 40.400,264.000 40.580,264.000 40.800 C 264.000 41.020,263.730 41.200,263.400 41.200 C 263.070 41.200,262.800 41.380,262.800 41.600 C 262.800 41.820,262.586 42.000,262.325 42.000 C 261.163 42.000,252.000 50.259,252.000 51.307 C 252.000 51.488,251.564 52.072,251.031 52.605 C 250.498 53.138,249.946 53.940,249.804 54.387 C 249.662 54.834,249.378 55.200,249.173 55.200 C 248.968 55.200,248.800 55.436,248.800 55.725 C 248.800 56.013,248.440 56.636,248.000 57.108 C 247.560 57.580,247.200 58.229,247.200 58.550 C 247.200 58.871,247.065 59.193,246.900 59.267 C 246.377 59.499,244.379 63.906,243.575 66.600 C 243.313 67.480,242.933 68.630,242.732 69.156 C 242.531 69.681,242.262 71.571,242.134 73.356 C 241.885 76.820,241.482 77.538,239.100 78.768 C 238.495 79.080,238.000 79.485,238.000 79.668 C 238.000 79.850,237.640 80.000,237.200 80.000 C 236.760 80.000,236.400 80.180,236.400 80.400 C 236.400 80.620,236.164 80.800,235.875 80.800 C 235.587 80.800,234.964 81.160,234.492 81.600 C 234.020 82.040,233.396 82.400,233.105 82.400 C 232.814 82.400,232.317 82.760,232.000 83.200 C 231.683 83.640,231.193 84.000,230.912 84.000 C 230.630 84.000,230.400 84.180,230.400 84.400 C 230.400 84.620,230.170 84.800,229.888 84.800 C 229.607 84.800,229.117 85.160,228.800 85.600 C 228.483 86.040,228.055 86.400,227.849 86.400 C 227.644 86.400,226.769 87.120,225.907 88.000 C 225.044 88.880,224.179 89.600,223.984 89.600 C 223.272 89.600,213.520 99.040,212.002 101.200 C 211.460 101.970,210.653 102.996,210.209 103.481 C 208.717 105.106,208.400 105.563,208.400 106.095 C 208.400 106.386,208.040 106.883,207.600 107.200 C 207.160 107.517,206.800 107.967,206.800 108.200 C 206.800 108.433,206.440 108.883,206.000 109.200 C 205.560 109.517,205.200 110.007,205.200 110.288 C 205.200 110.570,205.020 110.800,204.800 110.800 C 204.580 110.800,204.400 111.070,204.400 111.400 C 204.400 111.730,204.220 112.000,204.000 112.000 C 203.780 112.000,203.600 112.236,203.600 112.525 C 203.600 112.813,203.240 113.436,202.800 113.908 C 202.360 114.380,202.000 115.044,202.000 115.383 C 202.000 115.722,201.820 116.000,201.600 116.000 C 201.380 116.000,201.200 116.236,201.200 116.525 C 201.200 116.813,200.840 117.436,200.400 117.908 C 199.960 118.380,199.600 119.044,199.600 119.383 C 199.600 119.722,199.420 120.000,199.200 120.000 C 198.980 120.000,198.800 120.360,198.800 120.800 C 198.800 121.240,198.620 121.600,198.400 121.600 C 198.180 121.600,198.000 121.960,198.000 122.400 C 198.000 122.840,197.820 123.200,197.600 123.200 C 197.380 123.200,197.200 123.560,197.200 124.000 C 197.200 124.440,197.020 124.800,196.800 124.800 C 196.580 124.800,196.400 125.149,196.400 125.576 C 196.400 126.003,196.244 126.449,196.054 126.567 C 195.863 126.685,195.790 127.211,195.890 127.738 C 195.991 128.267,195.447 130.371,194.673 132.447 C 191.880 139.931,190.036 147.552,188.781 156.800 C 188.033 162.307,188.690 184.000,189.604 184.000 C 189.784 184.000,191.020 183.442,192.352 182.761 C 195.550 181.124,197.146 180.714,201.100 180.511 C 204.295 180.347,204.407 180.307,204.640 179.271 C 206.304 171.880,211.162 159.856,214.476 154.928 C 215.094 154.008,215.600 153.091,215.600 152.890 C 215.600 152.689,215.960 152.198,216.400 151.800 C 216.840 151.402,217.200 150.913,217.200 150.715 C 217.200 150.516,217.783 149.599,218.496 148.677 C 219.209 147.754,219.842 146.922,219.903 146.827 C 219.963 146.731,220.212 146.852,220.454 147.094 C 220.857 147.497,221.089 148.299,221.812 151.800 C 221.949 152.460,222.202 153.360,222.375 153.800 C 222.548 154.240,222.918 155.320,223.198 156.200 C 226.629 166.978,235.095 174.498,245.477 175.987 C 249.446 176.557,328.438 176.549,332.671 175.978 C 345.687 174.225,353.842 164.505,357.587 146.284 C 358.134 143.620,358.802 144.089,362.868 150.000 C 368.303 157.902,372.372 166.506,374.784 175.200 C 375.059 176.190,375.445 177.413,375.642 177.919 C 375.839 178.424,376.000 179.189,376.000 179.619 C 376.000 180.327,376.292 180.400,379.134 180.400 C 382.534 180.400,385.909 181.295,388.984 183.012 C 391.118 184.203,391.600 184.242,391.600 183.224 C 391.600 182.797,391.780 182.336,392.000 182.200 C 392.227 182.060,392.400 180.070,392.400 177.600 C 392.400 175.130,392.573 173.140,392.800 173.000 C 393.029 172.859,393.200 170.804,393.200 168.200 C 393.200 165.596,393.029 163.541,392.800 163.400 C 392.573 163.260,392.400 161.263,392.400 158.776 C 392.400 156.125,392.242 154.400,392.000 154.400 C 391.780 154.400,391.599 153.545,391.598 152.500 C 391.595 150.696,391.197 148.001,390.341 144.000 C 390.129 143.010,389.856 141.615,389.734 140.900 C 389.612 140.185,389.352 139.600,389.156 139.600 C 388.960 139.600,388.797 139.195,388.794 138.700 C 388.787 137.724,387.918 134.985,387.474 134.541 C 387.323 134.390,387.200 133.847,387.200 133.333 C 387.200 132.820,387.020 132.400,386.800 132.400 C 386.580 132.400,386.400 132.038,386.400 131.595 C 386.400 130.817,386.258 130.431,385.262 128.505 C 385.008 128.013,384.800 127.338,384.800 127.005 C 384.800 126.672,384.620 126.400,384.400 126.400 C 384.180 126.400,384.000 126.040,384.000 125.600 C 384.000 125.160,383.820 124.800,383.600 124.800 C 383.380 124.800,383.200 124.440,383.200 124.000 C 383.200 123.560,383.020 123.200,382.800 123.200 C 382.580 123.200,382.400 122.840,382.400 122.400 C 382.400 121.960,382.220 121.600,382.000 121.600 C 381.780 121.600,381.600 121.240,381.600 120.800 C 381.600 120.360,381.420 120.000,381.200 120.000 C 380.980 120.000,380.800 119.640,380.800 119.200 C 380.800 118.760,380.620 118.400,380.400 118.400 C 380.180 118.400,380.000 118.164,380.000 117.875 C 380.000 117.587,379.640 116.964,379.200 116.492 C 378.760 116.020,378.400 115.356,378.400 115.017 C 378.400 114.678,378.220 114.400,378.000 114.400 C 377.780 114.400,377.600 114.164,377.600 113.875 C 377.600 113.587,377.285 113.002,376.900 112.575 C 376.515 112.149,375.945 111.305,375.632 110.700 C 375.320 110.095,374.915 109.600,374.732 109.600 C 374.550 109.600,374.397 109.375,374.394 109.100 C 374.390 108.825,373.850 107.991,373.194 107.246 C 372.537 106.501,372.000 105.744,372.000 105.564 C 372.000 105.384,371.591 104.823,371.091 104.318 C 370.592 103.813,369.739 102.770,369.198 102.000 C 367.907 100.165,357.161 89.600,356.585 89.600 C 356.484 89.600,355.659 88.880,354.752 88.000 C 353.845 87.120,352.944 86.400,352.748 86.400 C 352.553 86.400,351.828 85.860,351.137 85.200 C 350.446 84.540,349.678 84.000,349.429 84.000 C 349.180 84.000,348.717 83.640,348.400 83.200 C 348.083 82.760,347.503 82.400,347.112 82.400 C 346.720 82.400,346.400 82.250,346.400 82.068 C 346.400 81.885,345.905 81.480,345.300 81.168 C 344.695 80.856,344.110 80.511,344.000 80.401 C 343.629 80.028,341.405 78.752,340.769 78.547 C 339.682 78.195,338.800 76.186,338.800 74.062 C 338.800 72.954,338.620 71.936,338.400 71.800 C 338.180 71.664,338.000 70.944,338.000 70.200 C 338.000 69.456,337.820 68.736,337.600 68.600 C 337.380 68.464,337.200 67.823,337.200 67.176 C 337.200 66.529,337.020 66.000,336.800 66.000 C 336.580 66.000,336.400 65.561,336.400 65.024 C 336.400 64.487,336.220 63.936,336.000 63.800 C 335.780 63.664,335.600 63.203,335.600 62.776 C 335.600 62.349,335.465 61.999,335.300 61.999 C 335.135 61.998,334.550 61.008,334.000 59.800 C 333.450 58.592,332.865 57.602,332.700 57.601 C 332.535 57.601,332.400 57.280,332.400 56.888 C 332.400 56.497,332.040 55.917,331.600 55.600 C 331.160 55.283,330.800 54.775,330.800 54.472 C 330.800 54.169,330.260 53.417,329.600 52.800 C 328.940 52.183,328.400 51.474,328.400 51.222 C 328.400 50.264,320.284 42.848,317.900 41.628 C 317.295 41.318,316.800 40.915,316.800 40.732 C 316.800 40.550,316.440 40.400,316.000 40.400 C 315.560 40.400,315.199 40.265,315.197 40.100 C 315.193 39.741,313.256 38.800,312.520 38.800 C 312.234 38.800,312.000 38.620,312.000 38.400 C 312.000 38.180,311.640 38.000,311.200 38.000 C 310.760 38.000,310.400 37.820,310.400 37.600 C 310.400 37.380,310.040 37.200,309.600 37.200 C 309.160 37.200,308.800 37.020,308.800 36.800 C 308.800 36.580,308.350 36.400,307.800 36.400 C 307.250 36.400,306.800 36.220,306.800 36.000 C 306.800 35.780,306.260 35.600,305.600 35.600 C 304.940 35.600,304.400 35.420,304.400 35.200 C 304.400 34.980,303.680 34.800,302.800 34.800 C 301.920 34.800,301.200 34.620,301.200 34.400 C 301.200 34.180,300.221 34.000,299.024 34.000 C 297.827 34.000,296.736 33.820,296.600 33.600 C 296.453 33.361,293.870 33.200,290.200 33.200 C 286.530 33.200,283.947 33.361,283.800 33.600 M332.908 192.822 C 323.451 194.688,316.849 207.293,322.835 212.054 C 324.186 213.129,324.976 213.330,327.500 213.244 C 329.163 213.188,332.000 210.503,332.000 208.987 C 332.000 205.957,334.478 203.650,336.846 204.476 C 338.186 204.943,339.200 206.396,339.200 207.851 C 339.200 213.360,347.147 215.346,349.980 210.544 C 354.657 202.617,343.254 190.780,332.908 192.822 M63.800 194.165 C 60.441 195.658,58.742 203.254,60.418 209.288 C 62.046 215.152,69.623 215.392,71.546 209.640 C 72.134 207.878,72.134 199.719,71.545 197.960 C 70.385 194.496,66.898 192.788,63.800 194.165 M152.183 194.352 C 149.264 195.678,149.000 196.472,149.000 203.929 L 149.000 210.457 150.656 212.002 C 153.641 214.787,157.816 214.232,159.653 210.806 C 160.741 208.777,160.753 198.862,159.670 196.794 C 158.274 194.126,155.019 193.064,152.183 194.352 M244.180 194.563 C 239.205 196.730,238.771 210.276,243.594 212.855 C 248.717 215.594,252.400 211.973,252.400 204.197 C 252.400 196.041,249.253 192.353,244.180 194.563 M96.201 202.630 C 89.136 206.314,94.271 215.422,104.985 218.213 C 117.597 221.498,133.214 210.681,125.904 203.724 C 123.478 201.415,120.351 201.527,117.544 204.024 C 112.889 208.167,107.738 208.253,103.321 204.262 C 100.763 201.950,98.499 201.432,96.201 202.630 M277.017 202.292 C 271.911 203.589,271.632 209.588,276.486 213.710 C 284.675 220.662,296.506 220.562,304.261 213.475 C 311.763 206.618,304.773 197.828,297.027 204.378 C 292.491 208.212,288.064 208.203,283.493 204.349 C 281.063 202.300,279.251 201.724,277.017 202.292 M388.200 221.537 C 385.002 223.245,383.344 223.678,378.973 223.949 C 376.713 224.089,374.801 224.292,374.724 224.402 C 374.647 224.511,373.961 226.490,373.198 228.800 C 370.122 238.116,362.016 251.895,356.010 258.014 C 355.895 258.132,354.305 259.766,352.477 261.646 L 349.155 265.062 351.115 267.031 C 358.909 274.857,361.646 286.702,357.948 296.600 C 357.537 297.700,357.200 298.738,357.200 298.908 C 357.200 299.560,359.451 298.611,360.460 297.533 C 361.044 296.910,361.730 296.400,361.986 296.400 C 362.242 296.400,363.295 295.545,364.326 294.500 C 365.357 293.455,367.010 291.984,368.000 291.232 C 368.990 290.479,370.790 288.705,372.000 287.291 C 373.210 285.876,374.785 284.113,375.500 283.373 C 376.215 282.632,376.800 281.841,376.800 281.613 C 376.800 281.386,376.980 281.200,377.200 281.200 C 377.420 281.200,377.600 280.970,377.600 280.688 C 377.600 280.407,377.960 279.917,378.400 279.600 C 378.840 279.283,379.200 278.785,379.200 278.494 C 379.200 278.202,379.636 277.528,380.169 276.995 C 380.702 276.462,381.254 275.660,381.396 275.213 C 381.538 274.766,381.822 274.400,382.027 274.400 C 382.232 274.400,382.400 274.145,382.400 273.833 C 382.400 273.522,382.535 273.207,382.700 273.133 C 383.110 272.951,384.119 271.168,385.831 267.600 C 386.623 265.950,387.435 264.287,387.635 263.905 C 387.836 263.523,388.000 262.938,388.000 262.605 C 388.000 262.272,388.180 262.000,388.400 262.000 C 388.620 262.000,388.800 261.460,388.800 260.800 C 388.800 260.140,388.980 259.600,389.200 259.600 C 389.420 259.600,389.600 259.238,389.600 258.795 C 389.600 258.352,389.772 257.677,389.982 257.295 C 390.605 256.159,391.600 251.476,391.600 249.674 C 391.600 248.753,391.780 248.000,392.000 248.000 C 392.238 248.000,392.400 246.475,392.400 244.224 C 392.400 242.137,392.579 240.337,392.800 240.200 C 393.020 240.064,393.200 238.354,393.200 236.400 C 393.200 234.446,393.020 232.736,392.800 232.600 C 392.580 232.464,392.400 230.844,392.400 229.000 C 392.400 227.156,392.220 225.536,392.000 225.400 C 391.780 225.264,391.600 224.299,391.600 223.256 C 391.600 220.233,391.108 219.985,388.200 221.537 M189.871 222.300 C 188.682 229.896,188.424 232.468,188.413 236.830 C 188.381 249.277,192.608 264.001,198.794 272.992 C 199.457 273.956,200.000 274.854,200.000 274.988 C 200.000 277.740,220.569 298.400,223.308 298.400 C 223.659 298.400,225.287 296.825,226.927 294.900 C 232.040 288.897,238.649 283.119,245.887 278.327 L 247.974 276.945 245.087 275.219 C 236.540 270.109,227.785 262.398,221.275 254.245 C 218.849 251.207,215.600 246.596,215.600 246.190 C 215.600 246.055,215.093 245.192,214.473 244.272 C 213.173 242.344,208.400 232.738,208.400 232.050 C 208.400 231.797,208.221 231.277,208.003 230.895 C 207.784 230.513,207.164 228.850,206.626 227.200 L 205.646 224.200 201.523 223.936 C 197.513 223.679,193.750 222.674,191.811 221.342 C 190.557 220.480,190.122 220.695,189.871 222.300 " stroke="none" fill="#627484" fill-rule="evenodd"></path><path id="path1" d="M65.800 64.800 C 65.664 65.020,64.843 65.200,63.976 65.200 C 63.109 65.200,62.400 65.380,62.400 65.600 C 62.400 65.820,61.950 66.000,61.400 66.000 C 60.850 66.000,60.400 66.180,60.400 66.400 C 60.400 66.620,60.130 66.800,59.800 66.800 C 59.470 66.800,59.200 66.980,59.200 67.200 C 59.200 67.420,58.916 67.600,58.569 67.600 C 57.803 67.600,52.800 72.670,52.800 73.446 C 52.800 73.751,52.654 74.000,52.475 74.000 C 52.296 74.000,51.902 74.630,51.600 75.400 C 51.298 76.170,50.904 76.800,50.725 76.800 C 50.546 76.800,50.400 77.160,50.400 77.600 C 50.400 78.040,50.220 78.400,50.000 78.400 C 49.780 78.400,49.600 78.940,49.600 79.600 C 49.600 80.260,49.420 80.800,49.200 80.800 C 48.980 80.800,48.800 81.599,48.800 82.576 C 48.800 83.553,48.620 84.464,48.400 84.600 C 48.180 84.736,48.000 86.097,48.000 87.624 C 48.000 90.133,47.923 90.400,47.200 90.400 C 46.760 90.400,46.400 90.220,46.400 90.000 C 46.400 89.780,46.040 89.600,45.600 89.600 C 45.160 89.600,44.800 89.420,44.800 89.200 C 44.800 88.980,44.260 88.800,43.600 88.800 C 42.940 88.800,42.400 88.620,42.400 88.400 C 42.400 88.180,41.680 88.000,40.800 88.000 C 39.920 88.000,39.200 87.820,39.200 87.600 C 39.200 87.361,37.667 87.200,35.400 87.200 C 33.133 87.200,31.600 87.361,31.600 87.600 C 31.600 87.820,30.880 88.000,30.000 88.000 C 29.120 88.000,28.400 88.180,28.400 88.400 C 28.400 88.620,27.950 88.800,27.400 88.800 C 26.850 88.800,26.400 88.950,26.400 89.132 C 26.400 89.315,25.912 89.720,25.315 90.032 C 24.023 90.708,20.800 93.606,20.800 94.092 C 20.800 94.280,20.440 94.820,20.000 95.292 C 19.560 95.764,19.200 96.567,19.200 97.075 C 19.200 97.584,19.020 98.000,18.800 98.000 C 18.580 98.000,18.400 98.529,18.400 99.176 C 18.400 99.823,18.220 100.464,18.000 100.600 C 17.467 100.929,17.467 109.600,18.000 109.600 C 18.220 109.600,18.400 110.320,18.400 111.200 C 18.400 112.080,18.580 112.800,18.800 112.800 C 19.020 112.800,19.200 113.160,19.200 113.600 C 19.200 114.040,19.380 114.400,19.600 114.400 C 19.820 114.400,20.000 114.850,20.000 115.400 C 20.000 115.950,20.146 116.400,20.325 116.400 C 20.504 116.400,20.898 117.030,21.200 117.800 C 21.502 118.570,21.896 119.200,22.075 119.200 C 22.254 119.200,22.400 119.378,22.400 119.595 C 22.400 119.964,22.645 120.302,24.500 122.495 C 24.885 122.950,25.200 123.403,25.200 123.501 C 25.200 124.032,23.856 126.400,23.554 126.400 C 23.359 126.400,23.200 126.670,23.200 127.000 C 23.200 127.330,23.020 127.600,22.800 127.600 C 22.580 127.600,22.400 127.960,22.400 128.400 C 22.400 128.840,22.220 129.200,22.000 129.200 C 21.780 129.200,21.600 129.560,21.600 130.000 C 21.600 130.440,21.420 130.800,21.200 130.800 C 20.980 130.800,20.800 131.160,20.800 131.600 C 20.800 132.040,20.620 132.400,20.400 132.400 C 20.180 132.400,20.000 132.760,20.000 133.200 C 20.000 133.640,19.820 134.000,19.600 134.000 C 19.380 134.000,19.200 134.360,19.200 134.800 C 19.200 135.240,19.020 135.600,18.800 135.600 C 18.580 135.600,18.400 135.960,18.400 136.400 C 18.400 136.840,18.220 137.200,18.000 137.200 C 17.780 137.200,17.600 137.560,17.600 138.000 C 17.600 138.440,17.420 138.800,17.200 138.800 C 16.980 138.800,16.800 139.340,16.800 140.000 C 16.800 140.660,16.620 141.200,16.400 141.200 C 16.180 141.200,16.000 141.446,16.000 141.747 C 16.000 142.298,14.639 146.007,13.964 147.295 C 13.764 147.677,13.600 148.532,13.600 149.195 C 13.600 149.858,13.440 150.400,13.244 150.400 C 12.894 150.400,12.580 151.737,12.141 155.100 C 12.019 156.035,11.774 156.800,11.597 156.800 C 11.419 156.800,11.175 157.745,11.054 158.900 C 10.932 160.055,10.625 162.260,10.371 163.800 C 9.630 168.294,9.438 186.363,10.129 186.628 C 10.435 186.746,11.704 186.376,12.949 185.806 C 15.575 184.605,17.526 184.200,25.400 183.221 C 61.012 178.792,92.876 158.343,106.301 131.300 C 108.495 126.881,108.425 126.899,110.047 130.300 C 114.550 139.745,123.300 150.680,132.000 157.737 C 133.650 159.076,135.090 160.276,135.200 160.405 C 135.310 160.533,136.030 161.071,136.800 161.600 C 137.570 162.129,138.290 162.676,138.400 162.817 C 138.669 163.159,143.548 166.307,146.949 168.333 C 151.125 170.819,162.657 176.400,163.617 176.400 C 163.834 176.400,164.323 176.571,164.705 176.781 C 166.445 177.735,176.683 180.700,181.200 181.558 C 190.047 183.238,189.514 183.356,188.869 179.852 C 188.277 176.641,188.250 160.226,188.830 156.307 C 190.261 146.638,191.947 139.751,194.665 132.466 C 196.006 128.875,196.267 125.600,195.213 125.600 C 195.039 125.600,194.673 125.060,194.400 124.400 C 194.127 123.740,193.745 123.200,193.551 123.200 C 193.358 123.200,193.200 122.924,193.200 122.586 C 193.200 122.248,192.834 121.573,192.386 121.086 C 191.939 120.599,190.870 119.136,190.012 117.835 C 187.736 114.385,179.601 105.608,175.892 102.600 C 173.159 100.383,171.408 98.914,170.532 98.100 C 170.000 97.605,169.426 97.200,169.257 97.200 C 169.089 97.200,168.602 96.878,168.175 96.483 C 167.066 95.458,164.068 93.503,162.200 92.585 C 161.320 92.153,160.540 91.665,160.467 91.500 C 160.393 91.335,160.054 91.200,159.714 91.200 C 159.373 91.200,158.803 90.885,158.447 90.500 C 158.091 90.115,157.530 89.741,157.200 89.670 C 156.870 89.598,156.540 89.373,156.467 89.170 C 156.393 88.966,155.988 88.800,155.567 88.800 C 155.145 88.800,154.799 88.665,154.797 88.500 C 154.793 88.094,152.814 87.200,151.920 87.200 C 151.524 87.200,151.200 87.020,151.200 86.800 C 151.200 86.580,150.840 86.400,150.400 86.400 C 149.960 86.400,149.600 86.220,149.600 86.000 C 149.600 85.780,149.251 85.600,148.824 85.600 C 148.397 85.600,147.936 85.420,147.800 85.200 C 147.664 84.980,147.113 84.800,146.576 84.800 C 146.039 84.800,145.600 84.620,145.600 84.400 C 145.600 84.180,145.240 84.000,144.800 84.000 C 144.360 84.000,144.000 83.820,144.000 83.600 C 144.000 83.380,143.460 83.200,142.800 83.200 C 142.140 83.200,141.600 83.020,141.600 82.800 C 141.600 82.580,141.071 82.400,140.424 82.400 C 139.777 82.400,139.136 82.220,139.000 82.000 C 138.864 81.780,138.234 81.600,137.600 81.600 C 136.966 81.600,136.336 81.420,136.200 81.200 C 136.064 80.980,135.344 80.800,134.600 80.800 C 133.856 80.800,133.148 80.639,133.026 80.442 C 132.811 80.094,131.294 79.794,127.600 79.366 C 126.610 79.252,125.440 78.994,125.000 78.793 C 123.303 78.017,102.768 77.285,101.436 77.952 C 100.976 78.182,99.340 78.456,97.800 78.559 C 96.260 78.663,93.830 78.946,92.400 79.189 C 86.435 80.200,86.400 80.199,86.400 79.040 C 86.400 78.468,86.220 78.000,86.000 78.000 C 85.780 78.000,85.600 77.728,85.600 77.395 C 85.600 76.623,84.801 75.196,83.900 74.357 C 83.515 73.999,83.200 73.499,83.200 73.246 C 83.200 72.560,78.111 67.600,77.407 67.600 C 77.073 67.600,76.800 67.452,76.800 67.271 C 76.800 66.770,73.083 65.200,71.896 65.200 C 71.319 65.200,70.736 65.020,70.600 64.800 C 70.464 64.580,69.384 64.400,68.200 64.400 C 67.016 64.400,65.936 64.580,65.800 64.800 M8.400 225.485 C 8.400 226.648,8.220 227.600,8.000 227.600 C 7.746 227.600,7.600 230.600,7.600 235.800 C 7.600 240.310,7.753 244.000,7.941 244.000 C 8.128 244.000,8.399 245.485,8.543 247.300 C 8.687 249.115,9.062 251.500,9.376 252.600 C 10.330 255.935,12.181 260.992,12.500 261.133 C 12.665 261.207,12.800 261.612,12.800 262.033 C 12.800 262.455,12.935 262.801,13.100 262.803 C 13.459 262.807,14.400 264.744,14.400 265.480 C 14.400 265.766,14.580 266.000,14.800 266.000 C 15.020 266.000,15.200 266.278,15.200 266.617 C 15.200 266.956,15.560 267.620,16.000 268.092 C 16.440 268.564,16.800 269.187,16.800 269.475 C 16.800 269.764,16.980 270.000,17.200 270.000 C 17.420 270.000,17.600 270.225,17.601 270.500 C 17.601 270.775,18.141 271.630,18.800 272.400 C 20.338 274.197,20.311 274.477,18.500 275.503 C 15.741 277.066,8.800 283.401,8.800 284.356 C 8.800 284.580,8.350 285.214,7.800 285.764 C 7.250 286.314,6.800 287.002,6.800 287.294 C 6.800 287.585,6.440 288.083,6.000 288.400 C 5.560 288.717,5.200 289.297,5.200 289.688 C 5.200 290.080,5.020 290.400,4.800 290.400 C 4.580 290.400,4.400 290.760,4.400 291.200 C 4.400 291.640,4.265 292.001,4.100 292.003 C 3.741 292.007,2.800 293.944,2.800 294.680 C 2.800 294.966,2.620 295.200,2.400 295.200 C 2.180 295.200,2.000 295.740,2.000 296.400 C 2.000 297.060,1.820 297.600,1.600 297.600 C 1.380 297.600,1.200 298.104,1.200 298.720 C 1.200 299.336,0.975 300.065,0.700 300.340 C 0.324 300.716,0.200 303.565,0.200 311.800 C 0.200 320.035,0.324 322.884,0.700 323.260 C 0.975 323.535,1.200 324.264,1.200 324.880 C 1.200 325.496,1.380 326.000,1.600 326.000 C 1.820 326.000,2.000 326.540,2.000 327.200 C 2.000 327.860,2.180 328.400,2.400 328.400 C 2.620 328.400,2.800 328.760,2.800 329.200 C 2.800 329.640,2.980 330.000,3.200 330.000 C 3.420 330.000,3.600 330.360,3.600 330.800 C 3.600 331.240,3.780 331.600,4.000 331.600 C 4.220 331.600,4.400 331.960,4.400 332.400 C 4.400 332.840,4.580 333.200,4.800 333.200 C 5.020 333.200,5.200 333.560,5.200 334.000 C 5.200 334.440,5.380 334.800,5.600 334.800 C 5.820 334.800,6.000 335.081,6.000 335.424 C 6.000 335.767,6.180 335.936,6.400 335.800 C 6.620 335.664,6.800 335.884,6.800 336.288 C 6.800 336.693,7.160 337.283,7.600 337.600 C 8.040 337.917,8.400 338.381,8.400 338.630 C 8.400 339.231,14.605 345.600,15.191 345.600 C 15.442 345.600,15.536 345.780,15.400 346.000 C 15.264 346.220,15.457 346.400,15.829 346.400 C 16.202 346.400,16.797 346.716,17.153 347.103 C 17.509 347.489,18.295 348.060,18.900 348.370 C 19.505 348.681,20.000 349.085,20.000 349.268 C 20.000 350.476,21.588 349.442,21.793 348.100 C 22.726 342.002,25.363 331.475,26.778 328.200 C 26.968 327.760,27.717 325.870,28.443 324.000 C 34.852 307.476,47.056 291.403,60.946 281.194 C 65.744 277.668,65.886 277.540,65.266 277.309 C 60.033 275.362,46.529 263.910,40.139 256.000 C 35.157 249.834,26.800 235.497,26.800 233.118 C 26.800 232.811,26.648 232.389,26.463 232.180 C 26.277 231.971,25.810 230.764,25.425 229.498 C 24.631 226.891,24.808 226.979,19.603 226.607 C 17.734 226.474,16.033 226.193,15.823 225.983 C 15.612 225.772,15.133 225.600,14.758 225.600 C 14.065 225.600,10.776 224.033,10.388 223.518 C 9.511 222.355,8.400 223.455,8.400 225.485 M246.090 278.195 C 245.384 278.678,244.925 279.192,245.070 279.337 C 245.215 279.482,244.943 279.600,244.467 279.600 C 243.990 279.600,243.600 279.780,243.600 280.000 C 243.600 280.220,243.375 280.401,243.100 280.402 C 242.825 280.403,242.025 280.943,241.322 281.602 C 240.619 282.261,239.899 282.803,239.722 282.806 C 239.545 282.810,238.464 283.665,237.320 284.706 C 236.176 285.748,234.785 286.938,234.228 287.350 C 233.671 287.763,233.312 288.258,233.431 288.450 C 233.550 288.643,233.337 288.800,232.957 288.800 C 232.577 288.800,232.386 288.919,232.531 289.064 C 232.676 289.210,232.391 289.539,231.898 289.797 C 231.404 290.055,231.049 290.489,231.110 290.762 C 231.170 291.036,231.059 291.160,230.863 291.039 C 230.391 290.747,229.112 292.179,229.499 292.566 C 229.665 292.731,229.558 292.807,229.263 292.733 C 228.967 292.660,228.517 292.940,228.263 293.355 C 228.008 293.770,226.955 295.018,225.923 296.129 C 224.890 297.240,224.148 298.316,224.274 298.520 C 224.400 298.723,224.344 299.004,224.151 299.145 C 223.958 299.285,223.620 299.700,223.400 300.066 C 222.298 301.900,218.162 307.817,217.900 307.933 C 217.735 308.007,217.600 308.412,217.600 308.833 C 217.600 309.255,217.455 309.600,217.279 309.600 C 217.102 309.600,216.517 310.497,215.979 311.594 C 215.440 312.690,214.865 313.590,214.700 313.594 C 214.535 313.597,214.400 313.960,214.400 314.400 C 214.400 314.840,214.265 315.201,214.100 315.203 C 213.741 315.207,212.800 317.144,212.800 317.880 C 212.800 318.166,212.620 318.400,212.400 318.400 C 212.180 318.400,212.000 318.665,212.000 318.988 C 212.000 319.311,211.640 320.217,211.200 321.000 C 210.760 321.783,210.400 322.689,210.400 323.012 C 210.400 323.335,210.220 323.600,210.000 323.600 C 209.780 323.600,209.600 323.949,209.600 324.376 C 209.600 324.803,209.420 325.264,209.200 325.400 C 208.980 325.536,208.800 326.087,208.800 326.624 C 208.800 327.161,208.620 327.600,208.400 327.600 C 208.180 327.600,208.000 328.039,208.000 328.576 C 208.000 329.113,207.840 329.652,207.644 329.773 C 207.449 329.894,207.197 330.579,207.086 331.296 C 206.975 332.013,206.339 334.670,205.674 337.200 C 203.709 344.675,203.471 346.026,203.487 349.659 C 203.515 356.008,206.770 361.758,211.501 363.815 C 212.325 364.174,213.360 364.677,213.800 364.934 C 215.192 365.745,249.095 365.837,248.423 365.027 C 248.136 364.682,247.732 364.400,247.524 364.400 C 247.317 364.400,246.484 363.772,245.673 363.003 C 244.863 362.235,244.065 361.605,243.900 361.603 C 243.735 361.602,243.600 361.370,243.600 361.088 C 243.600 360.807,243.240 360.317,242.800 360.000 C 242.360 359.683,242.000 359.103,242.000 358.712 C 242.000 358.320,241.820 358.000,241.600 358.000 C 241.380 358.000,241.200 357.651,241.200 357.224 C 241.200 356.797,241.020 356.336,240.800 356.200 C 240.580 356.064,240.400 355.549,240.400 355.056 C 240.400 354.563,240.208 353.968,239.973 353.733 C 239.448 353.208,239.713 345.954,240.373 342.800 C 240.626 341.590,240.936 340.013,241.061 339.296 C 241.186 338.579,241.449 337.894,241.644 337.773 C 241.840 337.652,242.000 337.021,242.000 336.371 C 242.000 335.721,242.162 334.877,242.359 334.495 C 242.556 334.113,243.129 332.450,243.631 330.800 C 244.133 329.150,244.692 327.629,244.872 327.420 C 245.052 327.211,245.200 326.662,245.200 326.200 C 245.200 325.738,245.352 325.189,245.538 324.980 C 245.723 324.771,246.300 323.520,246.819 322.200 C 247.930 319.374,251.040 313.122,252.893 309.989 C 254.339 307.543,259.185 300.315,259.589 300.000 C 259.731 299.890,260.115 299.406,260.444 298.924 C 261.057 298.025,264.671 293.764,265.416 293.060 C 265.671 292.820,265.767 291.191,265.664 288.840 C 265.485 284.758,265.133 284.039,263.300 284.013 C 262.805 284.006,262.400 283.820,262.400 283.600 C 262.400 283.380,261.961 283.200,261.424 283.200 C 260.887 283.200,260.336 283.020,260.200 282.800 C 260.064 282.580,259.620 282.400,259.214 282.400 C 258.808 282.400,257.694 282.016,256.738 281.547 C 252.493 279.462,251.893 279.200,251.362 279.200 C 251.053 279.200,250.800 279.041,250.800 278.847 C 250.800 278.652,250.485 278.381,250.100 278.243 C 247.507 277.315,247.375 277.314,246.090 278.195 " stroke="none" fill="#eaae82" fill-rule="evenodd"></path><path id="path2" d="M106.301 131.300 C 93.865 156.351,63.099 177.379,31.600 182.358 C 30.170 182.584,26.750 183.067,24.000 183.430 C 17.850 184.243,14.258 185.069,12.450 186.084 C 11.691 186.511,10.717 186.767,10.286 186.654 C 9.130 186.352,3.600 190.779,3.600 192.006 C 3.600 192.241,3.240 192.820,2.800 193.292 C 2.360 193.764,2.000 194.387,2.000 194.675 C 2.000 194.964,1.820 195.200,1.600 195.200 C 1.380 195.200,1.200 195.545,1.200 195.967 C 1.200 196.388,0.975 196.808,0.700 196.900 C 0.322 197.026,0.200 199.049,0.200 205.200 C 0.200 211.351,0.322 213.374,0.700 213.500 C 0.975 213.592,1.204 213.967,1.209 214.333 C 1.214 214.700,1.570 215.450,2.000 216.000 C 2.430 216.550,2.786 217.243,2.791 217.540 C 2.796 217.836,3.359 218.601,4.042 219.240 C 4.726 219.878,5.131 220.400,4.942 220.400 C 4.754 220.400,5.308 221.030,6.173 221.800 C 7.206 222.720,8.145 223.200,8.911 223.200 C 9.552 223.200,10.554 223.536,11.138 223.946 C 11.722 224.356,12.920 224.933,13.800 225.229 C 14.680 225.525,15.580 225.891,15.800 226.043 C 16.020 226.195,17.820 226.441,19.800 226.591 C 24.737 226.964,24.638 226.913,25.431 229.517 C 25.813 230.773,26.277 231.971,26.463 232.180 C 26.648 232.389,26.800 232.811,26.800 233.118 C 26.800 233.425,27.949 236.044,29.353 238.938 C 39.912 260.699,58.243 276.638,81.696 284.451 C 84.709 285.455,84.484 285.043,85.055 290.600 C 85.213 292.140,85.370 293.490,85.404 293.600 C 85.438 293.710,85.616 294.340,85.801 295.000 C 87.051 299.466,92.141 305.491,96.711 307.914 C 111.989 316.012,130.626 306.436,132.190 289.685 C 132.610 285.191,132.501 285.363,135.499 284.421 C 136.984 283.955,138.605 283.399,139.100 283.186 C 139.595 282.974,140.405 282.647,140.900 282.460 C 159.454 275.444,176.915 259.502,186.750 240.600 C 187.842 238.500,187.999 237.800,188.002 235.000 C 188.008 230.461,189.401 220.865,190.165 220.102 C 190.294 219.972,191.505 220.437,192.856 221.133 C 194.207 221.830,195.636 222.400,196.033 222.400 C 196.429 222.400,196.864 222.580,197.000 222.800 C 197.138 223.024,199.014 223.200,201.252 223.200 C 205.499 223.200,206.400 223.541,206.400 225.148 C 206.400 225.591,206.580 226.064,206.800 226.200 C 207.020 226.336,207.200 226.876,207.200 227.400 C 207.200 227.924,207.380 228.464,207.600 228.600 C 207.820 228.736,208.000 229.199,208.000 229.629 C 208.000 230.059,208.160 230.723,208.356 231.105 C 208.552 231.487,209.070 232.610,209.506 233.600 C 212.347 240.038,218.183 250.263,220.010 252.000 C 220.126 252.110,220.841 253.010,221.599 254.000 C 225.629 259.264,235.567 268.662,239.700 271.119 C 240.305 271.478,240.800 271.914,240.800 272.086 C 240.800 272.259,241.036 272.400,241.325 272.400 C 241.613 272.400,242.207 272.715,242.645 273.100 C 243.416 273.778,243.778 274.007,246.655 275.638 C 247.395 276.057,248.605 276.743,249.345 277.162 C 251.573 278.425,252.092 278.687,254.800 279.919 C 256.230 280.569,258.120 281.341,259.000 281.634 C 259.880 281.927,260.780 282.281,261.000 282.421 C 261.220 282.561,262.300 282.912,263.400 283.200 C 266.226 283.941,266.399 284.156,266.408 286.949 C 266.442 297.527,272.342 305.989,282.200 309.600 C 285.380 310.765,292.096 311.222,294.640 310.447 C 295.278 310.252,296.610 309.856,297.600 309.565 C 300.473 308.722,304.445 306.312,306.370 304.242 C 307.311 303.231,308.400 302.852,308.400 303.537 C 308.400 304.143,313.357 309.069,315.200 310.294 C 326.701 317.939,340.907 316.835,350.605 307.543 C 353.811 304.471,356.800 300.151,356.800 298.589 C 356.800 298.133,356.949 297.589,357.130 297.380 C 357.468 296.991,357.977 295.277,358.759 291.894 C 359.322 289.461,359.325 284.958,358.765 282.506 C 357.918 278.791,357.630 277.905,356.241 274.740 C 355.433 272.899,352.563 269.084,350.432 267.019 C 348.387 265.037,348.312 265.377,351.502 262.141 C 362.522 250.964,369.377 239.776,373.828 225.700 C 374.193 224.545,374.606 223.594,374.746 223.587 C 374.886 223.579,376.723 223.512,378.830 223.437 C 382.796 223.297,386.239 222.376,389.092 220.693 C 390.229 220.022,390.537 219.974,390.816 220.425 C 391.085 220.862,391.323 220.780,391.977 220.026 C 392.430 219.504,392.800 219.199,392.800 219.348 C 392.800 219.497,393.430 219.046,394.200 218.345 C 394.970 217.645,395.600 216.870,395.600 216.624 C 395.600 216.378,395.960 215.917,396.400 215.600 C 396.840 215.283,397.200 214.786,397.200 214.495 C 397.200 214.204,397.560 213.580,398.000 213.108 C 398.440 212.636,398.800 211.848,398.800 211.358 C 398.800 210.868,399.025 210.392,399.300 210.300 C 399.677 210.174,399.800 208.209,399.800 202.287 C 399.800 196.543,399.666 194.307,399.300 193.940 C 399.025 193.665,398.800 193.116,398.800 192.720 C 398.800 192.324,398.620 192.000,398.400 192.000 C 398.180 192.000,398.000 191.680,398.000 191.288 C 398.000 190.897,397.640 190.317,397.200 190.000 C 396.760 189.683,396.400 189.189,396.400 188.903 C 396.400 187.982,392.095 183.988,391.393 184.258 C 391.042 184.393,389.910 184.048,388.878 183.492 C 385.813 181.841,383.212 181.112,379.458 180.848 L 375.916 180.600 375.416 179.000 C 375.141 178.120,374.686 176.590,374.404 175.600 C 371.850 166.611,364.166 150.771,361.211 148.400 C 361.074 148.290,360.553 147.615,360.053 146.900 C 359.009 145.404,358.000 145.194,358.000 146.472 C 358.000 146.951,357.832 147.896,357.627 148.572 C 357.422 149.247,357.038 150.610,356.774 151.600 C 353.032 165.612,345.222 174.138,334.080 176.375 C 330.579 177.077,246.919 176.954,243.600 176.242 C 235.250 174.448,228.613 168.959,224.620 160.542 C 223.800 158.814,222.965 157.087,222.765 156.705 C 222.564 156.323,222.400 155.659,222.400 155.229 C 222.400 154.799,222.240 154.348,222.044 154.227 C 221.849 154.106,221.592 153.421,221.473 152.704 C 221.081 150.329,220.505 147.972,220.256 147.723 C 219.834 147.301,216.734 151.694,214.134 156.400 C 213.465 157.610,212.531 159.280,212.059 160.112 C 211.587 160.944,211.200 161.889,211.200 162.212 C 211.200 162.535,211.020 162.800,210.800 162.800 C 210.580 162.800,210.400 163.072,210.400 163.405 C 210.400 163.738,210.241 164.323,210.047 164.705 C 209.852 165.087,209.492 165.895,209.247 166.500 C 209.001 167.105,208.599 168.095,208.353 168.700 C 208.108 169.305,207.748 170.113,207.553 170.495 C 207.359 170.877,207.200 171.464,207.200 171.800 C 207.200 172.136,207.038 172.723,206.839 173.105 C 206.640 173.487,206.262 174.610,205.997 175.600 C 205.733 176.590,205.355 177.813,205.158 178.319 C 204.961 178.824,204.800 179.574,204.800 179.986 C 204.800 180.624,204.401 180.763,202.100 180.930 C 197.446 181.268,196.714 181.464,192.423 183.529 C 189.865 184.761,188.800 184.730,188.800 183.424 C 188.800 183.149,187.655 182.741,186.100 182.461 C 178.960 181.177,177.666 180.886,173.000 179.513 C 168.395 178.158,165.442 177.185,164.705 176.781 C 164.323 176.571,163.834 176.400,163.617 176.400 C 162.657 176.400,151.125 170.819,146.949 168.333 C 143.548 166.307,138.669 163.159,138.400 162.817 C 138.290 162.676,137.570 162.129,136.800 161.600 C 136.030 161.071,135.310 160.533,135.200 160.405 C 135.090 160.276,133.650 159.076,132.000 157.737 C 123.300 150.680,114.550 139.745,110.047 130.300 C 108.425 126.899,108.495 126.881,106.301 131.300 M338.966 192.574 C 349.333 195.274,355.244 208.348,348.189 212.970 C 344.668 215.278,338.800 212.041,338.800 207.791 C 338.800 203.439,333.352 203.798,332.578 208.200 C 331.673 213.347,326.150 215.541,322.469 212.215 C 316.996 207.271,323.879 192.850,331.738 192.794 C 332.212 192.791,332.870 192.613,333.200 192.400 C 334.065 191.841,336.425 191.912,338.966 192.574 M70.211 195.389 L 72.000 197.179 72.000 203.717 L 72.000 210.256 70.654 211.828 C 67.914 215.030,64.101 215.047,61.382 211.871 L 60.000 210.256 60.000 203.717 L 60.000 197.179 61.789 195.389 C 64.456 192.723,67.544 192.723,70.211 195.389 M158.771 195.171 C 159.959 196.359,160.408 197.183,160.613 198.547 C 162.357 210.179,157.891 217.212,151.333 213.159 C 147.061 210.518,147.049 196.988,151.316 194.386 C 153.685 192.941,156.877 193.277,158.771 195.171 M249.037 194.421 C 252.188 196.191,252.400 196.788,252.400 203.915 C 252.400 209.452,252.335 209.979,251.492 211.241 C 249.143 214.757,244.035 214.891,241.453 211.505 C 240.235 209.909,239.817 199.014,240.900 197.110 C 242.682 193.977,246.186 192.819,249.037 194.421 M100.661 202.023 C 101.273 202.256,102.510 203.050,103.410 203.787 C 108.452 207.918,112.408 207.928,117.219 203.821 C 120.466 201.050,123.652 200.879,126.117 203.344 C 133.208 210.435,119.722 221.040,106.400 218.849 C 100.748 217.919,92.940 212.453,92.728 209.277 C 92.363 203.799,96.171 200.316,100.661 202.023 M280.913 202.164 C 281.621 202.474,282.804 203.261,283.543 203.913 C 288.030 207.871,292.500 207.849,297.192 203.844 C 303.259 198.665,311.266 204.908,306.829 211.358 C 299.442 222.095,277.882 221.156,272.895 209.881 C 270.865 205.291,276.241 200.117,280.913 202.164 " stroke="none" fill="#fbe5da" fill-rule="evenodd"></path><path id="path3" d="M197.600 180.800 C 197.270 181.013,196.665 181.191,196.256 181.194 C 195.274 181.202,189.600 184.015,189.600 184.494 C 189.600 184.699,189.735 184.802,189.900 184.723 C 196.895 181.380,196.755 181.424,202.200 180.833 L 205.000 180.529 201.600 180.471 C 199.730 180.439,197.930 180.587,197.600 180.800 M377.705 180.687 C 378.314 180.779,379.214 180.777,379.705 180.682 C 380.197 180.587,379.700 180.511,378.600 180.514 C 377.500 180.517,377.097 180.595,377.705 180.687 M190.000 220.160 C 190.000 220.490,192.739 221.920,195.029 222.785 C 197.773 223.822,205.600 224.468,205.600 223.657 C 205.600 223.343,204.291 223.200,201.424 223.200 C 199.071 223.200,197.139 223.025,197.000 222.800 C 196.864 222.580,196.422 222.400,196.017 222.400 C 195.612 222.400,194.255 221.860,193.000 221.200 C 190.867 220.078,190.000 219.778,190.000 220.160 M375.745 223.694 C 376.326 224.069,379.329 224.044,381.400 223.647 C 382.581 223.421,381.991 223.348,379.145 223.370 C 377.025 223.387,375.495 223.532,375.745 223.694 M225.200 258.525 C 225.200 258.594,225.785 259.179,226.500 259.825 L 227.800 261.000 226.625 259.700 C 225.530 258.488,225.200 258.216,225.200 258.525 M229.200 262.525 C 229.200 262.594,229.785 263.179,230.500 263.825 L 231.800 265.000 230.625 263.700 C 229.530 262.488,229.200 262.216,229.200 262.525 M350.980 267.600 C 354.233 271.183,354.742 271.665,353.303 269.800 C 352.623 268.920,351.292 267.480,350.344 266.600 C 349.111 265.456,349.292 265.740,350.980 267.600 M247.301 276.239 C 247.686 276.693,247.881 277.185,247.734 277.332 C 247.587 277.480,247.731 277.600,248.054 277.600 C 248.842 277.600,250.793 278.525,250.797 278.900 C 250.799 279.065,251.053 279.200,251.362 279.200 C 251.671 279.200,252.661 279.560,253.562 280.000 C 254.463 280.440,255.937 281.160,256.838 281.600 C 257.739 282.040,258.808 282.400,259.214 282.400 C 259.620 282.400,260.064 282.580,260.200 282.800 C 260.336 283.020,260.887 283.200,261.424 283.200 C 261.961 283.200,262.400 283.380,262.400 283.600 C 262.400 283.820,262.805 284.006,263.300 284.013 C 265.133 284.039,265.485 284.758,265.664 288.840 C 265.767 291.191,265.671 292.820,265.416 293.060 C 264.671 293.764,261.057 298.025,260.444 298.924 C 260.115 299.406,259.731 299.890,259.589 300.000 C 259.185 300.315,254.339 307.543,252.893 309.989 C 251.040 313.122,247.930 319.374,246.819 322.200 C 246.300 323.520,245.723 324.771,245.538 324.980 C 245.352 325.189,245.200 325.738,245.200 326.200 C 245.200 326.662,245.052 327.211,244.872 327.420 C 244.692 327.629,244.133 329.150,243.631 330.800 C 243.129 332.450,242.556 334.113,242.359 334.495 C 242.162 334.877,242.000 335.721,242.000 336.371 C 242.000 337.021,241.840 337.652,241.644 337.773 C 241.449 337.894,241.186 338.579,241.061 339.296 C 240.936 340.013,240.626 341.590,240.373 342.800 C 239.713 345.954,239.448 353.208,239.973 353.733 C 240.208 353.968,240.400 354.563,240.400 355.056 C 240.400 355.549,240.580 356.064,240.800 356.200 C 241.020 356.336,241.200 356.797,241.200 357.224 C 241.200 357.651,241.380 358.000,241.600 358.000 C 241.820 358.000,242.000 358.320,242.000 358.712 C 242.000 359.103,242.360 359.683,242.800 360.000 C 243.240 360.317,243.600 360.807,243.600 361.088 C 243.600 361.370,243.735 361.602,243.900 361.603 C 244.065 361.605,244.863 362.235,245.673 363.003 C 246.484 363.772,247.317 364.400,247.524 364.400 C 247.732 364.400,248.136 364.682,248.423 365.027 C 249.095 365.837,215.192 365.745,213.800 364.934 C 213.360 364.677,212.325 364.174,211.501 363.815 C 206.770 361.758,203.515 356.008,203.487 349.659 C 203.471 346.026,203.709 344.675,205.674 337.200 C 206.339 334.670,206.975 332.013,207.086 331.296 C 207.197 330.579,207.449 329.894,207.644 329.773 C 207.840 329.652,208.000 329.113,208.000 328.576 C 208.000 328.039,208.180 327.600,208.400 327.600 C 208.620 327.600,208.800 327.161,208.800 326.624 C 208.800 326.087,208.980 325.536,209.200 325.400 C 209.420 325.264,209.600 324.803,209.600 324.376 C 209.600 323.949,209.780 323.600,210.000 323.600 C 210.220 323.600,210.400 323.335,210.400 323.012 C 210.400 322.689,210.760 321.783,211.200 321.000 C 211.640 320.217,212.000 319.311,212.000 318.988 C 212.000 318.665,212.180 318.400,212.400 318.400 C 212.620 318.400,212.800 318.166,212.800 317.880 C 212.800 317.144,213.741 315.207,214.100 315.203 C 214.265 315.201,214.400 314.840,214.400 314.400 C 214.400 313.960,214.535 313.597,214.700 313.594 C 214.865 313.590,215.440 312.690,215.979 311.594 C 216.517 310.497,217.102 309.600,217.279 309.600 C 217.455 309.600,217.600 309.255,217.600 308.833 C 217.600 308.412,217.735 308.007,217.900 307.933 C 218.229 307.787,222.760 301.226,223.395 299.977 C 223.612 299.550,223.927 299.200,224.095 299.200 C 224.263 299.200,224.400 299.020,224.400 298.800 C 224.400 298.224,223.322 298.306,223.091 298.900 C 222.985 299.175,222.086 300.480,221.095 301.800 C 217.098 307.124,211.350 317.600,208.749 324.300 C 208.557 324.795,208.230 325.605,208.021 326.100 C 207.144 328.187,204.899 335.485,203.992 339.200 C 203.804 339.970,203.414 341.500,203.125 342.600 C 201.973 346.986,202.415 353.821,204.068 357.200 C 206.084 361.321,211.267 366.000,213.814 366.000 C 214.136 366.000,214.400 366.179,214.400 366.397 C 214.400 366.950,365.858 366.953,366.200 366.401 C 366.336 366.180,366.932 365.987,367.524 365.971 C 368.116 365.955,369.066 365.640,369.636 365.271 C 372.597 363.353,373.591 362.551,373.595 362.076 C 373.598 361.788,373.759 361.651,373.954 361.771 C 374.148 361.891,374.530 361.452,374.802 360.795 C 375.074 360.138,375.455 359.600,375.649 359.600 C 375.842 359.600,376.000 359.240,376.000 358.800 C 376.000 358.360,376.180 358.000,376.400 358.000 C 376.620 358.000,376.800 357.651,376.800 357.224 C 376.800 356.797,376.980 356.336,377.200 356.200 C 377.420 356.064,377.600 355.513,377.600 354.976 C 377.600 354.439,377.780 354.000,378.000 354.000 C 378.243 354.000,378.400 352.200,378.400 349.400 C 378.400 346.870,378.237 344.800,378.039 344.800 C 377.840 344.800,377.579 343.945,377.460 342.900 C 377.094 339.701,376.728 338.003,376.356 337.773 C 376.160 337.652,376.000 336.933,376.000 336.176 C 376.000 335.419,375.820 334.800,375.600 334.800 C 375.380 334.800,375.200 334.181,375.200 333.424 C 375.200 332.667,375.043 331.950,374.852 331.832 C 374.542 331.641,374.244 330.675,373.744 328.249 C 373.589 327.496,372.650 325.202,371.966 323.905 C 371.765 323.523,371.600 322.848,371.600 322.405 C 371.600 321.962,371.420 321.600,371.200 321.600 C 370.980 321.600,370.800 321.346,370.800 321.034 C 370.800 320.723,370.279 319.418,369.642 318.134 C 369.006 316.851,368.242 315.215,367.945 314.500 C 367.648 313.785,367.269 313.200,367.102 313.200 C 366.936 313.200,366.800 312.930,366.800 312.600 C 366.800 312.270,366.654 312.000,366.475 312.000 C 366.296 312.000,365.902 311.370,365.600 310.600 C 365.298 309.830,364.904 309.200,364.725 309.200 C 364.546 309.200,364.400 308.906,364.400 308.547 C 364.400 308.188,364.084 307.603,363.697 307.247 C 363.311 306.891,362.740 306.105,362.430 305.500 C 362.119 304.895,361.715 304.400,361.532 304.400 C 361.350 304.400,361.200 304.175,361.200 303.900 C 361.199 303.625,360.754 302.883,360.211 302.251 C 359.667 301.619,359.119 300.773,358.991 300.372 C 358.863 299.970,358.391 299.524,357.940 299.381 C 357.338 299.190,357.170 298.871,357.303 298.173 C 357.403 297.651,357.330 297.319,357.142 297.436 C 356.954 297.552,356.800 298.046,356.800 298.533 C 356.800 300.147,353.857 304.427,350.605 307.543 C 340.907 316.835,326.701 317.939,315.200 310.294 C 313.357 309.069,308.400 304.143,308.400 303.537 C 308.400 302.852,307.311 303.231,306.370 304.242 C 304.445 306.312,300.473 308.722,297.600 309.565 C 296.610 309.856,295.278 310.252,294.640 310.447 C 293.003 310.946,287.171 310.886,284.906 310.347 C 281.746 309.595,279.709 308.693,276.800 306.759 C 269.871 302.151,266.436 295.603,266.408 286.949 C 266.399 284.156,266.226 283.941,263.400 283.200 C 262.300 282.912,261.220 282.561,261.000 282.421 C 260.780 282.281,259.880 281.927,259.000 281.634 C 257.469 281.124,253.033 279.184,251.445 278.331 C 249.335 277.196,247.739 276.269,247.200 275.864 C 246.824 275.582,246.862 275.722,247.301 276.239 M65.129 278.102 C 64.838 278.378,63.558 279.313,62.286 280.178 C 61.013 281.044,59.753 282.025,59.486 282.357 C 59.218 282.689,60.260 282.085,61.800 281.015 C 64.664 279.025,66.382 277.600,65.917 277.600 C 65.774 277.600,65.419 277.826,65.129 278.102 M358.468 281.400 C 358.462 281.840,358.611 282.560,358.800 283.000 C 359.238 284.019,359.238 282.968,358.800 281.600 C 358.543 280.796,358.477 280.757,358.468 281.400 M55.792 285.267 C 52.136 288.429,48.377 292.110,48.589 292.322 C 48.681 292.414,49.801 291.434,51.078 290.143 C 52.911 288.291,57.884 283.868,58.767 283.306 C 58.858 283.248,58.855 283.122,58.759 283.026 C 58.663 282.930,57.328 283.938,55.792 285.267 M132.493 287.200 C 132.493 287.970,132.575 288.285,132.676 287.900 C 132.776 287.515,132.776 286.885,132.676 286.500 C 132.575 286.115,132.493 286.430,132.493 287.200 M84.428 288.833 C 84.444 290.245,84.612 291.760,84.802 292.200 C 85.011 292.684,85.057 291.738,84.918 289.800 C 84.636 285.868,84.390 285.383,84.428 288.833 M358.600 292.000 C 358.448 292.691,358.414 293.347,358.524 293.457 C 358.634 293.567,358.848 293.091,359.000 292.400 C 359.152 291.709,359.186 291.053,359.076 290.943 C 358.966 290.833,358.752 291.309,358.600 292.000 M47.398 293.350 C 47.179 293.653,45.695 295.496,44.100 297.446 C 42.505 299.396,41.200 301.146,41.200 301.335 C 41.200 301.524,42.014 300.597,43.008 299.273 C 44.003 297.950,45.640 295.952,46.646 294.834 C 47.651 293.715,48.322 292.800,48.135 292.800 C 47.949 292.800,47.617 293.048,47.398 293.350 M39.287 303.700 C 37.827 305.856,37.512 306.400,37.720 306.400 C 37.812 306.400,38.544 305.410,39.347 304.200 C 40.151 302.990,40.725 302.000,40.623 302.000 C 40.522 302.000,39.920 302.765,39.287 303.700 M34.214 311.835 C 33.841 312.404,33.627 312.961,33.739 313.072 C 33.850 313.183,34.229 312.718,34.581 312.037 C 35.359 310.533,35.144 310.415,34.214 311.835 M107.705 311.087 C 108.314 311.179,109.214 311.177,109.705 311.082 C 110.197 310.987,109.700 310.911,108.600 310.914 C 107.500 310.917,107.097 310.995,107.705 311.087 M31.781 316.437 C 31.429 317.118,31.212 317.745,31.299 317.832 C 31.386 317.919,31.756 317.362,32.122 316.595 C 32.944 314.870,32.659 314.738,31.781 316.437 M29.881 320.500 C 29.363 321.655,28.530 323.680,28.030 325.000 C 27.531 326.320,26.969 327.760,26.781 328.200 C 26.031 329.961,25.185 332.919,25.377 333.111 C 25.489 333.223,25.650 333.064,25.734 332.757 C 26.170 331.170,26.892 328.907,27.188 328.200 C 27.373 327.760,28.110 325.870,28.826 324.000 C 29.543 322.130,30.252 320.420,30.402 320.200 C 30.800 319.618,31.204 318.400,30.999 318.400 C 30.903 318.400,30.399 319.345,29.881 320.500 M24.854 334.067 C 24.825 334.434,24.684 335.064,24.541 335.467 C 24.341 336.033,24.395 336.096,24.775 335.746 C 25.046 335.497,25.187 334.867,25.088 334.346 C 24.990 333.826,24.884 333.700,24.854 334.067 M24.049 336.800 C 24.016 337.130,23.889 337.850,23.767 338.400 C 23.575 339.264,23.607 339.303,23.999 338.688 C 24.248 338.297,24.375 337.577,24.281 337.088 C 24.186 336.600,24.082 336.470,24.049 336.800 M23.246 340.467 C 23.221 340.834,23.096 341.464,22.970 341.867 C 22.752 342.562,22.763 342.563,23.197 341.887 C 23.448 341.496,23.573 340.866,23.473 340.487 C 23.311 339.868,23.288 339.866,23.246 340.467 M22.222 345.022 C 22.072 345.825,22.038 346.572,22.148 346.682 C 22.258 346.792,22.472 346.225,22.622 345.422 C 22.773 344.619,22.806 343.873,22.696 343.763 C 22.586 343.653,22.373 344.219,22.222 345.022 " stroke="none" fill="#e697bf" fill-rule="evenodd"></path><path id="path4" d="M357.794 145.500 C 357.672 146.105,357.414 147.140,357.221 147.800 C 357.028 148.460,356.567 150.260,356.196 151.800 C 352.895 165.514,344.229 174.421,332.671 175.978 C 328.292 176.568,249.540 176.555,245.316 175.964 C 237.972 174.935,232.630 171.568,227.282 164.596 C 226.778 163.938,226.932 164.270,227.624 165.333 C 231.275 170.936,236.955 174.815,243.600 176.242 C 246.919 176.954,330.579 177.077,334.080 176.375 C 345.222 174.138,353.032 165.612,356.774 151.600 C 357.038 150.610,357.422 149.247,357.627 148.572 C 357.832 147.896,358.000 146.951,358.000 146.472 C 358.000 145.194,359.009 145.404,360.053 146.900 C 360.553 147.615,361.074 148.290,361.211 148.400 C 364.166 150.771,371.850 166.611,374.404 175.600 C 375.517 179.515,375.927 180.573,376.365 180.655 C 376.627 180.704,376.647 180.654,376.410 180.537 C 376.185 180.425,376.000 179.997,376.000 179.585 C 376.000 179.174,375.839 178.424,375.642 177.919 C 375.445 177.413,375.059 176.190,374.784 175.200 C 372.372 166.506,368.303 157.902,362.868 150.000 C 359.122 144.554,358.157 143.698,357.794 145.500 M219.232 147.700 C 218.716 148.528,218.726 148.555,219.345 148.043 C 220.115 147.407,220.216 147.462,220.756 148.815 C 221.052 149.555,221.156 149.620,221.175 149.074 C 221.242 147.151,220.084 146.332,219.232 147.700 M217.798 149.602 C 217.398 150.044,217.166 150.499,217.282 150.615 C 217.397 150.730,217.790 150.369,218.155 149.812 C 218.952 148.596,218.793 148.502,217.798 149.602 M221.246 150.800 C 221.265 151.130,221.424 151.850,221.600 152.400 L 221.920 153.400 221.954 152.400 C 221.973 151.850,221.813 151.130,221.600 150.800 C 221.255 150.267,221.216 150.267,221.246 150.800 M216.198 152.002 C 215.798 152.444,215.566 152.899,215.682 153.015 C 215.797 153.130,216.190 152.769,216.555 152.212 C 217.352 150.996,217.193 150.902,216.198 152.002 M214.253 155.191 C 213.253 156.702,212.815 157.796,213.536 156.980 C 214.092 156.352,215.679 153.600,215.486 153.600 C 215.387 153.600,214.832 154.316,214.253 155.191 M222.028 153.876 C 222.118 154.915,222.744 155.796,222.772 154.924 C 222.787 154.442,222.620 153.936,222.400 153.800 C 222.180 153.664,222.013 153.698,222.028 153.876 M222.828 156.092 C 222.782 156.565,224.086 159.648,224.258 159.475 C 224.345 159.388,224.066 158.525,223.637 157.558 C 223.208 156.591,222.844 155.931,222.828 156.092 M209.800 163.861 C 209.464 164.665,209.282 165.415,209.395 165.528 C 209.508 165.641,209.600 165.635,209.600 165.516 C 209.600 165.396,209.872 164.646,210.205 163.849 C 210.538 163.052,210.721 162.400,210.611 162.400 C 210.501 162.400,210.136 163.058,209.800 163.861 M207.057 170.857 C 206.690 171.993,206.459 172.992,206.544 173.077 C 206.628 173.162,207.001 172.304,207.371 171.171 C 207.742 170.039,207.973 169.040,207.885 168.951 C 207.797 168.863,207.424 169.721,207.057 170.857 M205.029 177.429 C 204.881 178.015,204.838 178.572,204.932 178.666 C 205.027 178.760,205.224 178.358,205.371 177.771 C 205.519 177.185,205.562 176.628,205.468 176.534 C 205.373 176.440,205.176 176.842,205.029 177.429 M381.400 180.800 C 382.060 180.968,382.960 181.114,383.400 181.125 L 384.200 181.144 383.400 180.800 C 382.960 180.611,382.060 180.465,381.400 180.475 L 380.200 180.495 381.400 180.800 M389.200 183.600 C 389.750 184.030,390.553 184.386,390.985 184.391 C 391.494 184.397,391.218 184.119,390.200 183.600 C 388.231 182.596,387.917 182.596,389.200 183.600 M333.320 192.317 C 333.056 192.485,334.189 192.622,335.837 192.622 C 337.485 192.622,338.511 192.495,338.117 192.339 C 337.144 191.955,333.913 191.940,333.320 192.317 M330.200 193.200 C 329.908 193.673,330.299 193.673,331.400 193.200 C 332.171 192.869,332.169 192.855,331.324 192.828 C 330.842 192.813,330.336 192.980,330.200 193.200 M151.326 194.380 C 150.625 194.807,149.844 195.572,149.590 196.079 C 149.196 196.866,149.265 196.841,150.064 195.909 C 150.579 195.308,151.630 194.550,152.400 194.224 C 153.170 193.898,153.530 193.625,153.200 193.617 C 152.870 193.609,152.026 193.953,151.326 194.380 M157.186 194.500 C 158.276 195.059,159.217 195.928,159.670 196.794 C 160.094 197.602,160.400 197.896,160.400 197.494 C 160.400 196.492,157.366 193.600,156.315 193.600 C 155.660 193.600,155.886 193.834,157.186 194.500 M244.662 193.900 C 244.560 194.065,245.342 194.200,246.400 194.200 C 247.458 194.200,248.240 194.065,248.138 193.900 C 248.036 193.735,247.254 193.600,246.400 193.600 C 245.546 193.600,244.764 193.735,244.662 193.900 M342.558 194.124 C 345.130 195.741,346.803 197.321,348.300 199.546 C 350.053 202.151,350.466 202.462,349.377 200.356 C 348.168 198.018,343.342 193.536,342.128 193.624 C 341.948 193.636,342.141 193.861,342.558 194.124 M242.235 195.403 C 241.595 195.953,241.145 196.478,241.236 196.569 C 241.326 196.660,241.988 196.209,242.707 195.567 C 244.297 194.146,243.870 193.997,242.235 195.403 M250.158 195.617 C 250.920 196.286,251.664 197.379,251.810 198.045 C 251.956 198.712,252.171 199.163,252.286 199.047 C 252.995 198.338,250.317 194.400,249.127 194.400 C 248.932 194.400,249.396 194.948,250.158 195.617 M324.608 197.013 C 321.390 200.324,319.470 205.939,320.444 209.190 C 322.406 215.738,331.382 215.006,332.578 208.200 C 332.733 207.320,333.127 206.150,333.453 205.600 L 334.047 204.600 333.237 205.529 C 332.790 206.039,332.317 207.119,332.184 207.929 C 331.614 211.401,329.621 213.236,326.394 213.261 C 319.391 213.316,318.630 203.724,325.111 197.100 C 326.133 196.055,326.835 195.200,326.670 195.200 C 326.505 195.200,325.577 196.016,324.608 197.013 M60.267 197.067 C 60.120 197.213,60.015 197.798,60.034 198.367 C 60.068 199.381,60.075 199.379,60.421 198.220 C 60.785 197.003,60.731 196.602,60.267 197.067 M71.228 197.076 C 71.318 198.115,71.944 198.996,71.972 198.124 C 71.987 197.642,71.820 197.136,71.600 197.000 C 71.380 196.864,71.213 196.898,71.228 197.076 M148.643 197.833 C 148.297 198.733,148.353 209.307,148.706 209.862 C 148.868 210.116,149.000 207.371,149.000 203.762 C 149.000 200.153,148.974 197.200,148.943 197.200 C 148.911 197.200,148.776 197.485,148.643 197.833 M240.558 197.766 C 240.438 198.078,240.405 198.843,240.484 199.466 C 240.602 200.391,240.664 200.287,240.825 198.900 C 241.027 197.151,240.938 196.775,240.558 197.766 M160.558 203.800 C 160.558 206.880,160.621 208.087,160.697 206.482 C 160.773 204.878,160.773 202.358,160.696 200.882 C 160.619 199.407,160.557 200.720,160.558 203.800 M96.200 202.161 C 95.540 202.452,94.640 203.109,94.200 203.619 C 93.460 204.478,93.506 204.469,94.800 203.505 C 97.617 201.407,100.191 201.569,103.027 204.023 C 105.016 205.745,107.143 206.990,107.494 206.639 C 107.615 206.518,107.374 206.300,106.957 206.154 C 106.541 206.008,105.183 205.106,103.941 204.150 C 100.530 201.524,98.705 201.055,96.200 202.161 M119.400 202.227 C 118.740 202.569,117.656 203.374,116.991 204.015 C 116.325 204.657,115.065 205.552,114.191 206.005 C 113.266 206.484,113.019 206.719,113.600 206.568 C 114.603 206.306,115.994 205.364,118.164 203.477 C 120.567 201.387,124.011 201.630,126.192 204.044 C 127.742 205.760,128.042 205.744,126.808 204.011 C 125.236 201.804,121.809 200.978,119.400 202.227 M277.017 201.892 C 274.935 202.421,272.400 205.559,272.400 207.607 C 272.400 208.806,273.260 211.200,273.691 211.200 C 273.872 211.200,273.746 210.669,273.410 210.020 C 272.594 208.440,272.641 207.381,273.620 205.359 C 275.516 201.441,279.511 201.019,283.485 204.316 C 285.566 206.042,287.154 206.979,287.467 206.667 C 287.576 206.558,287.065 206.183,286.332 205.834 C 285.600 205.485,284.370 204.644,283.600 203.964 C 281.285 201.920,279.329 201.304,277.017 201.892 M300.151 201.876 C 299.685 201.967,298.336 202.867,297.155 203.876 C 295.974 204.884,294.501 205.885,293.883 206.101 C 293.265 206.316,292.833 206.567,292.924 206.657 C 293.294 207.027,295.163 205.976,297.151 204.279 C 300.364 201.536,303.259 201.377,305.831 203.803 C 306.584 204.514,307.200 204.972,307.200 204.822 C 307.200 204.303,304.995 202.449,303.874 202.025 C 302.750 201.601,301.755 201.561,300.151 201.876 M350.034 202.800 C 350.046 203.130,350.211 203.760,350.400 204.200 L 350.744 205.000 350.766 204.200 C 350.778 203.760,350.613 203.130,350.400 202.800 C 350.055 202.267,350.015 202.267,350.034 202.800 M335.000 204.430 C 334.373 204.676,334.509 204.750,335.630 204.772 C 337.379 204.806,338.800 206.159,338.800 207.791 C 338.800 212.041,344.668 215.278,348.189 212.970 C 349.353 212.208,350.999 210.066,350.673 209.740 C 350.555 209.622,350.185 210.056,349.850 210.703 C 347.418 215.407,339.200 213.206,339.200 207.851 C 339.200 205.624,336.844 203.705,335.000 204.430 M307.536 207.246 C 307.809 210.108,304.564 214.292,300.622 216.163 C 299.804 216.551,299.224 216.958,299.333 217.067 C 299.932 217.665,305.304 213.574,306.829 211.358 C 307.975 209.693,308.499 206.355,307.693 205.857 C 307.524 205.753,307.453 206.378,307.536 207.246 M350.909 207.200 C 350.909 208.190,350.987 208.595,351.082 208.100 C 351.178 207.605,351.178 206.795,351.082 206.300 C 350.987 205.805,350.909 206.210,350.909 207.200 M127.733 207.800 C 127.733 208.903,127.863 209.426,128.061 209.116 C 128.241 208.832,128.388 208.240,128.388 207.800 C 128.388 207.360,128.241 206.768,128.061 206.484 C 127.863 206.174,127.733 206.697,127.733 207.800 M109.107 207.090 C 109.826 207.179,110.906 207.177,111.507 207.086 C 112.108 206.995,111.520 206.922,110.200 206.924 C 108.880 206.926,108.388 207.001,109.107 207.090 M289.107 207.090 C 289.826 207.179,290.906 207.177,291.507 207.086 C 292.108 206.995,291.520 206.922,290.200 206.924 C 288.880 206.926,288.388 207.001,289.107 207.090 M240.446 208.762 C 240.357 211.403,243.353 214.001,246.487 213.999 C 249.025 213.998,252.400 211.303,252.400 209.278 C 252.400 208.946,251.991 209.449,251.490 210.395 C 248.866 215.357,241.846 214.355,240.777 208.866 L 240.492 207.400 240.446 208.762 M60.018 209.249 C 59.996 210.536,62.562 213.449,64.000 213.769 C 64.838 213.956,64.805 213.901,63.797 213.434 C 62.206 212.697,61.243 211.587,60.580 209.726 C 60.106 208.399,60.033 208.337,60.018 209.249 M71.646 209.067 C 71.621 209.324,71.484 209.864,71.341 210.267 C 71.140 210.836,71.194 210.897,71.579 210.542 C 71.852 210.291,71.989 209.751,71.884 209.342 C 71.779 208.934,71.672 208.810,71.646 209.067 M92.809 209.677 C 92.795 210.730,96.910 214.915,99.168 216.144 C 100.286 216.752,101.200 217.152,101.200 217.033 C 101.200 216.914,100.516 216.467,99.679 216.040 C 97.579 214.969,94.246 211.897,93.466 210.314 C 93.098 209.568,92.814 209.293,92.809 209.677 M159.567 210.929 C 157.936 214.168,153.651 214.724,150.712 212.077 C 149.586 211.064,149.215 210.871,149.530 211.464 C 150.100 212.535,152.283 213.917,153.925 214.245 C 156.115 214.683,160.886 211.544,160.331 210.030 C 160.259 209.833,159.915 210.237,159.567 210.929 M126.805 210.990 C 126.005 212.486,122.632 215.160,119.656 216.660 C 118.195 217.396,117.231 217.998,117.513 217.999 C 119.784 218.004,128.511 211.177,127.511 210.178 C 127.414 210.081,127.096 210.446,126.805 210.990 M70.162 212.046 C 69.369 212.926,68.242 213.485,66.200 214.010 C 65.317 214.237,65.225 214.329,65.851 214.359 C 67.118 214.420,69.271 213.408,70.370 212.235 C 70.903 211.666,71.246 211.200,71.132 211.200 C 71.017 211.200,70.581 211.581,70.162 212.046 M275.200 212.978 C 276.686 214.594,280.727 217.406,281.070 217.063 C 281.183 216.951,280.673 216.554,279.937 216.182 C 279.202 215.810,277.520 214.594,276.200 213.481 C 274.175 211.773,274.019 211.694,275.200 212.978 M104.200 218.400 C 104.640 218.589,105.360 218.744,105.800 218.744 L 106.600 218.744 105.800 218.400 C 105.360 218.211,104.640 218.056,104.200 218.056 L 103.400 218.056 104.200 218.400 M115.000 218.400 L 114.200 218.744 115.000 218.766 C 115.440 218.778,116.070 218.613,116.400 218.400 C 117.195 217.886,116.196 217.886,115.000 218.400 M284.200 218.400 C 284.640 218.589,285.360 218.744,285.800 218.744 L 286.600 218.744 285.800 218.400 C 285.360 218.211,284.640 218.056,284.200 218.056 L 283.400 218.056 284.200 218.400 M295.000 218.400 C 294.496 218.617,294.422 218.744,294.800 218.744 C 295.130 218.744,295.760 218.589,296.200 218.400 C 296.704 218.183,296.778 218.056,296.400 218.056 C 296.070 218.056,295.440 218.211,295.000 218.400 M108.900 219.091 C 109.725 219.178,111.075 219.178,111.900 219.091 C 112.725 219.005,112.050 218.934,110.400 218.934 C 108.750 218.934,108.075 219.005,108.900 219.091 M288.900 219.091 C 289.725 219.178,291.075 219.178,291.900 219.091 C 292.725 219.005,292.050 218.934,290.400 218.934 C 288.750 218.934,288.075 219.005,288.900 219.091 M189.823 220.900 C 188.958 223.747,188.008 231.109,188.002 235.000 C 187.999 237.800,187.842 238.500,186.750 240.600 C 176.862 259.603,160.063 274.927,140.800 282.513 C 140.250 282.730,139.440 283.057,139.000 283.240 C 138.560 283.423,137.023 283.942,135.585 284.394 L 132.970 285.214 132.457 289.036 C 128.798 316.299,93.043 319.133,84.961 292.800 C 84.657 291.810,84.407 289.729,84.404 288.176 L 84.400 285.352 81.700 284.452 C 77.364 283.008,72.821 281.148,69.645 279.517 C 68.019 278.683,66.536 278.000,66.349 278.000 C 66.042 278.000,59.280 282.635,58.800 283.175 C 58.690 283.299,57.430 284.387,56.000 285.594 C 52.411 288.622,47.586 293.585,44.523 297.400 C 43.110 299.160,41.713 300.894,41.420 301.254 C 40.200 302.749,36.800 307.995,36.800 308.382 C 36.800 308.612,36.665 308.801,36.500 308.803 C 36.335 308.805,35.999 309.210,35.753 309.703 C 35.506 310.196,34.141 312.850,32.719 315.600 C 31.296 318.350,29.545 322.130,28.828 324.000 C 28.111 325.870,27.373 327.760,27.188 328.200 C 27.004 328.640,26.639 329.720,26.377 330.600 C 26.116 331.480,25.744 332.513,25.551 332.895 C 25.358 333.277,25.200 334.031,25.200 334.571 C 25.200 335.111,25.040 335.652,24.844 335.773 C 24.649 335.894,24.392 336.579,24.273 337.296 C 24.155 338.013,23.854 339.410,23.604 340.400 C 23.164 342.143,22.974 343.093,22.042 348.200 C 21.495 351.203,21.474 354.275,22.000 354.600 C 22.220 354.736,22.400 355.287,22.400 355.824 C 22.400 356.361,22.580 356.800,22.800 356.800 C 23.020 356.800,23.200 357.210,23.200 357.712 C 23.200 358.213,23.560 358.883,24.000 359.200 C 24.440 359.517,24.800 360.015,24.800 360.307 C 24.800 360.952,28.133 364.400,28.756 364.400 C 29.000 364.400,29.200 364.580,29.200 364.800 C 29.200 365.020,29.549 365.200,29.976 365.200 C 30.403 365.200,30.864 365.380,31.000 365.600 C 31.136 365.820,31.687 366.000,32.224 366.000 C 32.761 366.000,33.200 366.180,33.200 366.400 C 33.200 366.665,63.667 366.800,123.800 366.800 C 183.933 366.800,214.400 366.665,214.400 366.400 C 214.400 366.180,214.136 366.000,213.814 366.000 C 211.267 366.000,206.084 361.321,204.068 357.200 C 202.415 353.821,201.973 346.986,203.125 342.600 C 203.414 341.500,203.804 339.970,203.992 339.200 C 204.859 335.650,207.082 328.382,207.968 326.200 C 208.147 325.760,208.474 324.950,208.696 324.400 C 211.731 316.867,217.061 307.180,221.244 301.600 C 223.616 298.435,223.720 298.987,220.302 296.600 C 214.921 292.841,200.000 276.957,200.000 274.988 C 200.000 274.854,199.457 273.956,198.794 272.992 C 189.763 259.866,186.362 240.281,189.956 222.100 C 190.266 220.534,190.177 219.734,189.823 220.900 M373.828 225.700 C 372.492 229.924,371.499 232.421,369.056 237.700 C 368.063 239.845,367.340 241.600,367.449 241.600 C 367.895 241.600,372.027 232.318,373.267 228.528 C 374.182 225.733,374.851 224.330,375.400 224.055 C 376.184 223.662,376.183 223.654,375.346 223.627 C 374.659 223.605,374.362 224.010,373.828 225.700 M206.202 225.836 C 207.095 228.776,207.820 230.754,208.114 231.047 C 208.377 231.310,208.267 230.917,206.903 226.714 C 205.986 223.889,205.380 223.130,206.202 225.836 M208.400 231.884 C 208.400 232.451,209.563 235.200,209.802 235.200 C 209.907 235.200,209.696 234.435,209.332 233.500 C 208.595 231.607,208.400 231.269,208.400 231.884 M213.209 242.300 C 213.214 242.465,213.585 243.050,214.033 243.600 L 214.848 244.600 214.214 243.300 C 213.611 242.065,213.189 241.645,213.209 242.300 M365.758 243.869 C 362.002 250.393,357.895 255.658,351.502 262.141 C 350.016 263.649,348.802 264.999,348.804 265.141 C 348.810 265.512,355.867 258.248,358.267 255.400 C 361.711 251.313,367.499 242.566,367.053 242.120 C 366.953 242.020,366.370 242.806,365.758 243.869 M215.600 246.134 C 215.600 246.575,219.413 252.001,220.847 253.600 L 222.103 255.000 221.073 253.600 C 220.507 252.830,219.185 250.940,218.136 249.400 C 215.920 246.147,215.600 245.735,215.600 246.134 M224.726 258.300 C 227.983 261.892,232.000 265.884,232.000 265.528 C 232.000 265.393,230.695 264.016,229.100 262.467 C 227.505 260.919,225.390 258.659,224.400 257.445 C 223.410 256.232,222.446 255.230,222.258 255.219 C 222.069 255.209,223.180 256.595,224.726 258.300 M234.000 267.226 C 235.885 268.965,238.000 270.579,238.000 270.278 C 238.000 270.181,236.695 269.081,235.100 267.833 C 233.032 266.216,232.717 266.042,234.000 267.226 M350.800 267.000 C 351.546 267.770,352.247 268.400,352.357 268.400 C 352.467 268.400,351.946 267.770,351.200 267.000 C 350.454 266.230,349.753 265.600,349.643 265.600 C 349.533 265.600,350.054 266.230,350.800 267.000 M240.200 271.911 C 241.098 272.841,247.774 277.005,247.402 276.403 C 247.270 276.190,246.046 275.366,244.682 274.570 C 243.317 273.775,241.570 272.664,240.800 272.103 C 239.794 271.370,239.625 271.316,240.200 271.911 M359.344 287.200 C 359.344 289.290,359.412 290.145,359.494 289.100 C 359.576 288.055,359.576 286.345,359.494 285.300 C 359.412 284.255,359.344 285.110,359.344 287.200 " stroke="none" fill="#c3ace3" fill-rule="evenodd"></path></g></svg>