<svg id="svg" version="1.1" xmlns="http://www.w3.org/2000/svg" xmlns:xlink="http://www.w3.org/1999/xlink" width="400" height="400" viewBox="0, 0, 400,400"><g id="svgg"><path id="path0" d="M184.000 72.000 C 184.000 72.245,182.067 72.400,179.000 72.400 C 175.933 72.400,174.000 72.555,174.000 72.800 C 174.000 73.031,172.741 73.200,171.024 73.200 C 169.387 73.200,167.936 73.380,167.800 73.600 C 167.664 73.820,166.573 74.000,165.376 74.000 C 164.179 74.000,163.200 74.180,163.200 74.400 C 163.200 74.620,162.300 74.800,161.200 74.800 C 160.059 74.800,159.200 74.982,159.200 75.224 C 159.200 75.457,159.044 75.551,158.854 75.433 C 158.454 75.186,152.879 76.370,148.600 77.611 C 147.720 77.866,146.415 78.167,145.700 78.281 C 144.985 78.395,144.400 78.648,144.400 78.844 C 144.400 79.040,143.860 79.200,143.200 79.200 C 142.540 79.200,142.000 79.380,142.000 79.600 C 142.000 79.820,141.460 80.000,140.800 80.000 C 140.140 80.000,139.600 80.180,139.600 80.400 C 139.600 80.620,139.161 80.800,138.624 80.800 C 138.087 80.800,137.536 80.980,137.400 81.200 C 137.264 81.420,136.803 81.600,136.376 81.600 C 135.949 81.600,135.600 81.780,135.600 82.000 C 135.600 82.220,135.161 82.400,134.624 82.400 C 134.087 82.400,133.536 82.580,133.400 82.800 C 133.264 83.020,132.803 83.200,132.376 83.200 C 131.949 83.200,131.600 83.380,131.600 83.600 C 131.600 83.820,131.150 84.000,130.600 84.000 C 130.050 84.000,129.600 84.180,129.600 84.400 C 129.600 84.620,129.347 84.800,129.038 84.800 C 128.372 84.800,125.059 86.468,124.867 86.900 C 124.793 87.065,124.388 87.200,123.967 87.200 C 123.545 87.200,123.200 87.380,123.200 87.600 C 123.200 87.820,122.840 88.000,122.400 88.000 C 121.960 88.000,121.600 88.180,121.600 88.400 C 121.600 88.620,121.240 88.800,120.800 88.800 C 120.360 88.800,120.000 88.980,120.000 89.200 C 120.000 89.420,119.640 89.600,119.200 89.600 C 118.760 89.600,118.400 89.780,118.400 90.000 C 118.400 90.220,118.040 90.400,117.600 90.400 C 117.160 90.400,116.800 90.580,116.800 90.800 C 116.800 91.020,116.440 91.200,116.000 91.200 C 115.560 91.200,115.200 91.380,115.200 91.600 C 115.200 91.820,115.030 92.000,114.821 92.000 C 114.295 92.000,109.430 94.862,109.267 95.269 C 109.193 95.451,108.828 95.600,108.455 95.600 C 108.082 95.600,107.517 95.960,107.200 96.400 C 106.883 96.840,106.343 97.200,106.000 97.200 C 105.657 97.200,105.117 97.560,104.800 98.000 C 104.483 98.440,103.943 98.800,103.600 98.800 C 103.257 98.800,102.717 99.160,102.400 99.600 C 102.083 100.040,101.620 100.400,101.371 100.400 C 101.122 100.400,100.354 100.940,99.663 101.600 C 98.972 102.260,98.252 102.800,98.063 102.800 C 97.874 102.800,97.154 103.340,96.463 104.000 C 95.772 104.660,95.102 105.200,94.972 105.200 C 94.843 105.200,94.030 105.914,93.165 106.788 C 92.301 107.661,91.220 108.575,90.763 108.820 C 89.086 109.717,78.402 120.122,75.000 124.170 C 74.120 125.217,72.635 126.896,71.700 127.901 C 70.765 128.905,70.000 129.896,70.000 130.103 C 70.000 130.310,69.460 130.983,68.800 131.600 C 68.140 132.217,67.600 132.892,67.600 133.101 C 67.600 133.310,67.105 134.006,66.500 134.648 C 65.895 135.289,65.145 136.306,64.832 136.907 C 64.520 137.508,64.115 138.000,63.932 138.000 C 63.750 138.000,63.598 138.225,63.595 138.500 C 63.592 138.775,63.233 139.450,62.798 140.000 C 61.492 141.651,59.200 145.254,59.200 145.657 C 59.200 145.864,58.840 146.420,58.400 146.892 C 57.960 147.364,57.600 147.987,57.600 148.275 C 57.600 148.564,57.420 148.800,57.200 148.800 C 56.980 148.800,56.800 149.160,56.800 149.600 C 56.800 150.040,56.620 150.400,56.400 150.400 C 56.180 150.400,56.000 150.760,56.000 151.200 C 56.000 151.640,55.848 152.000,55.663 152.000 C 55.477 152.000,54.892 152.855,54.363 153.900 C 53.833 154.945,53.265 155.860,53.100 155.933 C 52.935 156.007,52.800 156.412,52.800 156.833 C 52.800 157.255,52.620 157.600,52.400 157.600 C 52.180 157.600,52.000 157.960,52.000 158.400 C 52.000 158.840,51.820 159.200,51.600 159.200 C 51.380 159.200,51.200 159.549,51.200 159.976 C 51.200 160.403,51.020 160.864,50.800 161.000 C 50.580 161.136,50.400 161.597,50.400 162.024 C 50.400 162.451,50.220 162.800,50.000 162.800 C 49.780 162.800,49.600 163.160,49.600 163.600 C 49.600 164.040,49.420 164.400,49.200 164.400 C 48.980 164.400,48.800 164.749,48.800 165.176 C 48.800 165.603,48.620 166.064,48.400 166.200 C 48.180 166.336,48.000 166.887,48.000 167.424 C 48.000 167.961,47.820 168.400,47.600 168.400 C 47.380 168.400,47.200 168.760,47.200 169.200 C 47.200 169.640,47.020 170.000,46.800 170.000 C 46.580 170.000,46.400 170.525,46.400 171.167 C 46.400 171.808,46.263 172.393,46.095 172.467 C 45.636 172.668,42.423 182.519,42.138 184.603 C 42.000 185.603,41.733 186.518,41.544 186.635 C 40.910 187.026,41.179 188.398,41.900 188.450 C 44.186 188.615,50.113 188.237,52.551 187.772 C 60.948 186.169,64.944 184.665,74.066 179.677 C 77.834 177.617,79.069 177.553,80.944 179.321 C 82.609 180.892,83.056 182.344,82.485 184.336 C 82.077 185.763,81.417 188.175,80.773 190.600 C 80.598 191.260,80.238 192.610,79.973 193.600 C 78.156 200.397,78.000 201.407,78.006 206.306 C 78.012 210.716,78.810 215.596,79.951 218.200 C 81.233 221.124,83.045 224.709,83.542 225.303 C 83.865 225.689,84.325 226.343,84.564 226.755 C 85.198 227.846,88.145 232.024,90.464 235.118 C 95.525 241.870,97.284 248.112,95.609 253.372 C 95.394 254.047,94.866 255.680,94.437 257.000 C 91.594 265.744,91.000 269.508,91.326 276.717 L 91.572 282.168 77.232 296.484 C 69.344 304.358,62.699 310.800,62.465 310.800 C 62.042 310.800,60.241 308.319,59.270 306.400 C 58.992 305.850,58.394 304.950,57.942 304.400 C 57.201 303.497,57.208 303.556,58.017 305.000 C 59.269 307.234,62.064 311.600,62.242 311.600 C 62.323 311.600,90.307 283.683,124.428 249.562 L 186.466 187.523 187.533 188.450 L 188.600 189.377 187.566 188.264 L 186.533 187.151 171.915 201.753 L 157.297 216.355 156.539 215.478 C 149.460 207.291,144.219 196.838,140.033 182.557 C 137.193 172.866,140.175 163.197,148.289 155.792 C 155.630 149.092,157.159 144.565,157.200 129.400 C 157.244 112.974,158.250 109.704,165.937 100.996 C 166.522 100.334,167.990 98.627,169.200 97.203 C 171.960 93.955,171.507 94.483,181.555 82.800 C 191.232 71.548,191.206 71.600,187.000 71.600 C 185.267 71.600,184.000 71.769,184.000 72.000 M306.105 145.297 C 305.207 145.586,299.168 151.308,286.405 163.965 L 268.000 182.217 268.000 184.731 C 268.000 186.114,267.810 188.090,267.578 189.123 C 266.986 191.755,266.364 194.061,265.991 195.000 C 264.162 199.612,264.949 203.968,268.090 206.617 C 270.254 208.441,271.647 208.781,280.305 209.592 C 302.151 211.640,316.237 216.843,333.642 229.293 C 342.558 235.671,345.411 237.600,345.928 237.600 C 346.281 237.600,346.400 234.326,346.400 224.600 C 346.400 216.200,346.258 211.600,346.000 211.600 C 345.767 211.600,345.600 210.275,345.600 208.424 C 345.600 206.677,345.420 205.136,345.200 205.000 C 344.980 204.864,344.800 203.694,344.800 202.400 C 344.800 201.106,344.620 199.936,344.400 199.800 C 344.180 199.664,344.000 198.663,344.000 197.576 C 344.000 196.489,343.820 195.600,343.600 195.600 C 343.380 195.600,343.200 195.068,343.200 194.419 C 343.200 193.285,341.712 192.412,339.761 192.402 C 338.815 192.397,336.794 191.099,335.578 189.714 C 332.232 185.903,332.368 181.091,335.948 176.645 C 338.550 173.414,338.255 172.970,323.851 158.454 C 310.217 144.713,309.525 144.200,306.105 145.297 M196.986 198.000 C 198.064 199.210,199.027 200.290,199.127 200.400 C 199.227 200.510,199.118 200.240,198.886 199.800 C 198.653 199.360,197.690 198.280,196.745 197.400 C 195.051 195.823,195.055 195.831,196.986 198.000 M199.269 202.800 C 199.269 204.581,199.332 204.790,199.600 203.900 C 199.782 203.295,199.782 202.305,199.600 201.700 C 199.332 200.810,199.269 201.019,199.269 202.800 M197.508 207.700 C 196.633 209.049,195.848 210.656,196.287 210.200 C 196.848 209.617,198.498 206.800,198.279 206.800 C 198.176 206.800,197.829 207.205,197.508 207.700 M194.025 217.796 C 195.969 220.486,201.338 225.200,202.457 225.200 C 203.564 225.200,206.000 224.223,206.000 223.779 C 206.000 223.669,205.469 223.854,204.820 224.190 C 202.443 225.419,201.716 225.095,197.432 220.900 C 195.242 218.755,193.709 217.358,194.025 217.796 M208.400 222.020 L 207.400 222.822 208.500 222.347 C 209.105 222.085,209.600 221.720,209.600 221.536 C 209.600 221.079,209.545 221.102,208.400 222.020 M229.969 230.908 L 231.338 232.381 169.469 294.380 C 109.828 354.146,106.116 358.000,108.200 358.000 C 108.530 358.000,108.800 358.180,108.800 358.400 C 108.800 358.620,109.070 358.800,109.400 358.800 C 109.730 358.800,110.000 358.980,110.000 359.200 C 110.000 359.420,110.255 359.600,110.567 359.600 C 110.878 359.600,111.193 359.735,111.267 359.900 C 111.434 360.276,113.564 361.575,114.500 361.871 C 114.885 361.993,115.200 362.252,115.200 362.447 C 115.200 362.641,115.560 362.800,116.000 362.800 C 116.440 362.800,116.800 362.980,116.800 363.200 C 116.800 363.420,117.160 363.600,117.600 363.600 C 118.040 363.600,118.400 363.780,118.400 364.000 C 118.400 364.220,118.760 364.400,119.200 364.400 C 119.640 364.400,120.000 364.580,120.000 364.800 C 120.000 365.020,120.360 365.200,120.800 365.200 C 121.240 365.200,121.600 365.350,121.600 365.532 C 121.600 365.715,122.005 366.054,122.500 366.284 C 122.995 366.515,125.020 367.467,127.000 368.400 C 128.980 369.333,130.960 370.230,131.400 370.394 C 131.840 370.559,132.740 370.921,133.400 371.200 C 134.953 371.856,135.881 372.210,137.600 372.800 C 138.370 373.064,139.360 373.414,139.800 373.578 C 142.149 374.451,144.807 375.200,145.554 375.200 C 146.019 375.200,146.400 375.380,146.400 375.600 C 146.400 375.820,147.030 376.000,147.800 376.000 C 148.570 376.000,149.200 376.180,149.200 376.400 C 149.200 376.620,149.830 376.800,150.600 376.800 C 151.370 376.800,152.000 376.980,152.000 377.200 C 152.000 377.420,152.721 377.600,153.601 377.600 L 155.202 377.600 155.066 369.700 C 154.919 361.161,154.789 360.517,152.503 356.958 C 150.384 353.659,147.763 352.014,136.800 347.100 C 134.761 346.187,126.866 342.531,125.000 341.638 L 123.400 340.871 177.500 286.734 C 207.255 256.958,231.600 232.489,231.600 232.359 C 231.600 232.033,230.367 230.720,229.400 230.017 C 228.960 229.697,229.216 230.098,229.969 230.908 M38.475 249.400 C 38.486 249.840,38.632 250.740,38.800 251.400 L 39.105 252.600 39.125 251.400 C 39.135 250.740,38.989 249.840,38.800 249.400 L 38.456 248.600 38.475 249.400 M246.800 250.480 C 241.775 251.239,239.114 253.394,235.289 259.800 C 233.976 262.000,232.169 264.994,231.275 266.453 C 222.739 280.376,224.738 290.939,238.434 304.294 C 245.377 311.063,246.178 312.421,246.157 317.400 C 246.138 321.857,244.926 324.409,241.543 327.114 C 232.411 334.417,228.828 340.006,227.641 348.800 C 226.626 356.320,224.838 359.458,215.340 370.400 C 207.416 379.529,206.132 381.600,208.400 381.600 C 209.060 381.600,209.600 381.420,209.600 381.200 C 209.600 380.969,210.867 380.800,212.600 380.800 C 214.333 380.800,215.600 380.631,215.600 380.400 C 215.600 380.180,216.579 380.000,217.776 380.000 C 218.973 380.000,220.064 379.820,220.200 379.600 C 220.336 379.380,221.337 379.200,222.424 379.200 C 223.511 379.200,224.400 379.020,224.400 378.800 C 224.400 378.580,225.120 378.400,226.000 378.400 C 226.880 378.400,227.600 378.220,227.600 378.000 C 227.600 377.780,228.320 377.600,229.200 377.600 C 230.080 377.600,230.800 377.420,230.800 377.200 C 230.800 376.980,231.520 376.800,232.400 376.800 C 233.280 376.800,234.000 376.620,234.000 376.400 C 234.000 376.180,234.540 376.000,235.200 376.000 C 235.860 376.000,236.400 375.820,236.400 375.600 C 236.400 375.380,236.942 375.200,237.605 375.200 C 238.268 375.200,239.123 375.045,239.505 374.856 C 240.626 374.302,244.251 373.200,244.954 373.200 C 245.309 373.200,245.600 373.059,245.600 372.887 C 245.600 372.715,246.455 372.325,247.500 372.020 C 249.324 371.488,249.838 371.284,251.595 370.400 C 252.032 370.180,252.662 370.000,252.995 370.000 C 253.328 370.000,253.600 369.820,253.600 369.600 C 253.600 369.380,253.949 369.200,254.376 369.200 C 254.803 369.200,255.264 369.020,255.400 368.800 C 255.536 368.580,255.997 368.400,256.424 368.400 C 256.851 368.400,257.200 368.220,257.200 368.000 C 257.200 367.780,257.560 367.600,258.000 367.600 C 258.440 367.600,258.800 367.420,258.800 367.200 C 258.800 366.980,259.160 366.800,259.600 366.800 C 260.040 366.800,260.400 366.620,260.400 366.400 C 260.400 366.180,260.760 366.000,261.200 366.000 C 261.640 366.000,262.000 365.820,262.000 365.600 C 262.000 365.380,262.360 365.200,262.800 365.200 C 263.240 365.200,263.600 365.020,263.600 364.800 C 263.600 364.580,263.960 364.400,264.400 364.400 C 264.840 364.400,265.200 364.220,265.200 364.000 C 265.200 363.780,265.436 363.600,265.725 363.600 C 266.013 363.600,266.636 363.240,267.108 362.800 C 267.580 362.360,268.244 362.000,268.583 362.000 C 268.922 362.000,269.200 361.820,269.200 361.600 C 269.200 361.380,269.560 361.200,270.000 361.200 C 270.440 361.200,270.800 361.020,270.800 360.800 C 270.800 360.580,271.070 360.400,271.400 360.400 C 271.730 360.400,272.000 360.220,272.000 360.000 C 272.000 359.780,272.270 359.600,272.600 359.600 C 272.930 359.600,273.200 359.420,273.200 359.200 C 273.200 358.980,273.470 358.800,273.800 358.800 C 274.130 358.800,274.400 358.647,274.400 358.461 C 274.400 358.274,275.120 357.797,276.000 357.400 C 276.880 357.003,277.600 356.526,277.600 356.339 C 277.600 356.153,277.836 356.000,278.125 356.000 C 278.413 356.000,279.036 355.640,279.508 355.200 C 279.980 354.760,280.509 354.400,280.683 354.399 C 280.857 354.399,281.630 353.859,282.400 353.200 C 283.170 352.541,283.953 352.001,284.140 352.001 C 284.326 352.000,284.983 351.460,285.600 350.800 C 286.217 350.140,286.876 349.600,287.065 349.600 C 287.479 349.600,290.137 347.338,292.947 344.595 C 294.076 343.493,295.630 342.153,296.400 341.618 C 298.234 340.344,305.086 333.497,306.826 331.200 C 307.576 330.210,308.867 328.739,309.695 327.931 C 310.523 327.124,311.200 326.290,311.200 326.080 C 311.200 325.869,311.920 324.955,312.800 324.048 C 313.680 323.141,314.400 322.308,314.400 322.196 C 314.400 322.084,314.940 321.428,315.600 320.737 C 316.260 320.046,316.800 319.278,316.800 319.029 C 316.800 318.780,317.160 318.317,317.600 318.000 C 318.040 317.683,318.400 317.193,318.400 316.912 C 318.400 316.630,318.580 316.400,318.800 316.400 C 319.020 316.400,319.200 316.212,319.200 315.983 C 319.200 315.754,319.560 315.180,320.000 314.708 C 320.440 314.236,320.800 313.613,320.800 313.325 C 320.800 313.036,320.958 312.800,321.151 312.800 C 321.345 312.800,321.727 312.260,322.000 311.600 C 322.273 310.940,322.610 310.398,322.749 310.396 C 322.887 310.394,323.355 309.584,323.790 308.596 C 324.224 307.608,324.719 306.800,324.890 306.800 C 325.060 306.800,325.200 306.530,325.200 306.200 C 325.200 305.870,325.346 305.600,325.525 305.600 C 325.704 305.600,326.098 304.970,326.400 304.200 C 326.702 303.430,327.096 302.800,327.275 302.800 C 327.454 302.800,327.600 302.440,327.600 302.000 C 327.600 301.560,327.780 301.200,328.000 301.200 C 328.220 301.200,328.400 300.855,328.400 300.433 C 328.400 300.012,328.537 299.607,328.704 299.533 C 329.112 299.354,332.407 292.733,332.403 292.100 C 332.401 291.825,332.580 291.600,332.800 291.600 C 333.020 291.600,333.200 291.240,333.200 290.800 C 333.200 290.360,333.380 290.000,333.600 290.000 C 333.820 290.000,334.000 289.640,334.000 289.200 C 334.000 288.760,334.180 288.400,334.400 288.400 C 334.620 288.400,334.800 287.950,334.800 287.400 C 334.800 286.850,334.980 286.400,335.200 286.400 C 335.420 286.400,335.600 286.051,335.600 285.624 C 335.600 285.197,335.780 284.736,336.000 284.600 C 336.220 284.464,336.400 283.928,336.400 283.410 C 336.400 282.891,336.545 282.407,336.722 282.333 C 336.898 282.260,337.407 281.033,337.852 279.606 L 338.661 277.013 337.667 276.497 C 337.120 276.214,335.486 275.112,334.036 274.049 C 332.586 272.987,329.960 271.157,328.200 269.982 C 326.440 268.808,324.793 267.657,324.541 267.424 C 324.083 267.001,310.144 257.360,308.893 256.600 C 308.530 256.380,307.981 255.968,307.673 255.684 C 302.069 250.535,289.292 249.746,279.698 253.957 C 272.150 257.270,266.679 257.203,258.869 253.703 C 256.892 252.817,256.669 252.794,255.783 253.374 C 254.376 254.296,253.488 254.146,252.175 252.763 C 249.943 250.414,249.233 250.113,246.800 250.480 M39.459 255.000 C 39.593 256.100,39.769 257.075,39.851 257.167 C 40.164 257.517,39.926 254.561,39.580 253.800 C 39.335 253.261,39.295 253.654,39.459 255.000 M40.262 259.000 C 40.396 259.880,40.572 260.675,40.653 260.767 C 40.956 261.110,40.729 258.968,40.381 258.200 C 40.129 257.642,40.093 257.885,40.262 259.000 M41.062 262.600 C 41.196 263.480,41.372 264.275,41.453 264.367 C 41.756 264.710,41.529 262.568,41.181 261.800 C 40.929 261.242,40.893 261.485,41.062 262.600 M41.847 265.800 C 42.250 267.940,44.747 276.111,46.126 279.806 C 46.454 280.683,46.834 281.741,46.970 282.157 C 47.107 282.574,47.311 282.822,47.424 282.709 C 47.537 282.596,47.246 281.536,46.778 280.352 C 45.643 277.479,44.031 272.453,42.754 267.800 C 42.126 265.512,41.556 264.255,41.847 265.800 M50.017 289.500 C 50.039 289.901,51.562 292.670,51.583 292.349 C 51.611 291.935,50.405 289.200,50.195 289.200 C 50.088 289.200,50.008 289.335,50.017 289.500 M55.809 301.102 C 56.425 302.258,56.999 303.134,57.084 303.049 C 57.270 302.863,55.701 299.968,55.106 299.400 C 54.876 299.180,55.192 299.946,55.809 301.102 " stroke="none" fill="#abdf9e" fill-rule="evenodd"></path><path id="path1" d="M124.428 249.562 C 90.307 283.683,62.323 311.600,62.242 311.600 C 61.500 311.600,50.000 290.764,50.000 289.421 C 50.000 289.294,49.622 288.338,49.160 287.296 C 48.698 286.253,48.158 284.995,47.960 284.500 C 47.762 284.005,47.437 283.195,47.237 282.700 C 46.099 279.875,45.238 277.368,43.220 271.000 C 41.566 265.781,39.604 256.581,38.161 247.279 C 37.790 244.889,37.076 245.299,31.217 251.266 C 24.157 258.458,25.468 257.140,16.800 265.753 C 8.864 273.639,6.000 276.655,6.000 277.127 C 6.000 277.290,5.640 277.683,5.200 278.000 C 4.760 278.317,4.400 278.897,4.400 279.288 C 4.400 279.680,4.248 280.000,4.063 280.000 C 3.751 280.000,2.447 282.438,1.496 284.800 C 1.274 285.350,0.892 286.232,0.646 286.761 C -0.019 288.193,0.030 306.877,0.700 307.100 C 0.975 307.192,1.200 307.792,1.200 308.433 C 1.200 309.075,1.380 309.600,1.600 309.600 C 1.820 309.600,2.000 309.960,2.000 310.400 C 2.000 310.840,2.180 311.200,2.400 311.200 C 2.620 311.200,2.800 311.560,2.800 312.000 C 2.800 312.440,2.980 312.800,3.200 312.800 C 3.420 312.800,3.600 313.036,3.600 313.325 C 3.600 313.613,3.960 314.236,4.400 314.708 C 4.840 315.180,5.200 315.768,5.200 316.013 C 5.200 316.651,56.775 368.084,58.100 368.768 C 58.705 369.080,59.200 369.485,59.200 369.668 C 59.200 369.850,59.425 370.004,59.700 370.009 C 59.975 370.014,60.650 370.370,61.200 370.800 C 61.750 371.230,62.515 371.586,62.900 371.591 C 63.285 371.596,63.601 371.735,63.602 371.900 C 63.605 372.313,68.826 373.837,72.046 374.366 C 77.134 375.201,83.992 374.535,88.200 372.797 C 91.683 371.359,93.200 370.610,93.200 370.329 C 93.200 370.148,93.520 370.000,93.912 370.000 C 94.303 370.000,94.883 369.640,95.200 369.200 C 95.517 368.760,96.009 368.400,96.292 368.400 C 97.026 368.400,107.600 357.733,107.600 356.993 C 107.600 356.655,135.441 328.479,169.469 294.380 L 231.338 232.381 229.969 230.915 C 218.535 218.672,216.132 217.311,211.538 220.470 C 210.954 220.871,210.294 221.200,210.072 221.200 C 209.849 221.200,209.607 221.338,209.533 221.506 C 209.460 221.675,208.129 222.575,206.576 223.506 C 202.357 226.037,201.982 225.951,197.452 221.421 C 192.144 216.113,192.163 216.446,196.739 209.000 C 201.062 201.965,200.128 199.888,187.503 188.462 L 186.466 187.523 124.428 249.562 " stroke="none" fill="#fbde74" fill-rule="evenodd"></path><path id="path2" d="M196.893 22.106 C 194.422 24.585,192.400 26.923,192.400 27.302 C 192.400 27.681,195.505 31.053,199.300 34.794 C 207.570 42.947,206.821 42.201,214.965 50.400 C 218.570 54.030,222.483 57.936,223.660 59.080 C 224.837 60.224,226.848 62.273,228.129 63.633 L 230.457 66.108 229.091 67.554 C 226.368 70.437,224.386 74.848,225.502 75.541 C 225.732 75.683,226.222 76.837,226.590 78.105 C 228.471 84.581,235.198 86.703,240.650 82.541 C 244.866 79.323,246.671 80.430,261.540 95.361 C 278.251 112.142,278.805 108.317,256.412 130.779 C 236.535 150.716,230.263 157.716,224.125 166.814 C 220.013 172.910,217.395 174.182,213.000 172.220 C 212.340 171.925,210.900 171.286,209.800 170.800 C 208.700 170.314,207.260 169.674,206.600 169.379 C 205.940 169.084,202.700 167.687,199.400 166.275 C 196.100 164.863,192.500 163.303,191.400 162.808 C 190.300 162.312,188.860 161.677,188.200 161.396 C 187.540 161.114,186.100 160.486,185.000 160.000 C 183.900 159.514,182.370 158.846,181.600 158.516 C 179.369 157.561,176.659 156.343,175.905 155.956 C 173.830 154.892,172.766 155.436,168.704 159.640 C 166.557 161.862,164.800 163.974,164.800 164.334 C 164.800 164.693,172.495 172.680,181.900 182.082 C 191.305 191.483,199.217 199.676,199.482 200.288 C 200.678 203.047,199.281 206.879,194.753 213.262 C 193.141 215.534,193.615 216.672,197.944 220.925 C 202.629 225.528,202.515 225.509,207.202 222.453 C 207.753 222.094,208.563 221.583,209.002 221.317 C 209.441 221.052,210.586 220.357,211.547 219.773 C 216.610 216.696,216.315 216.497,236.210 236.396 C 247.432 247.621,253.680 253.592,254.207 253.595 C 255.208 253.601,263.200 245.685,263.200 244.688 C 263.200 244.304,263.040 243.677,262.844 243.295 C 262.648 242.913,262.108 241.745,261.644 240.700 C 261.180 239.655,260.459 238.035,260.042 237.100 C 259.624 236.165,259.013 234.770,258.684 234.000 C 257.992 232.385,256.562 229.144,255.771 227.400 C 254.835 225.334,250.760 215.913,249.717 213.400 C 249.169 212.080,248.359 210.190,247.918 209.200 C 247.477 208.210,246.849 206.770,246.524 206.000 C 246.199 205.230,245.768 204.287,245.566 203.905 C 244.305 201.513,245.926 198.421,249.905 195.629 C 253.247 193.285,257.277 190.332,257.600 189.991 C 257.710 189.874,258.610 189.159,259.600 188.400 C 265.056 184.220,271.077 178.589,286.512 163.232 C 295.923 153.868,304.293 145.801,305.112 145.305 C 308.926 142.996,310.079 143.763,324.257 158.054 C 338.212 172.118,339.015 173.422,336.125 177.317 C 334.111 180.030,333.600 181.258,333.600 183.386 C 333.600 187.424,337.342 191.974,340.695 192.013 C 341.303 192.020,342.149 192.290,342.576 192.613 C 343.463 193.283,344.800 193.396,344.800 192.800 C 344.800 192.580,345.340 192.400,346.000 192.400 C 346.660 192.400,347.200 192.220,347.200 192.000 C 347.200 191.780,347.545 191.600,347.967 191.600 C 348.388 191.600,348.796 191.465,348.873 191.300 C 348.950 191.135,349.753 190.310,350.657 189.467 L 352.300 187.935 354.200 189.667 C 355.245 190.620,356.842 192.186,357.750 193.147 C 358.657 194.108,362.370 197.840,366.000 201.441 C 369.630 205.041,373.297 208.688,374.148 209.546 C 389.171 224.675,390.558 226.000,391.371 226.000 C 391.904 226.000,394.541 223.713,398.699 219.645 C 400.166 218.209,400.597 212.932,399.283 212.494 C 399.017 212.406,398.800 211.988,398.800 211.567 C 398.800 211.145,398.620 210.800,398.400 210.800 C 398.180 210.800,398.000 210.440,398.000 210.000 C 398.000 209.560,397.820 209.200,397.600 209.200 C 397.380 209.200,397.200 208.840,397.200 208.400 C 397.200 207.960,397.020 207.600,396.800 207.600 C 396.580 207.600,396.400 207.240,396.400 206.800 C 396.400 206.360,396.220 206.000,396.000 206.000 C 395.780 206.000,395.600 205.640,395.600 205.200 C 395.600 204.760,395.420 204.400,395.200 204.400 C 394.980 204.400,394.800 204.040,394.800 203.600 C 394.800 203.160,394.620 202.800,394.400 202.800 C 394.180 202.800,394.000 202.440,394.000 202.000 C 394.000 201.560,393.820 201.200,393.600 201.200 C 393.380 201.200,393.200 200.840,393.200 200.400 C 393.200 199.960,393.020 199.600,392.800 199.600 C 392.580 199.600,392.400 199.240,392.400 198.800 C 392.400 198.360,392.220 198.000,392.000 198.000 C 391.780 198.000,391.600 197.734,391.600 197.409 C 391.600 196.694,389.523 192.254,389.100 192.067 C 388.935 191.993,388.800 191.588,388.800 191.167 C 388.800 190.745,388.620 190.400,388.400 190.400 C 388.180 190.400,388.000 190.040,388.000 189.600 C 388.000 189.160,387.820 188.800,387.600 188.800 C 387.380 188.800,387.200 188.440,387.200 188.000 C 387.200 187.560,387.020 187.200,386.800 187.200 C 386.580 187.200,386.400 186.840,386.400 186.400 C 386.400 185.960,386.220 185.600,386.000 185.600 C 385.780 185.600,385.600 185.240,385.600 184.800 C 385.600 184.360,385.420 184.000,385.200 184.000 C 384.980 184.000,384.800 183.640,384.800 183.200 C 384.800 182.760,384.620 182.400,384.400 182.400 C 384.180 182.400,384.000 182.040,384.000 181.600 C 384.000 181.160,383.820 180.800,383.600 180.800 C 383.380 180.800,383.200 180.440,383.200 180.000 C 383.200 179.560,383.020 179.200,382.800 179.200 C 382.580 179.200,382.400 178.955,382.400 178.655 C 382.400 178.356,381.680 176.711,380.800 175.000 C 379.920 173.289,379.200 171.644,379.200 171.345 C 379.200 171.045,379.020 170.800,378.800 170.800 C 378.580 170.800,378.400 170.440,378.400 170.000 C 378.400 169.560,378.220 169.200,378.000 169.200 C 377.780 169.200,377.600 168.840,377.600 168.400 C 377.600 167.960,377.420 167.600,377.200 167.600 C 376.980 167.600,376.800 167.240,376.800 166.800 C 376.800 166.360,376.620 166.000,376.400 166.000 C 374.335 166.000,376.835 162.841,384.631 155.600 C 389.983 150.629,390.349 148.304,386.376 144.513 C 385.043 143.241,382.796 141.075,381.383 139.700 C 377.831 136.242,376.163 136.163,372.989 139.300 C 366.848 145.370,366.000 146.037,366.000 144.800 C 366.000 144.360,365.854 144.000,365.675 144.000 C 365.496 144.000,365.102 143.370,364.800 142.600 C 364.498 141.830,364.104 141.200,363.925 141.200 C 363.746 141.200,363.600 140.840,363.600 140.400 C 363.600 139.960,363.420 139.600,363.200 139.600 C 362.980 139.600,362.800 139.335,362.800 139.012 C 362.800 138.689,362.440 137.783,362.000 137.000 C 361.560 136.217,361.200 135.311,361.200 134.988 C 361.200 134.665,361.020 134.400,360.800 134.400 C 360.580 134.400,360.400 134.183,360.400 133.918 C 360.400 133.477,359.756 132.085,355.156 122.586 C 354.300 120.818,353.600 119.153,353.600 118.886 C 353.600 118.619,353.420 118.400,353.200 118.400 C 352.980 118.400,352.800 118.040,352.800 117.600 C 352.800 117.160,352.620 116.800,352.400 116.800 C 352.180 116.800,352.000 116.440,352.000 116.000 C 352.000 115.560,351.820 115.200,351.600 115.200 C 351.380 115.200,351.200 114.840,351.200 114.400 C 351.200 113.960,351.020 113.600,350.800 113.600 C 350.580 113.600,350.400 113.240,350.400 112.800 C 350.400 112.360,350.254 112.000,350.075 112.000 C 349.896 112.000,349.502 111.370,349.200 110.600 C 348.898 109.830,348.504 109.200,348.325 109.200 C 348.146 109.200,348.000 108.840,348.000 108.400 C 348.000 107.960,347.820 107.600,347.600 107.600 C 347.011 107.600,347.113 105.896,347.783 104.554 C 348.104 103.912,352.739 98.964,358.083 93.559 C 368.873 82.647,372.659 78.579,374.236 76.200 C 374.820 75.320,375.455 74.540,375.649 74.467 C 375.842 74.393,376.000 74.144,376.000 73.914 C 376.000 73.683,376.316 73.203,376.703 72.847 C 377.089 72.491,377.660 71.705,377.970 71.100 C 378.281 70.495,378.685 70.000,378.868 70.000 C 379.050 70.000,379.200 69.722,379.200 69.383 C 379.200 69.044,379.560 68.380,380.000 67.908 C 380.440 67.436,380.800 66.813,380.800 66.525 C 380.800 66.236,380.980 66.000,381.200 66.000 C 381.420 66.000,381.600 65.640,381.600 65.200 C 381.600 64.760,381.780 64.400,382.000 64.400 C 382.220 64.400,382.400 64.040,382.400 63.600 C 382.400 63.160,382.580 62.800,382.800 62.800 C 383.020 62.800,383.200 62.440,383.200 62.000 C 383.200 61.560,383.380 61.200,383.600 61.200 C 383.820 61.200,384.000 60.840,384.000 60.400 C 384.000 59.960,384.180 59.600,384.400 59.600 C 384.620 59.600,384.800 59.321,384.800 58.981 C 384.800 58.640,385.160 57.616,385.600 56.706 C 386.040 55.795,386.400 54.724,386.400 54.325 C 386.400 53.926,386.580 53.600,386.800 53.600 C 387.020 53.600,387.200 53.060,387.200 52.400 C 387.200 51.740,387.380 51.200,387.600 51.200 C 387.820 51.200,388.000 50.671,388.000 50.024 C 388.000 49.377,388.180 48.736,388.400 48.600 C 388.620 48.464,388.800 47.834,388.800 47.200 C 388.800 46.566,388.980 45.936,389.200 45.800 C 390.185 45.191,389.342 35.600,388.303 35.600 C 388.136 35.600,388.000 35.359,388.000 35.064 C 388.000 34.288,384.596 30.800,383.840 30.800 C 383.488 30.800,383.200 30.620,383.200 30.400 C 383.200 30.180,382.840 30.000,382.400 30.000 C 381.960 30.000,381.600 29.820,381.600 29.600 C 381.600 29.380,380.891 29.200,380.024 29.200 C 379.157 29.200,378.325 29.003,378.176 28.762 C 378.010 28.493,377.345 28.423,376.453 28.580 C 375.654 28.722,374.235 28.937,373.300 29.059 C 372.365 29.181,371.600 29.442,371.600 29.640 C 371.600 29.838,370.981 30.000,370.224 30.000 C 369.467 30.000,368.736 30.180,368.600 30.400 C 368.464 30.620,367.924 30.800,367.400 30.800 C 366.876 30.800,366.336 30.980,366.200 31.200 C 366.064 31.420,365.524 31.600,365.000 31.600 C 364.476 31.600,363.936 31.780,363.800 32.000 C 363.664 32.220,363.203 32.400,362.776 32.400 C 362.349 32.400,362.000 32.580,362.000 32.800 C 362.000 33.020,361.550 33.200,361.000 33.200 C 360.450 33.200,360.000 33.380,360.000 33.600 C 360.000 33.820,359.640 34.000,359.200 34.000 C 358.760 34.000,358.400 34.180,358.400 34.400 C 358.400 34.620,358.040 34.800,357.600 34.800 C 357.160 34.800,356.800 34.980,356.800 35.200 C 356.800 35.420,356.440 35.600,356.000 35.600 C 355.560 35.600,355.200 35.780,355.200 36.000 C 355.200 36.220,354.840 36.400,354.400 36.400 C 353.960 36.400,353.600 36.580,353.600 36.800 C 353.600 37.020,353.240 37.200,352.800 37.200 C 352.360 37.200,352.000 37.380,352.000 37.600 C 352.000 37.820,351.764 38.000,351.475 38.000 C 351.187 38.000,350.564 38.360,350.092 38.800 C 349.620 39.240,348.996 39.600,348.705 39.600 C 348.414 39.600,347.917 39.960,347.600 40.400 C 347.283 40.840,346.703 41.200,346.312 41.200 C 345.920 41.200,345.600 41.341,345.600 41.514 C 345.600 41.686,345.028 42.166,344.328 42.579 C 343.629 42.992,342.522 43.841,341.869 44.465 C 341.216 45.089,340.524 45.600,340.333 45.600 C 340.141 45.600,334.497 51.090,327.790 57.800 C 321.084 64.510,315.327 70.000,314.998 70.000 C 314.669 70.000,314.400 70.180,314.400 70.400 C 314.400 70.905,311.023 70.926,310.095 70.426 C 309.713 70.221,308.815 69.817,308.100 69.529 C 307.385 69.240,306.800 68.869,306.800 68.702 C 306.800 68.536,306.440 68.400,306.000 68.400 C 305.560 68.400,305.200 68.220,305.200 68.000 C 305.200 67.780,304.840 67.600,304.400 67.600 C 303.960 67.600,303.600 67.420,303.600 67.200 C 303.600 66.980,303.240 66.800,302.800 66.800 C 302.360 66.800,302.000 66.620,302.000 66.400 C 302.000 66.180,301.640 66.000,301.200 66.000 C 300.760 66.000,300.400 65.820,300.400 65.600 C 300.400 65.380,300.040 65.200,299.600 65.200 C 299.160 65.200,298.800 65.020,298.800 64.800 C 298.800 64.580,298.440 64.400,298.000 64.400 C 297.560 64.400,297.200 64.220,297.200 64.000 C 297.200 63.780,296.840 63.600,296.400 63.600 C 295.960 63.600,295.600 63.420,295.600 63.200 C 295.600 62.980,295.240 62.800,294.800 62.800 C 294.360 62.800,294.000 62.620,294.000 62.400 C 294.000 62.180,293.640 62.000,293.200 62.000 C 292.760 62.000,292.400 61.820,292.400 61.600 C 292.400 61.380,292.055 61.200,291.633 61.200 C 291.212 61.200,290.807 61.065,290.733 60.900 C 290.546 60.477,286.106 58.400,285.391 58.400 C 285.066 58.400,284.800 58.220,284.800 58.000 C 284.800 57.780,284.440 57.600,284.000 57.600 C 283.560 57.600,283.200 57.420,283.200 57.200 C 283.200 56.980,282.840 56.800,282.400 56.800 C 281.960 56.800,281.600 56.620,281.600 56.400 C 281.600 56.180,281.240 56.000,280.800 56.000 C 280.360 56.000,280.000 55.820,280.000 55.600 C 280.000 55.380,279.640 55.200,279.200 55.200 C 278.760 55.200,278.400 55.020,278.400 54.800 C 278.400 54.580,278.040 54.400,277.600 54.400 C 277.160 54.400,276.800 54.220,276.800 54.000 C 276.800 53.780,276.440 53.600,276.000 53.600 C 275.560 53.600,275.200 53.420,275.200 53.200 C 275.200 52.980,274.840 52.800,274.400 52.800 C 272.894 52.800,273.596 51.573,277.100 48.085 C 280.812 44.389,282.940 40.400,281.200 40.400 C 280.980 40.400,280.800 40.127,280.800 39.794 C 280.800 39.461,279.298 37.687,277.462 35.851 C 275.627 34.015,273.869 32.149,273.557 31.703 C 272.369 30.007,268.812 28.611,268.200 29.600 C 268.064 29.820,267.637 30.000,267.252 30.000 C 266.866 30.000,263.772 32.839,260.375 36.309 L 254.200 42.618 252.700 42.238 C 251.875 42.030,251.200 41.711,251.200 41.529 C 251.200 41.348,250.840 41.200,250.400 41.200 C 249.960 41.200,249.600 41.020,249.600 40.800 C 249.600 40.580,249.240 40.400,248.800 40.400 C 248.360 40.400,248.000 40.220,248.000 40.000 C 248.000 39.780,247.640 39.600,247.200 39.600 C 246.760 39.600,246.400 39.420,246.400 39.200 C 246.400 38.980,246.040 38.800,245.600 38.800 C 245.160 38.800,244.800 38.620,244.800 38.400 C 244.800 38.180,244.440 38.000,244.000 38.000 C 243.560 38.000,243.200 37.820,243.200 37.600 C 243.200 37.380,242.840 37.200,242.400 37.200 C 241.960 37.200,241.600 37.020,241.600 36.800 C 241.600 36.580,241.255 36.400,240.833 36.400 C 240.412 36.400,240.007 36.259,239.933 36.088 C 239.700 35.541,217.523 24.800,216.628 24.800 C 216.283 24.800,216.000 24.620,216.000 24.400 C 216.000 24.180,215.640 24.000,215.200 24.000 C 214.760 24.000,214.400 23.820,214.400 23.600 C 214.400 23.380,214.040 23.200,213.600 23.200 C 213.160 23.200,212.800 23.020,212.800 22.800 C 212.800 22.580,212.440 22.400,212.000 22.400 C 211.560 22.400,211.200 22.220,211.200 22.000 C 211.200 21.780,210.840 21.600,210.400 21.600 C 209.960 21.600,209.600 21.420,209.600 21.200 C 209.600 20.980,209.240 20.800,208.800 20.800 C 208.360 20.800,208.000 20.654,208.000 20.475 C 208.000 20.296,207.370 19.902,206.600 19.600 C 205.830 19.298,205.200 18.904,205.200 18.725 C 205.200 18.546,204.840 18.400,204.400 18.400 C 203.960 18.400,203.600 18.220,203.600 18.000 C 203.600 16.333,201.162 17.826,196.893 22.106 " stroke="none" fill="#447494" fill-rule="evenodd"></path><path id="path3" d="M189.991 72.300 C 189.987 72.685,186.190 77.410,181.555 82.800 C 171.507 94.483,171.960 93.955,169.200 97.203 C 167.990 98.627,166.522 100.334,165.937 100.996 C 158.250 109.704,157.244 112.974,157.200 129.400 C 157.159 144.565,155.630 149.092,148.289 155.792 C 140.175 163.197,137.193 172.866,140.033 182.557 C 144.219 196.838,149.460 207.291,156.539 215.478 L 157.297 216.355 171.873 201.795 L 186.448 187.235 175.424 176.170 C 167.307 168.022,164.400 164.859,164.400 164.172 C 164.400 163.040,172.598 154.802,173.726 154.801 C 174.125 154.800,175.435 155.250,176.637 155.800 C 177.840 156.350,178.920 156.800,179.037 156.800 C 179.154 156.800,180.364 157.318,181.725 157.950 C 184.097 159.052,185.407 159.633,188.700 161.042 C 189.525 161.394,190.920 162.006,191.800 162.400 C 192.680 162.794,194.030 163.387,194.800 163.716 C 195.570 164.046,197.010 164.675,198.000 165.113 C 211.951 171.296,214.751 172.400,216.475 172.400 C 218.810 172.400,220.155 171.492,222.253 168.500 C 224.698 165.016,228.268 160.197,228.904 159.525 C 229.177 159.236,229.930 158.291,230.578 157.424 C 233.620 153.356,238.993 147.676,255.384 131.200 C 274.637 111.848,274.177 112.423,273.228 108.906 C 272.823 107.407,250.572 84.672,247.367 82.483 C 245.403 81.141,243.204 81.213,241.352 82.678 C 235.081 87.642,227.823 85.225,225.850 77.516 C 225.259 75.206,224.807 74.913,221.724 74.840 C 220.802 74.818,219.936 74.620,219.800 74.400 C 219.664 74.180,218.573 74.000,217.376 74.000 C 216.179 74.000,215.200 73.820,215.200 73.600 C 215.200 73.367,213.867 73.200,212.000 73.200 C 210.133 73.200,208.800 73.033,208.800 72.800 C 208.800 72.556,206.941 72.400,204.024 72.400 C 201.271 72.400,199.142 72.231,199.000 72.000 C 198.514 71.213,190.001 71.497,189.991 72.300 M73.800 179.814 C 68.701 182.654,64.912 184.399,61.114 185.657 C 55.962 187.363,50.427 188.345,45.300 188.464 C 42.249 188.535,41.200 188.692,41.200 189.079 C 41.200 189.366,41.020 189.600,40.800 189.600 C 40.580 189.600,40.400 190.399,40.400 191.376 C 40.400 192.353,40.220 193.264,40.000 193.400 C 39.780 193.536,39.600 194.346,39.600 195.200 C 39.600 196.054,39.420 196.864,39.200 197.000 C 38.980 197.136,38.800 198.137,38.800 199.224 C 38.800 200.311,38.620 201.200,38.400 201.200 C 38.171 201.200,38.000 202.400,38.000 204.000 C 38.000 205.600,37.829 206.800,37.600 206.800 C 37.362 206.800,37.200 208.325,37.200 210.576 C 37.200 212.663,37.021 214.463,36.800 214.600 C 36.255 214.937,36.255 239.063,36.800 239.400 C 37.020 239.536,37.200 240.875,37.200 242.375 C 37.200 244.311,37.374 245.246,37.800 245.600 C 38.130 245.874,38.400 246.523,38.400 247.043 C 38.400 247.563,38.573 248.756,38.784 249.694 C 38.995 250.632,39.363 252.480,39.603 253.800 C 40.720 259.956,41.828 264.869,42.805 268.000 C 42.976 268.550,43.513 270.350,43.997 272.000 C 47.200 282.911,54.590 299.687,58.795 305.593 C 59.238 306.215,59.600 306.843,59.600 306.990 C 59.600 307.535,62.055 310.800,62.465 310.800 C 62.699 310.800,69.344 304.358,77.232 296.484 L 91.572 282.168 91.326 276.717 C 91.000 269.508,91.594 265.744,94.437 257.000 C 94.866 255.680,95.394 254.047,95.609 253.372 C 97.284 248.112,95.525 241.870,90.464 235.118 C 88.145 232.024,85.198 227.846,84.564 226.755 C 84.325 226.343,83.865 225.689,83.542 225.303 C 83.045 224.709,81.233 221.124,79.951 218.200 C 78.810 215.596,78.012 210.716,78.006 206.306 C 78.000 201.407,78.156 200.397,79.973 193.600 C 80.238 192.610,80.598 191.260,80.773 190.600 C 81.711 187.069,82.041 185.857,82.452 184.436 C 84.001 179.078,79.468 176.657,73.800 179.814 M266.749 183.061 C 265.623 184.418,255.978 191.976,249.501 196.576 C 244.523 200.113,244.609 200.822,252.042 217.500 C 253.558 220.901,254.496 223.027,255.042 224.300 C 255.349 225.015,255.851 226.185,256.158 226.900 C 256.769 228.325,257.866 230.811,259.114 233.600 C 264.524 245.687,264.469 244.895,260.200 249.125 C 256.176 253.114,256.331 252.566,258.900 253.717 C 266.677 257.202,272.161 257.265,279.698 253.957 C 289.292 249.746,302.069 250.535,307.673 255.684 C 307.981 255.968,308.530 256.380,308.893 256.600 C 310.144 257.360,324.083 267.001,324.541 267.424 C 324.793 267.657,326.440 268.811,328.200 269.989 C 329.960 271.166,332.856 273.180,334.636 274.465 C 336.415 275.749,338.050 276.800,338.268 276.800 C 338.863 276.800,340.049 273.962,340.189 272.200 C 340.207 271.980,340.342 271.607,340.490 271.372 C 340.849 270.800,341.256 268.980,341.489 266.900 C 341.595 265.965,341.842 265.200,342.040 265.200 C 342.238 265.200,342.400 264.480,342.400 263.600 C 342.400 262.720,342.580 262.000,342.800 262.000 C 343.020 262.000,343.200 261.201,343.200 260.224 C 343.200 259.247,343.380 258.336,343.600 258.200 C 343.820 258.064,344.000 257.153,344.000 256.176 C 344.000 255.199,344.180 254.400,344.400 254.400 C 344.622 254.400,344.800 253.341,344.800 252.024 C 344.800 250.717,344.980 249.536,345.200 249.400 C 345.420 249.264,345.600 247.633,345.600 245.776 C 345.600 243.792,345.765 242.400,346.000 242.400 C 346.222 242.400,346.400 241.333,346.400 240.000 C 346.400 238.422,346.238 237.600,345.928 237.600 C 345.411 237.600,342.558 235.671,333.642 229.293 C 316.237 216.843,302.151 211.640,280.305 209.592 C 271.647 208.781,270.254 208.441,268.090 206.617 C 264.949 203.968,264.162 199.612,265.991 195.000 C 268.210 189.407,268.767 180.630,266.749 183.061 M177.398 286.836 L 123.400 340.871 125.000 341.638 C 126.866 342.532,134.761 346.187,136.800 347.100 C 147.763 352.014,150.384 353.659,152.503 356.958 C 154.920 360.722,155.200 362.887,155.200 377.848 C 155.200 378.224,155.703 378.400,156.776 378.400 C 157.643 378.400,158.464 378.580,158.600 378.800 C 158.736 379.020,159.636 379.200,160.600 379.200 C 161.564 379.200,162.464 379.380,162.600 379.600 C 162.736 379.820,163.726 380.000,164.800 380.000 C 165.874 380.000,166.847 380.153,166.962 380.339 C 167.077 380.525,168.483 380.715,170.086 380.761 C 171.689 380.806,173.060 381.014,173.133 381.222 C 173.207 381.430,175.131 381.600,177.410 381.600 C 179.740 381.600,181.661 381.775,181.800 382.000 C 181.953 382.248,185.596 382.400,191.400 382.400 C 197.204 382.400,200.847 382.248,201.000 382.000 C 201.136 381.780,202.587 381.600,204.224 381.600 C 206.847 381.600,207.200 381.513,207.200 380.864 C 207.200 380.261,210.821 375.606,215.340 370.400 C 224.838 359.458,226.626 356.320,227.641 348.800 C 228.828 340.006,232.411 334.417,241.543 327.114 C 244.926 324.409,246.138 321.857,246.157 317.400 C 246.178 312.421,245.377 311.063,238.434 304.294 C 224.738 290.939,222.739 280.376,231.275 266.453 C 232.169 264.994,233.976 262.000,235.289 259.800 C 239.107 253.405,241.950 251.095,246.689 250.538 C 247.850 250.401,248.800 250.127,248.800 249.928 C 248.800 249.481,232.166 232.800,231.719 232.800 C 231.541 232.800,207.097 257.116,177.398 286.836 " stroke="none" fill="#99c2fb" fill-rule="evenodd"></path><path id="path4" d="M225.632 76.285 C 225.421 82.160,232.629 86.902,238.220 84.566 C 239.905 83.862,243.575 81.200,242.861 81.200 C 242.611 81.200,241.588 81.825,240.587 82.589 C 235.170 86.724,228.796 84.691,226.581 78.120 C 226.076 76.624,225.649 75.798,225.632 76.285 M260.270 94.889 C 273.722 108.278,273.964 108.592,273.363 111.906 C 273.127 113.212,270.863 115.642,255.384 131.200 C 238.993 147.676,233.620 153.356,230.578 157.424 C 229.930 158.291,229.177 159.236,228.904 159.525 C 228.268 160.197,224.698 165.016,222.253 168.500 C 220.155 171.492,218.810 172.400,216.475 172.400 C 214.751 172.400,211.951 171.296,198.000 165.113 C 197.010 164.675,195.570 164.046,194.800 163.716 C 194.030 163.387,192.680 162.794,191.800 162.400 C 190.920 162.006,189.525 161.394,188.700 161.042 C 185.407 159.633,184.097 159.052,181.725 157.950 C 180.364 157.318,179.154 156.800,179.037 156.800 C 178.920 156.800,177.840 156.350,176.637 155.800 C 175.435 155.250,174.125 154.800,173.726 154.801 C 172.570 154.802,164.400 163.042,164.400 164.207 C 164.400 164.951,168.386 169.153,181.552 182.288 C 190.985 191.700,198.900 199.760,199.140 200.200 C 199.379 200.640,199.578 200.820,199.582 200.600 C 199.593 199.821,198.679 198.864,181.826 182.012 C 172.462 172.648,164.800 164.693,164.800 164.334 C 164.800 163.974,166.557 161.862,168.704 159.640 C 172.766 155.436,173.830 154.892,175.905 155.956 C 176.659 156.343,179.369 157.561,181.600 158.516 C 182.370 158.846,183.900 159.514,185.000 160.000 C 186.100 160.486,187.540 161.114,188.200 161.396 C 188.860 161.677,190.300 162.312,191.400 162.808 C 192.500 163.303,196.100 164.863,199.400 166.275 C 202.700 167.687,205.940 169.084,206.600 169.379 C 207.260 169.674,208.700 170.314,209.800 170.800 C 210.900 171.286,212.340 171.925,213.000 172.220 C 217.395 174.182,220.013 172.910,224.125 166.814 C 230.263 157.716,236.535 150.716,256.412 130.779 C 274.374 112.762,274.326 112.821,273.810 109.270 C 273.546 107.452,249.621 82.400,248.148 82.400 C 247.914 82.400,253.369 88.020,260.270 94.889 M305.112 145.305 C 304.293 145.801,295.923 153.868,286.512 163.232 C 271.077 178.589,265.056 184.220,259.600 188.400 C 258.610 189.159,257.710 189.874,257.600 189.991 C 257.277 190.332,253.247 193.285,249.905 195.629 C 245.926 198.421,244.305 201.513,245.566 203.905 C 245.768 204.287,246.199 205.230,246.524 206.000 C 246.849 206.770,247.477 208.210,247.918 209.200 C 248.359 210.190,249.169 212.080,249.717 213.400 C 250.760 215.913,254.835 225.334,255.771 227.400 C 256.562 229.144,257.992 232.385,258.684 234.000 C 259.013 234.770,259.624 236.165,260.042 237.100 C 260.459 238.035,261.180 239.655,261.644 240.700 C 262.108 241.745,262.648 242.913,262.844 243.295 C 263.570 244.712,263.108 245.478,259.107 249.493 C 253.847 254.771,254.637 254.926,246.909 247.100 C 237.084 237.152,231.200 231.383,231.200 231.700 C 231.200 232.567,253.353 254.000,254.249 254.000 C 255.553 254.000,263.600 246.178,263.600 244.911 C 263.600 244.150,261.766 239.524,259.114 233.600 C 257.866 230.811,256.769 228.325,256.158 226.900 C 255.851 226.185,255.349 225.015,255.042 224.300 C 254.460 222.942,253.449 220.650,252.088 217.600 C 244.608 200.839,244.519 200.115,249.501 196.576 C 263.085 186.928,265.485 184.778,290.847 159.557 C 303.077 147.394,304.982 145.653,306.537 145.218 C 309.666 144.342,310.455 144.947,324.061 158.651 C 330.804 165.443,336.138 170.640,335.913 170.200 C 335.225 168.851,313.116 146.783,311.222 145.554 C 309.050 144.145,307.156 144.068,305.112 145.305 M337.246 174.445 C 337.221 174.800,336.637 175.790,335.948 176.645 C 330.862 182.960,333.210 191.002,340.600 192.581 C 341.260 192.723,342.160 192.938,342.600 193.060 L 343.400 193.283 342.600 192.654 C 342.160 192.308,341.303 192.020,340.695 192.013 C 337.342 191.974,333.600 187.424,333.600 183.386 C 333.600 181.259,334.111 180.030,336.122 177.320 C 337.040 176.084,337.590 174.947,337.480 174.520 C 337.330 173.944,337.284 173.929,337.246 174.445 M199.646 203.667 C 199.621 204.034,199.496 204.664,199.370 205.067 C 199.152 205.762,199.163 205.763,199.597 205.087 C 199.848 204.696,199.973 204.066,199.873 203.687 C 199.711 203.068,199.688 203.066,199.646 203.667 M195.846 211.000 C 195.491 211.550,194.909 212.495,194.553 213.100 L 193.905 214.200 194.710 213.226 C 195.660 212.076,196.921 210.000,196.669 210.000 C 196.571 210.000,196.201 210.450,195.846 211.000 M193.667 215.608 C 193.607 216.878,200.487 224.800,201.651 224.800 C 201.781 224.800,200.123 223.066,197.965 220.946 C 194.665 217.704,194.017 216.862,193.888 215.646 L 193.734 214.200 193.667 215.608 M214.700 218.682 C 215.195 218.778,216.005 218.778,216.500 218.682 C 216.995 218.587,216.590 218.509,215.600 218.509 C 214.610 218.509,214.205 218.587,214.700 218.682 M211.496 219.750 C 209.206 221.158,209.137 221.491,211.400 220.213 C 213.702 218.913,213.866 218.795,213.367 218.812 C 213.165 218.819,212.323 219.241,211.496 219.750 M218.200 219.260 C 218.640 219.500,221.511 222.149,224.580 225.148 C 227.649 228.147,229.359 229.700,228.380 228.600 C 225.394 225.245,218.521 218.799,217.944 218.812 C 217.633 218.819,217.743 219.011,218.200 219.260 M206.881 222.572 C 205.125 223.814,204.697 224.345,206.200 223.418 C 208.278 222.135,208.991 221.599,208.589 221.620 C 208.375 221.630,207.607 222.059,206.881 222.572 " stroke="none" fill="#6d95b7" fill-rule="evenodd"></path></g></svg>